<?xml version="1.0" encoding="UTF-8" standalone="no"?><svg xmlns="http://www.w3.org/2000/svg" xmlns:xlink="http://www.w3.org/1999/xlink" clip-rule="evenodd" stroke-miterlimit="10" viewBox="0 0 1024 768"><desc>SVG generated by Keynote</desc><defs></defs><g transform="matrix(1.00, 0.00, -0.00, -1.00, 0.0, 768.0)"><path d="M 0.0 768.0 L 1024.0 768.0 L 1024.0 0.0 L 0.0 0.0 Z M 0.0 768.0 " fill="#FEFFFF"></path><path d="M 1.0 677.0 L 1023.0 677.0 L 1023.0 59.0 L 1.0 59.0 Z M 0.6 676.7 " fill="#F3F3F3"></path><path d="M 0.1 0.1 L 1040.1 0.1 " fill="none" stroke="#F38F18" stroke-width="1.00" transform="matrix(1.00, 0.00, 0.00, -1.00, -8.1, 676.6)"></path><image xlink:href="../../0099E750-43F4-4A1E-80C1-2076B752852F/assets/55340D757A15DCE0FDDCCB8968979DD4.png" width="426.00" height="426.00" transform="matrix(0.16, 0.00, -0.00, -0.16, 13.0, 757.7)"></image><text xml:space="preserve" font-family="Cervo-Medium,Cervo" font-size="40.0" fill="#0264C0" transform="matrix(1.00, 0.00, -0.00, -1.00, 770.3, 720.6)">M</text><text xml:space="preserve" font-family="Cervo-Medium,Cervo" font-size="40.0" fill="#0264C0" transform="matrix(1.00, 0.00, -0.00, -1.00, 798.4, 720.6)">a</text><text xml:space="preserve" font-family="Cervo-Medium,Cervo" font-size="40.0" fill="#0264C0" transform="matrix(1.00, 0.00, -0.00, -1.00, 821.7, 720.6)">n</text><text xml:space="preserve" font-family="Cervo-Medium,Cervo" font-size="40.0" fill="#0264C0" transform="matrix(1.00, 0.00, -0.00, -1.00, 845.8, 720.6)">u</text><text xml:space="preserve" font-family="Cervo-Medium,Cervo" font-size="40.0" fill="#0264C0" transform="matrix(1.00, 0.00, -0.00, -1.00, 869.9, 720.6)">e</text><text xml:space="preserve" font-family="Cervo-Medium,Cervo" font-size="40.0" fill="#0264C0" transform="matrix(1.00, 0.00, -0.00, -1.00, 893.1, 720.6)">l</text><text xml:space="preserve" font-family="Cervo-Medium,Cervo" font-size="40.0" fill="#0264C0" transform="matrix(1.00, 0.00, -0.00, -1.00, 910.7, 720.6)"> </text><text xml:space="preserve" font-family="Cervo-Medium,Cervo" font-size="40.0" fill="#0264C0" transform="matrix(1.00, 0.00, -0.00, -1.00, 926.7, 720.6)">E</text><text xml:space="preserve" font-family="Cervo-Medium,Cervo" font-size="40.0" fill="#0264C0" transform="matrix(1.00, 0.00, -0.00, -1.00, 948.3, 720.6)">g</text><text xml:space="preserve" font-family="Cervo-Medium,Cervo" font-size="40.0" fill="#0264C0" transform="matrix(1.00, 0.00, -0.00, -1.00, 972.5, 720.6)">í</text><text xml:space="preserve" font-family="Cervo-Medium,Cervo" font-size="40.0" fill="#0264C0" transform="matrix(1.00, 0.00, -0.00, -1.00, 988.5, 720.6)">o</text><text xml:space="preserve" font-family="Cervo-Medium,Cervo" font-size="40.0" fill="#0264C0" transform="matrix(1.00, 0.00, -0.00, -1.00, 1011.7, 720.6)"> </text><text xml:space="preserve" font-family="Cervo-Medium,Cervo" font-size="20.0" fill="#BD5A0C" transform="matrix(1.00, 0.00, -0.00, -1.00, 923.8, 694.5)">S</text><text xml:space="preserve" font-family="Cervo-Medium,Cervo" font-size="20.0" fill="#BD5A0C" transform="matrix(1.00, 0.00, -0.00, -1.00, 935.1, 694.5)">o</text><text xml:space="preserve" font-family="Cervo-Medium,Cervo" font-size="20.0" fill="#BD5A0C" transform="matrix(1.00, 0.00, -0.00, -1.00, 946.7, 694.5)">b</text><text xml:space="preserve" font-family="Cervo-Medium,Cervo" font-size="20.0" fill="#BD5A0C" transform="matrix(1.00, 0.00, -0.00, -1.00, 958.7, 694.5)">r</text><text xml:space="preserve" font-family="Cervo-Medium,Cervo" font-size="20.0" fill="#BD5A0C" transform="matrix(1.00, 0.00, -0.00, -1.00, 967.8, 694.5)">e</text><text xml:space="preserve" font-family="Cervo-Medium,Cervo" font-size="20.0" fill="#BD5A0C" transform="matrix(1.00, 0.00, -0.00, -1.00, 979.4, 694.5)"> </text><text xml:space="preserve" font-family="Cervo-Medium,Cervo" font-size="20.0" fill="#BD5A0C" transform="matrix(1.00, 0.00, -0.00, -1.00, 987.4, 694.5)">m</text><text xml:space="preserve" font-family="Cervo-Medium,Cervo" font-size="20.0" fill="#BD5A0C" transform="matrix(1.00, 0.00, -0.00, -1.00, 1003.7, 694.5)">í</text><text xml:space="preserve" font-family="Cervo-Medium,Cervo" font-size="40.0" fill="#3C3C3C" transform="matrix(1.00, 0.00, -0.00, -1.00, 258.3, 258.8)">D</text><text xml:space="preserve" font-family="Cervo-Medium,Cervo" font-size="40.0" fill="#3C3C3C" transform="matrix(1.00, 0.00, -0.00, -1.00, 276.3, 258.8)">e</text><text xml:space="preserve" font-family="Cervo-Medium,Cervo" font-size="40.0" fill="#3C3C3C" transform="matrix(1.00, 0.00, -0.00, -1.00, 293.9, 258.8)">s</text><text xml:space="preserve" font-family="Cervo-Medium,Cervo" font-size="40.0" fill="#3C3C3C" transform="matrix(1.00, 0.00, -0.00, -1.00, 309.6, 258.8)">a</text><text xml:space="preserve" font-family="Cervo-Medium,Cervo" font-size="40.0" fill="#3C3C3C" transform="matrix(1.00, 0.00, -0.00, -1.00, 327.3, 258.8)">r</text><text xml:space="preserve" font-family="Cervo-Medium,Cervo" font-size="40.0" fill="#3C3C3C" transform="matrix(1.00, 0.00, -0.00, -1.00, 340.4, 258.8)">r</text><text xml:space="preserve" font-family="Cervo-Medium,Cervo" font-size="40.0" fill="#3C3C3C" transform="matrix(1.00, 0.00, -0.00, -1.00, 353.0, 258.8)">o</text><text xml:space="preserve" font-family="Cervo-Medium,Cervo" font-size="40.0" fill="#3C3C3C" transform="matrix(1.00, 0.00, -0.00, -1.00, 370.6, 258.8)">l</text><text xml:space="preserve" font-family="Cervo-Medium,Cervo" font-size="40.0" fill="#3C3C3C" transform="matrix(1.00, 0.00, -0.00, -1.00, 382.6, 258.8)">l</text><text xml:space="preserve" font-family="Cervo-Medium,Cervo" font-size="40.0" fill="#3C3C3C" transform="matrix(1.00, 0.00, -0.00, -1.00, 394.6, 258.8)">a</text><text xml:space="preserve" font-family="Cervo-Medium,Cervo" font-size="40.0" fill="#3C3C3C" transform="matrix(1.00, 0.00, -0.00, -1.00, 412.2, 258.8)">d</text><text xml:space="preserve" font-family="Cervo-Medium,Cervo" font-size="40.0" fill="#3C3C3C" transform="matrix(1.00, 0.00, -0.00, -1.00, 430.6, 258.8)">o</text><text xml:space="preserve" font-family="Cervo-Medium,Cervo" font-size="40.0" fill="#3C3C3C" transform="matrix(1.00, 0.00, -0.00, -1.00, 448.2, 258.8)">r</text><text xml:space="preserve" font-family="Cervo-Medium,Cervo" font-size="40.0" fill="#3C3C3C" transform="matrix(1.00, 0.00, -0.00, -1.00, 461.2, 258.8)"> </text><text xml:space="preserve" font-family="Cervo-Medium,Cervo" font-size="40.0" fill="#3C3C3C" transform="matrix(1.00, 0.00, -0.00, -1.00, 471.6, 258.8)">D</text><text xml:space="preserve" font-family="Cervo-Medium,Cervo" font-size="40.0" fill="#3C3C3C" transform="matrix(1.00, 0.00, -0.00, -1.00, 489.6, 258.8)">r</text><text xml:space="preserve" font-family="Cervo-Medium,Cervo" font-size="40.0" fill="#3C3C3C" transform="matrix(1.00, 0.00, -0.00, -1.00, 502.7, 258.8)">u</text><text xml:space="preserve" font-family="Cervo-Medium,Cervo" font-size="40.0" fill="#3C3C3C" transform="matrix(1.00, 0.00, -0.00, -1.00, 521.2, 258.8)">p</text><text xml:space="preserve" font-family="Cervo-Medium,Cervo" font-size="40.0" fill="#3C3C3C" transform="matrix(1.00, 0.00, -0.00, -1.00, 539.6, 258.8)">a</text><text xml:space="preserve" font-family="Cervo-Medium,Cervo" font-size="40.0" fill="#3C3C3C" transform="matrix(1.00, 0.00, -0.00, -1.00, 557.2, 258.8)">l</text><text xml:space="preserve" font-family="Cervo-Medium,Cervo" font-size="40.0" fill="#3C3C3C" transform="matrix(1.00, 0.00, -0.00, -1.00, 569.2, 258.8)"> </text><text xml:space="preserve" font-family="Cervo-Medium,Cervo" font-size="40.0" fill="#3C3C3C" transform="matrix(1.00, 0.00, -0.00, -1.00, 579.6, 258.8)">e</text><text xml:space="preserve" font-family="Cervo-Medium,Cervo" font-size="40.0" fill="#3C3C3C" transform="matrix(1.00, 0.00, -0.00, -1.00, 597.2, 258.8)">n</text><text xml:space="preserve" font-family="Cervo-Medium,Cervo" font-size="40.0" fill="#3C3C3C" transform="matrix(1.00, 0.00, -0.00, -1.00, 615.7, 258.8)"> </text><text xml:space="preserve" font-family="Cervo-Medium,Cervo" font-size="40.0" fill="#3C3C3C" transform="matrix(1.00, 0.00, -0.00, -1.00, 626.1, 258.8)">C</text><text xml:space="preserve" font-family="Cervo-Medium,Cervo" font-size="40.0" fill="#3C3C3C" transform="matrix(1.00, 0.00, -0.00, -1.00, 644.3, 258.8)">a</text><text xml:space="preserve" font-family="Cervo-Medium,Cervo" font-size="40.0" fill="#3C3C3C" transform="matrix(1.00, 0.00, -0.00, -1.00, 662.0, 258.8)">m</text><text xml:space="preserve" font-family="Cervo-Medium,Cervo" font-size="40.0" fill="#3C3C3C" transform="matrix(1.00, 0.00, -0.00, -1.00, 688.8, 258.8)">b</text><text xml:space="preserve" font-family="Cervo-Medium,Cervo" font-size="40.0" fill="#3C3C3C" transform="matrix(1.00, 0.00, -0.00, -1.00, 707.2, 258.8)">r</text><text xml:space="preserve" font-family="Cervo-Medium,Cervo" font-size="40.0" fill="#3C3C3C" transform="matrix(1.00, 0.00, -0.00, -1.00, 720.2, 258.8)">i</text><text xml:space="preserve" font-family="Cervo-Medium,Cervo" font-size="40.0" fill="#3C3C3C" transform="matrix(1.00, 0.00, -0.00, -1.00, 730.6, 258.8)">c</text><text xml:space="preserve" font-family="Cervo-Medium,Cervo" font-size="40.0" fill="#3C3C3C" transform="matrix(1.00, 0.00, -0.00, -1.00, 748.1, 258.8)">o</text><text xml:space="preserve" font-family="Cervo-Medium,Cervo" font-size="40.0" fill="#3C3C3C" transform="matrix(1.00, 0.00, -0.00, -1.00, 765.7, 258.8)"> </text><text xml:space="preserve" font-family="Cervo-Medium,Cervo" font-size="40.0" fill="#3C3C3C" transform="matrix(1.00, 0.00, -0.00, -1.00, 161.4, 172.9)">M</text><text xml:space="preserve" font-family="Cervo-Medium,Cervo" font-size="40.0" fill="#3C3C3C" transform="matrix(1.00, 0.00, -0.00, -1.00, 183.9, 172.9)">á</text><text xml:space="preserve" font-family="Cervo-Medium,Cervo" font-size="40.0" fill="#3C3C3C" transform="matrix(1.00, 0.00, -0.00, -1.00, 201.5, 172.9)">s</text><text xml:space="preserve" font-family="Cervo-Medium,Cervo" font-size="40.0" fill="#3C3C3C" transform="matrix(1.00, 0.00, -0.00, -1.00, 217.2, 172.9)"> </text><text xml:space="preserve" font-family="Cervo-Medium,Cervo" font-size="40.0" fill="#3C3C3C" transform="matrix(1.00, 0.00, -0.00, -1.00, 227.6, 172.9)">d</text><text xml:space="preserve" font-family="Cervo-Medium,Cervo" font-size="40.0" fill="#3C3C3C" transform="matrix(1.00, 0.00, -0.00, -1.00, 245.9, 172.9)">e</text><text xml:space="preserve" font-family="Cervo-Medium,Cervo" font-size="40.0" fill="#3C3C3C" transform="matrix(1.00, 0.00, -0.00, -1.00, 263.5, 172.9)"> </text><text xml:space="preserve" font-family="Cervo-Medium,Cervo" font-size="40.0" fill="#3C3C3C" transform="matrix(1.00, 0.00, -0.00, -1.00, 273.9, 172.9)">5</text><text xml:space="preserve" font-family="Cervo-Medium,Cervo" font-size="40.0" fill="#3C3C3C" transform="matrix(1.00, 0.00, -0.00, -1.00, 292.3, 172.9)"> </text><text xml:space="preserve" font-family="Cervo-Medium,Cervo" font-size="40.0" fill="#3C3C3C" transform="matrix(1.00, 0.00, -0.00, -1.00, 302.7, 172.9)">a</text><text xml:space="preserve" font-family="Cervo-Medium,Cervo" font-size="40.0" fill="#3C3C3C" transform="matrix(1.00, 0.00, -0.00, -1.00, 320.4, 172.9)">ñ</text><text xml:space="preserve" font-family="Cervo-Medium,Cervo" font-size="40.0" fill="#3C3C3C" transform="matrix(1.00, 0.00, -0.00, -1.00, 338.9, 172.9)">o</text><text xml:space="preserve" font-family="Cervo-Medium,Cervo" font-size="40.0" fill="#3C3C3C" transform="matrix(1.00, 0.00, -0.00, -1.00, 356.5, 172.9)">s</text><text xml:space="preserve" font-family="Cervo-Medium,Cervo" font-size="40.0" fill="#3C3C3C" transform="matrix(1.00, 0.00, -0.00, -1.00, 372.2, 172.9)"> </text><text xml:space="preserve" font-family="Cervo-Medium,Cervo" font-size="40.0" fill="#3C3C3C" transform="matrix(1.00, 0.00, -0.00, -1.00, 382.6, 172.9)">d</text><text xml:space="preserve" font-family="Cervo-Medium,Cervo" font-size="40.0" fill="#3C3C3C" transform="matrix(1.00, 0.00, -0.00, -1.00, 400.9, 172.9)">e</text><text xml:space="preserve" font-family="Cervo-Medium,Cervo" font-size="40.0" fill="#3C3C3C" transform="matrix(1.00, 0.00, -0.00, -1.00, 418.5, 172.9)"> </text><text xml:space="preserve" font-family="Cervo-Medium,Cervo" font-size="40.0" fill="#3C3C3C" transform="matrix(1.00, 0.00, -0.00, -1.00, 428.9, 172.9)">e</text><text xml:space="preserve" font-family="Cervo-Medium,Cervo" font-size="40.0" fill="#3C3C3C" transform="matrix(1.00, 0.00, -0.00, -1.00, 446.5, 172.9)">x</text><text xml:space="preserve" font-family="Cervo-Medium,Cervo" font-size="40.0" fill="#3C3C3C" transform="matrix(1.00, 0.00, -0.00, -1.00, 462.6, 172.9)">p</text><text xml:space="preserve" font-family="Cervo-Medium,Cervo" font-size="40.0" fill="#3C3C3C" transform="matrix(1.00, 0.00, -0.00, -1.00, 480.9, 172.9)">e</text><text xml:space="preserve" font-family="Cervo-Medium,Cervo" font-size="40.0" fill="#3C3C3C" transform="matrix(1.00, 0.00, -0.00, -1.00, 498.5, 172.9)">r</text><text xml:space="preserve" font-family="Cervo-Medium,Cervo" font-size="40.0" fill="#3C3C3C" transform="matrix(1.00, 0.00, -0.00, -1.00, 511.6, 172.9)">i</text><text xml:space="preserve" font-family="Cervo-Medium,Cervo" font-size="40.0" fill="#3C3C3C" transform="matrix(1.00, 0.00, -0.00, -1.00, 522.0, 172.9)">e</text><text xml:space="preserve" font-family="Cervo-Medium,Cervo" font-size="40.0" fill="#3C3C3C" transform="matrix(1.00, 0.00, -0.00, -1.00, 539.6, 172.9)">n</text><text xml:space="preserve" font-family="Cervo-Medium,Cervo" font-size="40.0" fill="#3C3C3C" transform="matrix(1.00, 0.00, -0.00, -1.00, 558.1, 172.9)">c</text><text xml:space="preserve" font-family="Cervo-Medium,Cervo" font-size="40.0" fill="#3C3C3C" transform="matrix(1.00, 0.00, -0.00, -1.00, 575.5, 172.9)">i</text><text xml:space="preserve" font-family="Cervo-Medium,Cervo" font-size="40.0" fill="#3C3C3C" transform="matrix(1.00, 0.00, -0.00, -1.00, 585.9, 172.9)">a</text><text xml:space="preserve" font-family="Cervo-Medium,Cervo" font-size="40.0" fill="#3C3C3C" transform="matrix(1.00, 0.00, -0.00, -1.00, 603.6, 172.9)"> </text><text xml:space="preserve" font-family="Cervo-Medium,Cervo" font-size="40.0" fill="#3C3C3C" transform="matrix(1.00, 0.00, -0.00, -1.00, 614.0, 172.9)">c</text><text xml:space="preserve" font-family="Cervo-Medium,Cervo" font-size="40.0" fill="#3C3C3C" transform="matrix(1.00, 0.00, -0.00, -1.00, 631.5, 172.9)">o</text><text xml:space="preserve" font-family="Cervo-Medium,Cervo" font-size="40.0" fill="#3C3C3C" transform="matrix(1.00, 0.00, -0.00, -1.00, 649.1, 172.9)">n</text><text xml:space="preserve" font-family="Cervo-Medium,Cervo" font-size="40.0" fill="#3C3C3C" transform="matrix(1.00, 0.00, -0.00, -1.00, 667.6, 172.9)"> </text><text xml:space="preserve" font-family="Cervo-Medium,Cervo" font-size="40.0" fill="#3C3C3C" transform="matrix(1.00, 0.00, -0.00, -1.00, 678.0, 172.9)">E</text><text xml:space="preserve" font-family="Cervo-Medium,Cervo" font-size="40.0" fill="#3C3C3C" transform="matrix(1.00, 0.00, -0.00, -1.00, 694.0, 172.9)">-</text><text xml:space="preserve" font-family="Cervo-Medium,Cervo" font-size="40.0" fill="#3C3C3C" transform="matrix(1.00, 0.00, -0.00, -1.00, 707.8, 172.9)">C</text><text xml:space="preserve" font-family="Cervo-Medium,Cervo" font-size="40.0" fill="#3C3C3C" transform="matrix(1.00, 0.00, -0.00, -1.00, 726.0, 172.9)">o</text><text xml:space="preserve" font-family="Cervo-Medium,Cervo" font-size="40.0" fill="#3C3C3C" transform="matrix(1.00, 0.00, -0.00, -1.00, 743.6, 172.9)">m</text><text xml:space="preserve" font-family="Cervo-Medium,Cervo" font-size="40.0" fill="#3C3C3C" transform="matrix(1.00, 0.00, -0.00, -1.00, 770.5, 172.9)">m</text><text xml:space="preserve" font-family="Cervo-Medium,Cervo" font-size="40.0" fill="#3C3C3C" transform="matrix(1.00, 0.00, -0.00, -1.00, 797.3, 172.9)">e</text><text xml:space="preserve" font-family="Cervo-Medium,Cervo" font-size="40.0" fill="#3C3C3C" transform="matrix(1.00, 0.00, -0.00, -1.00, 814.9, 172.9)">r</text><text xml:space="preserve" font-family="Cervo-Medium,Cervo" font-size="40.0" fill="#3C3C3C" transform="matrix(1.00, 0.00, -0.00, -1.00, 827.6, 172.9)">c</text><text xml:space="preserve" font-family="Cervo-Medium,Cervo" font-size="40.0" fill="#3C3C3C" transform="matrix(1.00, 0.00, -0.00, -1.00, 845.0, 172.9)">e</text><text xml:space="preserve" font-family="Cervo-Medium,Cervo" font-size="40.0" fill="#3C3C3C" transform="matrix(1.00, 0.00, -0.00, -1.00, 862.6, 172.9)"> </text><text xml:space="preserve" font-family="Ubuntu,Ubuntu" font-size="24.0" fill="#3C3C3C" transform="matrix(1.00, 0.00, -0.00, -1.00, 262.6, 101.2)">f</text><text xml:space="preserve" font-family="Ubuntu,Ubuntu" font-size="24.0" fill="#3C3C3C" transform="matrix(1.00, 0.00, -0.00, -1.00, 273.3, 101.2)">a</text><text xml:space="preserve" font-family="Ubuntu,Ubuntu" font-size="24.0" fill="#3C3C3C" transform="matrix(1.00, 0.00, -0.00, -1.00, 287.3, 101.2)">c</text><text xml:space="preserve" font-family="Ubuntu,Ubuntu" font-size="24.0" fill="#3C3C3C" transform="matrix(1.00, 0.00, -0.00, -1.00, 299.9, 101.2)">i</text><text xml:space="preserve" font-family="Ubuntu,Ubuntu" font-size="24.0" fill="#3C3C3C" transform="matrix(1.00, 0.00, -0.00, -1.00, 307.4, 101.2)">n</text><text xml:space="preserve" font-family="Ubuntu,Ubuntu" font-size="24.0" fill="#3C3C3C" transform="matrix(1.00, 0.00, -0.00, -1.00, 322.6, 101.2)">e</text><text xml:space="preserve" font-family="Ubuntu,Ubuntu" font-size="24.0" fill="#3C3C3C" transform="matrix(1.00, 0.00, -0.00, -1.00, 337.5, 101.2)"> </text><text xml:space="preserve" font-family="Ubuntu,Ubuntu" font-size="24.0" fill="#3C3C3C" transform="matrix(1.00, 0.00, -0.00, -1.00, 344.4, 101.2)">e</text><text xml:space="preserve" font-family="Ubuntu,Ubuntu" font-size="24.0" fill="#3C3C3C" transform="matrix(1.00, 0.00, -0.00, -1.00, 359.3, 101.2)">n</text><text xml:space="preserve" font-family="Ubuntu,Ubuntu" font-size="24.0" fill="#3C3C3C" transform="matrix(1.00, 0.00, -0.00, -1.00, 374.5, 101.2)"> </text><text xml:space="preserve" font-family="Ubuntu,Ubuntu" font-size="24.0" fill="#3C3C3C" transform="matrix(1.00, 0.00, -0.00, -1.00, 381.5, 101.2)">d</text><text xml:space="preserve" font-family="Ubuntu,Ubuntu" font-size="24.0" fill="#3C3C3C" transform="matrix(1.00, 0.00, -0.00, -1.00, 397.1, 101.2)">r</text><text xml:space="preserve" font-family="Ubuntu,Ubuntu" font-size="24.0" fill="#3C3C3C" transform="matrix(1.00, 0.00, -0.00, -1.00, 407.8, 101.2)">u</text><text xml:space="preserve" font-family="Ubuntu,Ubuntu" font-size="24.0" fill="#3C3C3C" transform="matrix(1.00, 0.00, -0.00, -1.00, 423.0, 101.2)">p</text><text xml:space="preserve" font-family="Ubuntu,Ubuntu" font-size="24.0" fill="#3C3C3C" transform="matrix(1.00, 0.00, -0.00, -1.00, 438.6, 101.2)">a</text><text xml:space="preserve" font-family="Ubuntu,Ubuntu" font-size="24.0" fill="#3C3C3C" transform="matrix(1.00, 0.00, -0.00, -1.00, 452.5, 101.2)">l</text><text xml:space="preserve" font-family="Ubuntu,Ubuntu" font-size="24.0" fill="#3C3C3C" transform="matrix(1.00, 0.00, -0.00, -1.00, 460.5, 101.2)">.</text><text xml:space="preserve" font-family="Ubuntu,Ubuntu" font-size="24.0" fill="#3C3C3C" transform="matrix(1.00, 0.00, -0.00, -1.00, 467.9, 101.2)">o</text><text xml:space="preserve" font-family="Ubuntu,Ubuntu" font-size="24.0" fill="#3C3C3C" transform="matrix(1.00, 0.00, -0.00, -1.00, 483.5, 101.2)">r</text><text xml:space="preserve" font-family="Ubuntu,Ubuntu" font-size="24.0" fill="#3C3C3C" transform="matrix(1.00, 0.00, -0.00, -1.00, 494.2, 101.2)">g</text><text xml:space="preserve" font-family="Ubuntu,Ubuntu" font-size="24.0" fill="#3C3C3C" transform="matrix(1.00, 0.00, -0.00, -1.00, 509.5, 101.2)"> </text><text xml:space="preserve" font-family="Ubuntu,Ubuntu" font-size="24.0" fill="#3C3C3C" transform="matrix(1.00, 0.00, -0.00, -1.00, 516.5, 101.2)">-</text><text xml:space="preserve" font-family="Ubuntu,Ubuntu" font-size="24.0" fill="#3C3C3C" transform="matrix(1.00, 0.00, -0.00, -1.00, 525.1, 101.2)"> </text><text xml:space="preserve" font-family="Ubuntu,Ubuntu" font-size="24.0" fill="#3C3C3C" transform="matrix(1.00, 0.00, -0.00, -1.00, 532.1, 101.2)">@</text><text xml:space="preserve" font-family="Ubuntu,Ubuntu" font-size="24.0" fill="#3C3C3C" transform="matrix(1.00, 0.00, -0.00, -1.00, 556.3, 101.2)">f</text><text xml:space="preserve" font-family="Ubuntu,Ubuntu" font-size="24.0" fill="#3C3C3C" transform="matrix(1.00, 0.00, -0.00, -1.00, 567.0, 101.2)">a</text><text xml:space="preserve" font-family="Ubuntu,Ubuntu" font-size="24.0" fill="#3C3C3C" transform="matrix(1.00, 0.00, -0.00, -1.00, 581.0, 101.2)">c</text><text xml:space="preserve" font-family="Ubuntu,Ubuntu" font-size="24.0" fill="#3C3C3C" transform="matrix(1.00, 0.00, -0.00, -1.00, 593.6, 101.2)">i</text><text xml:space="preserve" font-family="Ubuntu,Ubuntu" font-size="24.0" fill="#3C3C3C" transform="matrix(1.00, 0.00, -0.00, -1.00, 601.1, 101.2)">n</text><text xml:space="preserve" font-family="Ubuntu,Ubuntu" font-size="24.0" fill="#3C3C3C" transform="matrix(1.00, 0.00, -0.00, -1.00, 616.3, 101.2)">e</text><text xml:space="preserve" font-family="Ubuntu,Ubuntu" font-size="24.0" fill="#3C3C3C" transform="matrix(1.00, 0.00, -0.00, -1.00, 631.2, 101.2)"> </text><text xml:space="preserve" font-family="Ubuntu,Ubuntu" font-size="24.0" fill="#3C3C3C" transform="matrix(1.00, 0.00, -0.00, -1.00, 638.2, 101.2)">e</text><text xml:space="preserve" font-family="Ubuntu,Ubuntu" font-size="24.0" fill="#3C3C3C" transform="matrix(1.00, 0.00, -0.00, -1.00, 653.0, 101.2)">n</text><text xml:space="preserve" font-family="Ubuntu,Ubuntu" font-size="24.0" fill="#3C3C3C" transform="matrix(1.00, 0.00, -0.00, -1.00, 668.2, 101.2)"> </text><text xml:space="preserve" font-family="Ubuntu,Ubuntu" font-size="24.0" fill="#3C3C3C" transform="matrix(1.00, 0.00, -0.00, -1.00, 675.2, 101.2)">t</text><text xml:space="preserve" font-family="Ubuntu,Ubuntu" font-size="24.0" fill="#3C3C3C" transform="matrix(1.00, 0.00, -0.00, -1.00, 686.3, 101.2)">w</text><text xml:space="preserve" font-family="Ubuntu,Ubuntu" font-size="24.0" fill="#3C3C3C" transform="matrix(1.00, 0.00, -0.00, -1.00, 706.4, 101.2)">i</text><text xml:space="preserve" font-family="Ubuntu,Ubuntu" font-size="24.0" fill="#3C3C3C" transform="matrix(1.00, 0.00, -0.00, -1.00, 713.9, 101.2)">t</text><text xml:space="preserve" font-family="Ubuntu,Ubuntu" font-size="24.0" fill="#3C3C3C" transform="matrix(1.00, 0.00, -0.00, -1.00, 725.0, 101.2)">t</text><text xml:space="preserve" font-family="Ubuntu,Ubuntu" font-size="24.0" fill="#3C3C3C" transform="matrix(1.00, 0.00, -0.00, -1.00, 735.8, 101.2)">e</text><text xml:space="preserve" font-family="Ubuntu,Ubuntu" font-size="24.0" fill="#3C3C3C" transform="matrix(1.00, 0.00, -0.00, -1.00, 750.7, 101.2)">r</text><g><clipPath id="clip0x7fb4f66a6290"><path d="M 261.6 96.3 L 337.5 96.3 L 337.5 100.2 L 261.6 100.2 Z M 261.6 96.3 "></path></clipPath><g clip-path="url(#clip0x7fb4f66a6290)"><path d="M 160.5 221.5 L 235.4 221.5 " fill="none" stroke="#3C3C3C" stroke-width="1.90" transform="matrix(1.00, 0.00, 0.00, -1.00, 102.1, 319.8)"></path></g></g><g><clipPath id="clip0x7fb4f66a7340"><path d="M 531.1 96.3 L 631.2 96.3 L 631.2 100.2 L 531.1 100.2 Z M 531.1 96.3 "></path></clipPath><g clip-path="url(#clip0x7fb4f66a7340)"><path d="M 430.0 221.5 L 529.1 221.5 " fill="none" stroke="#3C3C3C" stroke-width="1.90" transform="matrix(1.00, 0.00, 0.00, -1.00, 102.1, 319.8)"></path></g></g><image xlink:href="../../0099E750-43F4-4A1E-80C1-2076B752852F/assets/11215909CAB1E0E01069DF3CD5B505D4.png" width="496.00" height="388.00" transform="matrix(1.00, 0.00, -0.00, -1.00, 263.8, 670.5)"></image><image xlink:href="../../0099E750-43F4-4A1E-80C1-2076B752852F/assets/CE6B8E60410EB69BD9C3CE566504E674.png" width="490.00" height="362.00" transform="matrix(0.85, 0.00, -0.00, -0.85, 303.8, 635.9)"></image><path d="M 0.1 -0.5 L 1040.1 -0.5 " fill="none" stroke="#F38F18" stroke-width="1.00" transform="matrix(1.00, 0.00, 0.00, -1.00, -8.1, 59.0)"></path><text xml:space="preserve" font-family="Consolas-Bold,Consolas" font-weight="bold" font-size="20.0" fill="#0264C0" transform="matrix(1.00, 0.00, -0.00, -1.00, 800.5, 24.7)">h</text><text xml:space="preserve" font-family="Consolas-Bold,Consolas" font-weight="bold" font-size="20.0" fill="#0264C0" transform="matrix(1.00, 0.00, -0.00, -1.00, 811.5, 24.7)">t</text><text xml:space="preserve" font-family="Consolas-Bold,Consolas" font-weight="bold" font-size="20.0" fill="#0264C0" transform="matrix(1.00, 0.00, -0.00, -1.00, 822.5, 24.7)">t</text><text xml:space="preserve" font-family="Consolas-Bold,Consolas" font-weight="bold" font-size="20.0" fill="#0264C0" transform="matrix(1.00, 0.00, -0.00, -1.00, 833.5, 24.7)">p</text><text xml:space="preserve" font-family="Consolas-Bold,Consolas" font-weight="bold" font-size="20.0" fill="#0264C0" transform="matrix(1.00, 0.00, -0.00, -1.00, 844.5, 24.7)">:</text><text xml:space="preserve" font-family="Consolas-Bold,Consolas" font-weight="bold" font-size="20.0" fill="#0264C0" transform="matrix(1.00, 0.00, -0.00, -1.00, 855.5, 24.7)">/</text><text xml:space="preserve" font-family="Consolas-Bold,Consolas" font-weight="bold" font-size="20.0" fill="#0264C0" transform="matrix(1.00, 0.00, -0.00, -1.00, 866.5, 24.7)">/</text><text xml:space="preserve" font-family="Consolas-Bold,Consolas" font-weight="bold" font-size="20.0" fill="#0264C0" transform="matrix(1.00, 0.00, -0.00, -1.00, 877.5, 24.7)">c</text><text xml:space="preserve" font-family="Consolas-Bold,Consolas" font-weight="bold" font-size="20.0" fill="#0264C0" transform="matrix(1.00, 0.00, -0.00, -1.00, 888.5, 24.7)">a</text><text xml:space="preserve" font-family="Consolas-Bold,Consolas" font-weight="bold" font-size="20.0" fill="#0264C0" transform="matrix(1.00, 0.00, -0.00, -1.00, 899.5, 24.7)">m</text><text xml:space="preserve" font-family="Consolas-Bold,Consolas" font-weight="bold" font-size="20.0" fill="#0264C0" transform="matrix(1.00, 0.00, -0.00, -1.00, 910.5, 24.7)">b</text><text xml:space="preserve" font-family="Consolas-Bold,Consolas" font-weight="bold" font-size="20.0" fill="#0264C0" transform="matrix(1.00, 0.00, -0.00, -1.00, 921.5, 24.7)">r</text><text xml:space="preserve" font-family="Consolas-Bold,Consolas" font-weight="bold" font-size="20.0" fill="#0264C0" transform="matrix(1.00, 0.00, -0.00, -1.00, 932.4, 24.7)">i</text><text xml:space="preserve" font-family="Consolas-Bold,Consolas" font-weight="bold" font-size="20.0" fill="#0264C0" transform="matrix(1.00, 0.00, -0.00, -1.00, 943.4, 24.7)">c</text><text xml:space="preserve" font-family="Consolas-Bold,Consolas" font-weight="bold" font-size="20.0" fill="#0264C0" transform="matrix(1.00, 0.00, -0.00, -1.00, 954.4, 24.7)">o</text><text xml:space="preserve" font-family="Consolas-Bold,Consolas" font-weight="bold" font-size="20.0" fill="#0264C0" transform="matrix(1.00, 0.00, -0.00, -1.00, 965.4, 24.7)">.</text><text xml:space="preserve" font-family="Consolas-Bold,Consolas" font-weight="bold" font-size="20.0" fill="#0264C0" transform="matrix(1.00, 0.00, -0.00, -1.00, 976.4, 24.7)">n</text><text xml:space="preserve" font-family="Consolas-Bold,Consolas" font-weight="bold" font-size="20.0" fill="#0264C0" transform="matrix(1.00, 0.00, -0.00, -1.00, 987.4, 24.7)">e</text><text xml:space="preserve" font-family="Consolas-Bold,Consolas" font-weight="bold" font-size="20.0" fill="#0264C0" transform="matrix(1.00, 0.00, -0.00, -1.00, 998.4, 24.7)">t</text></g></svg>