<?xml version="1.0" encoding="UTF-8" standalone="no"?><svg xmlns="http://www.w3.org/2000/svg" xmlns:xlink="http://www.w3.org/1999/xlink" clip-rule="evenodd" stroke-miterlimit="10" viewBox="0 0 1024 768"><desc>SVG generated by Keynote</desc><defs></defs><g transform="matrix(1.00, 0.00, -0.00, -1.00, 0.0, 768.0)"><path d="M 0.0 768.0 L 1024.0 768.0 L 1024.0 0.0 L 0.0 0.0 Z M 0.0 768.0 " fill="#FEFFFF"></path><image xlink:href="../../C7BBE13A-6904-4C3D-8E46-062582B6D0F2/assets/F593B3E0630FFDED0786D2F89647BD55.jpeg" width="1400.00" height="788.00" transform="matrix(0.99, 0.00, -0.00, -0.99, -214.2, 775.9)"></image><image xlink:href="../../C7BBE13A-6904-4C3D-8E46-062582B6D0F2/assets/723E03ACED9FED60C18ED7DD0769D8C3.png" width="526.00" height="198.00" transform="matrix(1.00, 0.00, -0.00, -1.00, 248.9, 396.0)"></image><path d="M 260.0 385.0 L 764.0 385.0 L 764.0 209.0 L 260.0 209.0 Z M 259.9 385.0 " fill="#DCDDE0"></path><text xml:space="preserve" font-family="Cervo-Regular,Cervo" font-size="66.0" fill="#3C3C3C" transform="matrix(1.00, 0.00, -0.00, -1.00, 304.0, 308.7)">¿</text><text xml:space="preserve" font-family="Cervo-Regular,Cervo" font-size="66.0" fill="#3C3C3C" transform="matrix(1.00, 0.00, -0.00, -1.00, 332.8, 308.7)">Q</text><text xml:space="preserve" font-family="Cervo-Regular,Cervo" font-size="66.0" fill="#3C3C3C" transform="matrix(1.00, 0.00, -0.00, -1.00, 363.9, 308.7)">u</text><text xml:space="preserve" font-family="Cervo-Regular,Cervo" font-size="66.0" fill="#3C3C3C" transform="matrix(1.00, 0.00, -0.00, -1.00, 394.0, 308.7)">é</text><text xml:space="preserve" font-family="Cervo-Regular,Cervo" font-size="66.0" fill="#3C3C3C" transform="matrix(1.00, 0.00, -0.00, -1.00, 423.7, 308.7)"> </text><text xml:space="preserve" font-family="Cervo-Regular,Cervo" font-size="66.0" fill="#3C3C3C" transform="matrix(1.00, 0.00, -0.00, -1.00, 441.5, 308.7)">d</text><text xml:space="preserve" font-family="Cervo-Regular,Cervo" font-size="66.0" fill="#3C3C3C" transform="matrix(1.00, 0.00, -0.00, -1.00, 471.4, 308.7)">i</text><text xml:space="preserve" font-family="Cervo-Regular,Cervo" font-size="66.0" fill="#3C3C3C" transform="matrix(1.00, 0.00, -0.00, -1.00, 488.1, 308.7)">f</text><text xml:space="preserve" font-family="Cervo-Regular,Cervo" font-size="66.0" fill="#3C3C3C" transform="matrix(1.00, 0.00, -0.00, -1.00, 507.3, 308.7)">e</text><text xml:space="preserve" font-family="Cervo-Regular,Cervo" font-size="66.0" fill="#3C3C3C" transform="matrix(1.00, 0.00, -0.00, -1.00, 537.0, 308.7)">r</text><text xml:space="preserve" font-family="Cervo-Regular,Cervo" font-size="66.0" fill="#3C3C3C" transform="matrix(1.00, 0.00, -0.00, -1.00, 557.6, 308.7)">e</text><text xml:space="preserve" font-family="Cervo-Regular,Cervo" font-size="66.0" fill="#3C3C3C" transform="matrix(1.00, 0.00, -0.00, -1.00, 587.3, 308.7)">n</text><text xml:space="preserve" font-family="Cervo-Regular,Cervo" font-size="66.0" fill="#3C3C3C" transform="matrix(1.00, 0.00, -0.00, -1.00, 617.4, 308.7)">c</text><text xml:space="preserve" font-family="Cervo-Regular,Cervo" font-size="66.0" fill="#3C3C3C" transform="matrix(1.00, 0.00, -0.00, -1.00, 646.9, 308.7)">i</text><text xml:space="preserve" font-family="Cervo-Regular,Cervo" font-size="66.0" fill="#3C3C3C" transform="matrix(1.00, 0.00, -0.00, -1.00, 663.6, 308.7)">a</text><text xml:space="preserve" font-family="Cervo-Regular,Cervo" font-size="66.0" fill="#3C3C3C" transform="matrix(1.00, 0.00, -0.00, -1.00, 693.5, 308.7)">s</text><text xml:space="preserve" font-family="Cervo-Regular,Cervo" font-size="66.0" fill="#3C3C3C" transform="matrix(1.00, 0.00, -0.00, -1.00, 720.0, 308.7)"> </text><text xml:space="preserve" font-family="Cervo-Regular,Cervo" font-size="66.0" fill="#3C3C3C" transform="matrix(1.00, 0.00, -0.00, -1.00, 285.8, 243.9)">n</text><text xml:space="preserve" font-family="Cervo-Regular,Cervo" font-size="66.0" fill="#3C3C3C" transform="matrix(1.00, 0.00, -0.00, -1.00, 315.9, 243.9)">o</text><text xml:space="preserve" font-family="Cervo-Regular,Cervo" font-size="66.0" fill="#3C3C3C" transform="matrix(1.00, 0.00, -0.00, -1.00, 345.6, 243.9)">s</text><text xml:space="preserve" font-family="Cervo-Regular,Cervo" font-size="66.0" fill="#3C3C3C" transform="matrix(1.00, 0.00, -0.00, -1.00, 372.1, 243.9)"> </text><text xml:space="preserve" font-family="Cervo-Regular,Cervo" font-size="66.0" fill="#3C3C3C" transform="matrix(1.00, 0.00, -0.00, -1.00, 390.0, 243.9)">e</text><text xml:space="preserve" font-family="Cervo-Regular,Cervo" font-size="66.0" fill="#3C3C3C" transform="matrix(1.00, 0.00, -0.00, -1.00, 419.7, 243.9)">n</text><text xml:space="preserve" font-family="Cervo-Regular,Cervo" font-size="66.0" fill="#3C3C3C" transform="matrix(1.00, 0.00, -0.00, -1.00, 449.8, 243.9)">c</text><text xml:space="preserve" font-family="Cervo-Regular,Cervo" font-size="66.0" fill="#3C3C3C" transform="matrix(1.00, 0.00, -0.00, -1.00, 479.3, 243.9)">o</text><text xml:space="preserve" font-family="Cervo-Regular,Cervo" font-size="66.0" fill="#3C3C3C" transform="matrix(1.00, 0.00, -0.00, -1.00, 509.0, 243.9)">n</text><text xml:space="preserve" font-family="Cervo-Regular,Cervo" font-size="66.0" fill="#3C3C3C" transform="matrix(1.00, 0.00, -0.00, -1.00, 539.1, 243.9)">t</text><text xml:space="preserve" font-family="Cervo-Regular,Cervo" font-size="66.0" fill="#3C3C3C" transform="matrix(1.00, 0.00, -0.00, -1.00, 558.9, 243.9)">r</text><text xml:space="preserve" font-family="Cervo-Regular,Cervo" font-size="66.0" fill="#3C3C3C" transform="matrix(1.00, 0.00, -0.00, -1.00, 579.5, 243.9)">a</text><text xml:space="preserve" font-family="Cervo-Regular,Cervo" font-size="66.0" fill="#3C3C3C" transform="matrix(1.00, 0.00, -0.00, -1.00, 609.3, 243.9)">m</text><text xml:space="preserve" font-family="Cervo-Regular,Cervo" font-size="66.0" fill="#3C3C3C" transform="matrix(1.00, 0.00, -0.00, -1.00, 653.2, 243.9)">o</text><text xml:space="preserve" font-family="Cervo-Regular,Cervo" font-size="66.0" fill="#3C3C3C" transform="matrix(1.00, 0.00, -0.00, -1.00, 682.9, 243.9)">s</text><text xml:space="preserve" font-family="Cervo-Regular,Cervo" font-size="66.0" fill="#3C3C3C" transform="matrix(1.00, 0.00, -0.00, -1.00, 709.4, 243.9)">?</text></g></svg>