<?xml version="1.0" encoding="UTF-8" standalone="no"?><svg xmlns="http://www.w3.org/2000/svg" xmlns:xlink="http://www.w3.org/1999/xlink" clip-rule="evenodd" stroke-miterlimit="10" viewBox="0 0 1024 768"><desc>SVG generated by Keynote</desc><defs></defs><g transform="matrix(1.00, 0.00, -0.00, -1.00, 0.0, 768.0)"><path d="M 0.0 768.0 L 1024.0 768.0 L 1024.0 0.0 L 0.0 0.0 Z M 0.0 768.0 " fill="#FEFFFF"></path><path d="M 0.0 677.0 L 1024.0 677.0 L 1024.0 59.0 L 0.0 59.0 Z M 0.2 677.3 " fill="#F2F2F2"></path><path d="M 0.1 0.1 L 1040.1 0.1 " fill="none" stroke="#F38F18" stroke-width="1.00" transform="matrix(1.00, 0.00, 0.00, -1.00, -8.1, 676.6)"></path><path d="M 0.1 0.1 L 1040.1 0.1 " fill="none" stroke="#F38F18" stroke-width="1.00" transform="matrix(1.00, 0.00, 0.00, -1.00, -8.1, 59.6)"></path><image xlink:href="../../0099E750-43F4-4A1E-80C1-2076B752852F/assets/55340D757A15DCE0FDDCCB8968979DD4.png" width="426.00" height="426.00" transform="matrix(0.16, 0.00, -0.00, -0.16, 13.0, 757.7)"></image><text xml:space="preserve" font-family="Cervo-Medium,Cervo" font-size="40.0" fill="#0264C0" transform="matrix(1.00, 0.00, -0.00, -1.00, 702.5, 720.6)">O</text><text xml:space="preserve" font-family="Cervo-Medium,Cervo" font-size="40.0" fill="#0264C0" transform="matrix(1.00, 0.00, -0.00, -1.00, 724.5, 720.6)">r</text><text xml:space="preserve" font-family="Cervo-Medium,Cervo" font-size="40.0" fill="#0264C0" transform="matrix(1.00, 0.00, -0.00, -1.00, 740.8, 720.6)">d</text><text xml:space="preserve" font-family="Cervo-Medium,Cervo" font-size="40.0" fill="#0264C0" transform="matrix(1.00, 0.00, -0.00, -1.00, 762.7, 720.6)">e</text><text xml:space="preserve" font-family="Cervo-Medium,Cervo" font-size="40.0" fill="#0264C0" transform="matrix(1.00, 0.00, -0.00, -1.00, 783.9, 720.6)">r</text><text xml:space="preserve" font-family="Cervo-Medium,Cervo" font-size="40.0" fill="#0264C0" transform="matrix(1.00, 0.00, -0.00, -1.00, 800.6, 720.6)"> </text><text xml:space="preserve" font-family="Cervo-Medium,Cervo" font-size="40.0" fill="#0264C0" transform="matrix(1.00, 0.00, -0.00, -1.00, 814.6, 720.6)">I</text><text xml:space="preserve" font-family="Cervo-Medium,Cervo" font-size="40.0" fill="#0264C0" transform="matrix(1.00, 0.00, -0.00, -1.00, 828.6, 720.6)">t</text><text xml:space="preserve" font-family="Cervo-Medium,Cervo" font-size="40.0" fill="#0264C0" transform="matrix(1.00, 0.00, -0.00, -1.00, 844.3, 720.6)">e</text><text xml:space="preserve" font-family="Cervo-Medium,Cervo" font-size="40.0" fill="#0264C0" transform="matrix(1.00, 0.00, -0.00, -1.00, 865.5, 720.6)">m</text><text xml:space="preserve" font-family="Cervo-Medium,Cervo" font-size="40.0" fill="#0264C0" transform="matrix(1.00, 0.00, -0.00, -1.00, 896.0, 720.6)"> </text><text xml:space="preserve" font-family="Cervo-Medium,Cervo" font-size="40.0" fill="#0264C0" transform="matrix(1.00, 0.00, -0.00, -1.00, 910.0, 720.6)">T</text><text xml:space="preserve" font-family="Cervo-Medium,Cervo" font-size="40.0" fill="#0264C0" transform="matrix(1.00, 0.00, -0.00, -1.00, 929.2, 720.6)">y</text><text xml:space="preserve" font-family="Cervo-Medium,Cervo" font-size="40.0" fill="#0264C0" transform="matrix(1.00, 0.00, -0.00, -1.00, 949.3, 720.6)">p</text><text xml:space="preserve" font-family="Cervo-Medium,Cervo" font-size="40.0" fill="#0264C0" transform="matrix(1.00, 0.00, -0.00, -1.00, 971.2, 720.6)">e</text><text xml:space="preserve" font-family="Cervo-Medium,Cervo" font-size="40.0" fill="#0264C0" transform="matrix(1.00, 0.00, -0.00, -1.00, 992.4, 720.6)">s</text><text xml:space="preserve" font-family="Cervo-Medium,Cervo" font-size="40.0" fill="#0264C0" transform="matrix(1.00, 0.00, -0.00, -1.00, 1011.7, 720.6)"> </text><text xml:space="preserve" font-family="Cervo-Medium,Cervo" font-size="20.0" fill="#BD5A0C" transform="matrix(1.00, 0.00, -0.00, -1.00, 335.1, 694.5)">H</text><text xml:space="preserve" font-family="Cervo-Medium,Cervo" font-size="20.0" fill="#BD5A0C" transform="matrix(1.00, 0.00, -0.00, -1.00, 346.1, 694.5)">o</text><text xml:space="preserve" font-family="Cervo-Medium,Cervo" font-size="20.0" fill="#BD5A0C" transform="matrix(1.00, 0.00, -0.00, -1.00, 356.7, 694.5)">m</text><text xml:space="preserve" font-family="Cervo-Medium,Cervo" font-size="20.0" fill="#BD5A0C" transform="matrix(1.00, 0.00, -0.00, -1.00, 371.9, 694.5)">e</text><text xml:space="preserve" font-family="Cervo-Medium,Cervo" font-size="20.0" fill="#BD5A0C" transform="matrix(1.00, 0.00, -0.00, -1.00, 382.5, 694.5)"> </text><text xml:space="preserve" font-family="Cervo-Medium,Cervo" font-size="20.0" fill="#BD5A0C" transform="matrix(1.00, 0.00, -0.00, -1.00, 389.5, 694.5)">&gt;</text><text xml:space="preserve" font-family="Cervo-Medium,Cervo" font-size="20.0" fill="#BD5A0C" transform="matrix(1.00, 0.00, -0.00, -1.00, 397.9, 694.5)">&gt;</text><text xml:space="preserve" font-family="Cervo-Medium,Cervo" font-size="20.0" fill="#BD5A0C" transform="matrix(1.00, 0.00, -0.00, -1.00, 406.2, 694.5)"> </text><text xml:space="preserve" font-family="Cervo-Medium,Cervo" font-size="20.0" fill="#BD5A0C" transform="matrix(1.00, 0.00, -0.00, -1.00, 413.2, 694.5)">A</text><text xml:space="preserve" font-family="Cervo-Medium,Cervo" font-size="20.0" fill="#BD5A0C" transform="matrix(1.00, 0.00, -0.00, -1.00, 424.5, 694.5)">d</text><text xml:space="preserve" font-family="Cervo-Medium,Cervo" font-size="20.0" fill="#BD5A0C" transform="matrix(1.00, 0.00, -0.00, -1.00, 435.4, 694.5)">m</text><text xml:space="preserve" font-family="Cervo-Medium,Cervo" font-size="20.0" fill="#BD5A0C" transform="matrix(1.00, 0.00, -0.00, -1.00, 450.6, 694.5)">i</text><text xml:space="preserve" font-family="Cervo-Medium,Cervo" font-size="20.0" fill="#BD5A0C" transform="matrix(1.00, 0.00, -0.00, -1.00, 457.6, 694.5)">n</text><text xml:space="preserve" font-family="Cervo-Medium,Cervo" font-size="20.0" fill="#BD5A0C" transform="matrix(1.00, 0.00, -0.00, -1.00, 468.7, 694.5)">i</text><text xml:space="preserve" font-family="Cervo-Medium,Cervo" font-size="20.0" fill="#BD5A0C" transform="matrix(1.00, 0.00, -0.00, -1.00, 475.7, 694.5)">s</text><text xml:space="preserve" font-family="Cervo-Medium,Cervo" font-size="20.0" fill="#BD5A0C" transform="matrix(1.00, 0.00, -0.00, -1.00, 485.3, 694.5)">t</text><text xml:space="preserve" font-family="Cervo-Medium,Cervo" font-size="20.0" fill="#BD5A0C" transform="matrix(1.00, 0.00, -0.00, -1.00, 493.2, 694.5)">r</text><text xml:space="preserve" font-family="Cervo-Medium,Cervo" font-size="20.0" fill="#BD5A0C" transform="matrix(1.00, 0.00, -0.00, -1.00, 501.4, 694.5)">a</text><text xml:space="preserve" font-family="Cervo-Medium,Cervo" font-size="20.0" fill="#BD5A0C" transform="matrix(1.00, 0.00, -0.00, -1.00, 512.0, 694.5)">t</text><text xml:space="preserve" font-family="Cervo-Medium,Cervo" font-size="20.0" fill="#BD5A0C" transform="matrix(1.00, 0.00, -0.00, -1.00, 519.9, 694.5)">i</text><text xml:space="preserve" font-family="Cervo-Medium,Cervo" font-size="20.0" fill="#BD5A0C" transform="matrix(1.00, 0.00, -0.00, -1.00, 526.9, 694.5)">o</text><text xml:space="preserve" font-family="Cervo-Medium,Cervo" font-size="20.0" fill="#BD5A0C" transform="matrix(1.00, 0.00, -0.00, -1.00, 537.5, 694.5)">n</text><text xml:space="preserve" font-family="Cervo-Medium,Cervo" font-size="20.0" fill="#BD5A0C" transform="matrix(1.00, 0.00, -0.00, -1.00, 548.5, 694.5)"> </text><text xml:space="preserve" font-family="Cervo-Medium,Cervo" font-size="20.0" fill="#BD5A0C" transform="matrix(1.00, 0.00, -0.00, -1.00, 555.5, 694.5)">&gt;</text><text xml:space="preserve" font-family="Cervo-Medium,Cervo" font-size="20.0" fill="#BD5A0C" transform="matrix(1.00, 0.00, -0.00, -1.00, 563.9, 694.5)">&gt;</text><text xml:space="preserve" font-family="Cervo-Medium,Cervo" font-size="20.0" fill="#BD5A0C" transform="matrix(1.00, 0.00, -0.00, -1.00, 572.3, 694.5)"> </text><text xml:space="preserve" font-family="Cervo-Medium,Cervo" font-size="20.0" fill="#BD5A0C" transform="matrix(1.00, 0.00, -0.00, -1.00, 579.3, 694.5)">C</text><text xml:space="preserve" font-family="Cervo-Medium,Cervo" font-size="20.0" fill="#BD5A0C" transform="matrix(1.00, 0.00, -0.00, -1.00, 590.2, 694.5)">o</text><text xml:space="preserve" font-family="Cervo-Medium,Cervo" font-size="20.0" fill="#BD5A0C" transform="matrix(1.00, 0.00, -0.00, -1.00, 600.8, 694.5)">m</text><text xml:space="preserve" font-family="Cervo-Medium,Cervo" font-size="20.0" fill="#BD5A0C" transform="matrix(1.00, 0.00, -0.00, -1.00, 616.0, 694.5)">m</text><text xml:space="preserve" font-family="Cervo-Medium,Cervo" font-size="20.0" fill="#BD5A0C" transform="matrix(1.00, 0.00, -0.00, -1.00, 631.2, 694.5)">e</text><text xml:space="preserve" font-family="Cervo-Medium,Cervo" font-size="20.0" fill="#BD5A0C" transform="matrix(1.00, 0.00, -0.00, -1.00, 641.8, 694.5)">r</text><text xml:space="preserve" font-family="Cervo-Medium,Cervo" font-size="20.0" fill="#BD5A0C" transform="matrix(1.00, 0.00, -0.00, -1.00, 649.9, 694.5)">c</text><text xml:space="preserve" font-family="Cervo-Medium,Cervo" font-size="20.0" fill="#BD5A0C" transform="matrix(1.00, 0.00, -0.00, -1.00, 660.5, 694.5)">e</text><text xml:space="preserve" font-family="Cervo-Medium,Cervo" font-size="20.0" fill="#BD5A0C" transform="matrix(1.00, 0.00, -0.00, -1.00, 671.1, 694.5)"> </text><text xml:space="preserve" font-family="Cervo-Medium,Cervo" font-size="20.0" fill="#BD5A0C" transform="matrix(1.00, 0.00, -0.00, -1.00, 678.1, 694.5)">&gt;</text><text xml:space="preserve" font-family="Cervo-Medium,Cervo" font-size="20.0" fill="#BD5A0C" transform="matrix(1.00, 0.00, -0.00, -1.00, 686.4, 694.5)">&gt;</text><text xml:space="preserve" font-family="Cervo-Medium,Cervo" font-size="20.0" fill="#BD5A0C" transform="matrix(1.00, 0.00, -0.00, -1.00, 694.8, 694.5)"> </text><text xml:space="preserve" font-family="Cervo-Medium,Cervo" font-size="20.0" fill="#BD5A0C" transform="matrix(1.00, 0.00, -0.00, -1.00, 701.8, 694.5)">C</text><text xml:space="preserve" font-family="Cervo-Medium,Cervo" font-size="20.0" fill="#BD5A0C" transform="matrix(1.00, 0.00, -0.00, -1.00, 712.7, 694.5)">o</text><text xml:space="preserve" font-family="Cervo-Medium,Cervo" font-size="20.0" fill="#BD5A0C" transform="matrix(1.00, 0.00, -0.00, -1.00, 723.3, 694.5)">n</text><text xml:space="preserve" font-family="Cervo-Medium,Cervo" font-size="20.0" fill="#BD5A0C" transform="matrix(1.00, 0.00, -0.00, -1.00, 734.3, 694.5)">f</text><text xml:space="preserve" font-family="Cervo-Medium,Cervo" font-size="20.0" fill="#BD5A0C" transform="matrix(1.00, 0.00, -0.00, -1.00, 741.9, 694.5)">i</text><text xml:space="preserve" font-family="Cervo-Medium,Cervo" font-size="20.0" fill="#BD5A0C" transform="matrix(1.00, 0.00, -0.00, -1.00, 748.9, 694.5)">g</text><text xml:space="preserve" font-family="Cervo-Medium,Cervo" font-size="20.0" fill="#BD5A0C" transform="matrix(1.00, 0.00, -0.00, -1.00, 760.0, 694.5)">u</text><text xml:space="preserve" font-family="Cervo-Medium,Cervo" font-size="20.0" fill="#BD5A0C" transform="matrix(1.00, 0.00, -0.00, -1.00, 771.0, 694.5)">r</text><text xml:space="preserve" font-family="Cervo-Medium,Cervo" font-size="20.0" fill="#BD5A0C" transform="matrix(1.00, 0.00, -0.00, -1.00, 779.2, 694.5)">a</text><text xml:space="preserve" font-family="Cervo-Medium,Cervo" font-size="20.0" fill="#BD5A0C" transform="matrix(1.00, 0.00, -0.00, -1.00, 789.8, 694.5)">t</text><text xml:space="preserve" font-family="Cervo-Medium,Cervo" font-size="20.0" fill="#BD5A0C" transform="matrix(1.00, 0.00, -0.00, -1.00, 797.7, 694.5)">i</text><text xml:space="preserve" font-family="Cervo-Medium,Cervo" font-size="20.0" fill="#BD5A0C" transform="matrix(1.00, 0.00, -0.00, -1.00, 804.7, 694.5)">o</text><text xml:space="preserve" font-family="Cervo-Medium,Cervo" font-size="20.0" fill="#BD5A0C" transform="matrix(1.00, 0.00, -0.00, -1.00, 815.3, 694.5)">n</text><text xml:space="preserve" font-family="Cervo-Medium,Cervo" font-size="20.0" fill="#BD5A0C" transform="matrix(1.00, 0.00, -0.00, -1.00, 826.4, 694.5)"> </text><text xml:space="preserve" font-family="Cervo-Medium,Cervo" font-size="20.0" fill="#BD5A0C" transform="matrix(1.00, 0.00, -0.00, -1.00, 833.4, 694.5)">&gt;</text><text xml:space="preserve" font-family="Cervo-Medium,Cervo" font-size="20.0" fill="#BD5A0C" transform="matrix(1.00, 0.00, -0.00, -1.00, 841.7, 694.5)">&gt;</text><text xml:space="preserve" font-family="Cervo-Medium,Cervo" font-size="20.0" fill="#BD5A0C" transform="matrix(1.00, 0.00, -0.00, -1.00, 850.1, 694.5)"> </text><text xml:space="preserve" font-family="Cervo-Medium,Cervo" font-size="20.0" fill="#BD5A0C" transform="matrix(1.00, 0.00, -0.00, -1.00, 857.1, 694.5)">O</text><text xml:space="preserve" font-family="Cervo-Medium,Cervo" font-size="20.0" fill="#BD5A0C" transform="matrix(1.00, 0.00, -0.00, -1.00, 868.1, 694.5)">r</text><text xml:space="preserve" font-family="Cervo-Medium,Cervo" font-size="20.0" fill="#BD5A0C" transform="matrix(1.00, 0.00, -0.00, -1.00, 876.2, 694.5)">d</text><text xml:space="preserve" font-family="Cervo-Medium,Cervo" font-size="20.0" fill="#BD5A0C" transform="matrix(1.00, 0.00, -0.00, -1.00, 887.2, 694.5)">e</text><text xml:space="preserve" font-family="Cervo-Medium,Cervo" font-size="20.0" fill="#BD5A0C" transform="matrix(1.00, 0.00, -0.00, -1.00, 897.8, 694.5)">r</text><text xml:space="preserve" font-family="Cervo-Medium,Cervo" font-size="20.0" fill="#BD5A0C" transform="matrix(1.00, 0.00, -0.00, -1.00, 906.1, 694.5)"> </text><text xml:space="preserve" font-family="Cervo-Medium,Cervo" font-size="20.0" fill="#BD5A0C" transform="matrix(1.00, 0.00, -0.00, -1.00, 913.1, 694.5)">I</text><text xml:space="preserve" font-family="Cervo-Medium,Cervo" font-size="20.0" fill="#BD5A0C" transform="matrix(1.00, 0.00, -0.00, -1.00, 920.1, 694.5)">t</text><text xml:space="preserve" font-family="Cervo-Medium,Cervo" font-size="20.0" fill="#BD5A0C" transform="matrix(1.00, 0.00, -0.00, -1.00, 928.0, 694.5)">e</text><text xml:space="preserve" font-family="Cervo-Medium,Cervo" font-size="20.0" fill="#BD5A0C" transform="matrix(1.00, 0.00, -0.00, -1.00, 938.6, 694.5)">m</text><text xml:space="preserve" font-family="Cervo-Medium,Cervo" font-size="20.0" fill="#BD5A0C" transform="matrix(1.00, 0.00, -0.00, -1.00, 953.8, 694.5)"> </text><text xml:space="preserve" font-family="Cervo-Medium,Cervo" font-size="20.0" fill="#BD5A0C" transform="matrix(1.00, 0.00, -0.00, -1.00, 960.8, 694.5)">T</text><text xml:space="preserve" font-family="Cervo-Medium,Cervo" font-size="20.0" fill="#BD5A0C" transform="matrix(1.00, 0.00, -0.00, -1.00, 970.4, 694.5)">y</text><text xml:space="preserve" font-family="Cervo-Medium,Cervo" font-size="20.0" fill="#BD5A0C" transform="matrix(1.00, 0.00, -0.00, -1.00, 980.5, 694.5)">p</text><text xml:space="preserve" font-family="Cervo-Medium,Cervo" font-size="20.0" fill="#BD5A0C" transform="matrix(1.00, 0.00, -0.00, -1.00, 991.4, 694.5)">e</text><text xml:space="preserve" font-family="Cervo-Medium,Cervo" font-size="20.0" fill="#BD5A0C" transform="matrix(1.00, 0.00, -0.00, -1.00, 1002.0, 694.5)">s</text><text xml:space="preserve" font-family="Cervo-Medium,Cervo" font-size="30.0" fill="#3C3C3C" transform="matrix(1.00, 0.00, -0.00, -1.00, 23.8, 366.3)">•</text><text xml:space="preserve" font-family="Cervo-Medium,Cervo" font-size="40.0" fill="#3C3C3C" transform="matrix(1.00, 0.00, -0.00, -1.00, 58.8, 363.3)">E</text><text xml:space="preserve" font-family="Cervo-Medium,Cervo" font-size="40.0" fill="#3C3C3C" transform="matrix(1.00, 0.00, -0.00, -1.00, 74.9, 363.3)">n</text><text xml:space="preserve" font-family="Cervo-Medium,Cervo" font-size="40.0" fill="#3C3C3C" transform="matrix(1.00, 0.00, -0.00, -1.00, 93.4, 363.3)">t</text><text xml:space="preserve" font-family="Cervo-Medium,Cervo" font-size="40.0" fill="#3C3C3C" transform="matrix(1.00, 0.00, -0.00, -1.00, 105.6, 363.3)">i</text><text xml:space="preserve" font-family="Cervo-Medium,Cervo" font-size="40.0" fill="#3C3C3C" transform="matrix(1.00, 0.00, -0.00, -1.00, 116.0, 363.3)">d</text><text xml:space="preserve" font-family="Cervo-Medium,Cervo" font-size="40.0" fill="#3C3C3C" transform="matrix(1.00, 0.00, -0.00, -1.00, 134.3, 363.3)">a</text><text xml:space="preserve" font-family="Cervo-Medium,Cervo" font-size="40.0" fill="#3C3C3C" transform="matrix(1.00, 0.00, -0.00, -1.00, 152.0, 363.3)">d</text><text xml:space="preserve" font-family="Cervo-Medium,Cervo" font-size="40.0" fill="#3C3C3C" transform="matrix(1.00, 0.00, -0.00, -1.00, 170.3, 363.3)">e</text><text xml:space="preserve" font-family="Cervo-Medium,Cervo" font-size="40.0" fill="#3C3C3C" transform="matrix(1.00, 0.00, -0.00, -1.00, 187.9, 363.3)">s</text><text xml:space="preserve" font-family="Cervo-Medium,Cervo" font-size="40.0" fill="#3C3C3C" transform="matrix(1.00, 0.00, -0.00, -1.00, 203.6, 363.3)"> </text><text xml:space="preserve" font-family="Cervo-Medium,Cervo" font-size="40.0" fill="#3C3C3C" transform="matrix(1.00, 0.00, -0.00, -1.00, 59.8, 294.3)">C</text><text xml:space="preserve" font-family="Cervo-Medium,Cervo" font-size="40.0" fill="#3C3C3C" transform="matrix(1.00, 0.00, -0.00, -1.00, 78.0, 294.3)">o</text><text xml:space="preserve" font-family="Cervo-Medium,Cervo" font-size="40.0" fill="#3C3C3C" transform="matrix(1.00, 0.00, -0.00, -1.00, 95.6, 294.3)">n</text><text xml:space="preserve" font-family="Cervo-Medium,Cervo" font-size="40.0" fill="#3C3C3C" transform="matrix(1.00, 0.00, -0.00, -1.00, 114.2, 294.3)">t</text><text xml:space="preserve" font-family="Cervo-Medium,Cervo" font-size="40.0" fill="#3C3C3C" transform="matrix(1.00, 0.00, -0.00, -1.00, 126.3, 294.3)">i</text><text xml:space="preserve" font-family="Cervo-Medium,Cervo" font-size="40.0" fill="#3C3C3C" transform="matrix(1.00, 0.00, -0.00, -1.00, 136.7, 294.3)">e</text><text xml:space="preserve" font-family="Cervo-Medium,Cervo" font-size="40.0" fill="#3C3C3C" transform="matrix(1.00, 0.00, -0.00, -1.00, 154.3, 294.3)">n</text><text xml:space="preserve" font-family="Cervo-Medium,Cervo" font-size="40.0" fill="#3C3C3C" transform="matrix(1.00, 0.00, -0.00, -1.00, 172.8, 294.3)">e</text><text xml:space="preserve" font-family="Cervo-Medium,Cervo" font-size="40.0" fill="#3C3C3C" transform="matrix(1.00, 0.00, -0.00, -1.00, 190.4, 294.3)">n</text><text xml:space="preserve" font-family="Cervo-Medium,Cervo" font-size="40.0" fill="#3C3C3C" transform="matrix(1.00, 0.00, -0.00, -1.00, 209.0, 294.3)">:</text><text xml:space="preserve" font-family="Cervo-Medium,Cervo" font-size="40.0" fill="#3C3C3C" transform="matrix(1.00, 0.00, -0.00, -1.00, 217.5, 294.3)"> </text><text xml:space="preserve" font-family="Cervo-Medium,Cervo" font-size="30.0" fill="#3C3C3C" transform="matrix(1.00, 0.00, -0.00, -1.00, 93.8, 228.3)">•</text><text xml:space="preserve" font-family="Cervo-Medium,Cervo" font-size="40.0" fill="#3C3C3C" transform="matrix(1.00, 0.00, -0.00, -1.00, 128.8, 225.3)">P</text><text xml:space="preserve" font-family="Cervo-Medium,Cervo" font-size="40.0" fill="#3C3C3C" transform="matrix(1.00, 0.00, -0.00, -1.00, 146.4, 225.3)">u</text><text xml:space="preserve" font-family="Cervo-Medium,Cervo" font-size="40.0" fill="#3C3C3C" transform="matrix(1.00, 0.00, -0.00, -1.00, 165.0, 225.3)">r</text><text xml:space="preserve" font-family="Cervo-Medium,Cervo" font-size="40.0" fill="#3C3C3C" transform="matrix(1.00, 0.00, -0.00, -1.00, 177.6, 225.3)">c</text><text xml:space="preserve" font-family="Cervo-Medium,Cervo" font-size="40.0" fill="#3C3C3C" transform="matrix(1.00, 0.00, -0.00, -1.00, 195.1, 225.3)">h</text><text xml:space="preserve" font-family="Cervo-Medium,Cervo" font-size="40.0" fill="#3C3C3C" transform="matrix(1.00, 0.00, -0.00, -1.00, 213.6, 225.3)">a</text><text xml:space="preserve" font-family="Cervo-Medium,Cervo" font-size="40.0" fill="#3C3C3C" transform="matrix(1.00, 0.00, -0.00, -1.00, 231.3, 225.3)">s</text><text xml:space="preserve" font-family="Cervo-Medium,Cervo" font-size="40.0" fill="#3C3C3C" transform="matrix(1.00, 0.00, -0.00, -1.00, 247.0, 225.3)">a</text><text xml:space="preserve" font-family="Cervo-Medium,Cervo" font-size="40.0" fill="#3C3C3C" transform="matrix(1.00, 0.00, -0.00, -1.00, 264.6, 225.3)">b</text><text xml:space="preserve" font-family="Cervo-Medium,Cervo" font-size="40.0" fill="#3C3C3C" transform="matrix(1.00, 0.00, -0.00, -1.00, 283.0, 225.3)">l</text><text xml:space="preserve" font-family="Cervo-Medium,Cervo" font-size="40.0" fill="#3C3C3C" transform="matrix(1.00, 0.00, -0.00, -1.00, 294.9, 225.3)">e</text><text xml:space="preserve" font-family="Cervo-Medium,Cervo" font-size="40.0" fill="#3C3C3C" transform="matrix(1.00, 0.00, -0.00, -1.00, 312.5, 225.3)"> </text><text xml:space="preserve" font-family="Cervo-Medium,Cervo" font-size="40.0" fill="#3C3C3C" transform="matrix(1.00, 0.00, -0.00, -1.00, 322.9, 225.3)">e</text><text xml:space="preserve" font-family="Cervo-Medium,Cervo" font-size="40.0" fill="#3C3C3C" transform="matrix(1.00, 0.00, -0.00, -1.00, 340.5, 225.3)">n</text><text xml:space="preserve" font-family="Cervo-Medium,Cervo" font-size="40.0" fill="#3C3C3C" transform="matrix(1.00, 0.00, -0.00, -1.00, 359.0, 225.3)">t</text><text xml:space="preserve" font-family="Cervo-Medium,Cervo" font-size="40.0" fill="#3C3C3C" transform="matrix(1.00, 0.00, -0.00, -1.00, 371.2, 225.3)">i</text><text xml:space="preserve" font-family="Cervo-Medium,Cervo" font-size="40.0" fill="#3C3C3C" transform="matrix(1.00, 0.00, -0.00, -1.00, 381.6, 225.3)">t</text><text xml:space="preserve" font-family="Cervo-Medium,Cervo" font-size="40.0" fill="#3C3C3C" transform="matrix(1.00, 0.00, -0.00, -1.00, 393.8, 225.3)">y</text><text xml:space="preserve" font-family="Cervo-Medium,Cervo" font-size="40.0" fill="#3C3C3C" transform="matrix(1.00, 0.00, -0.00, -1.00, 410.2, 225.3)"> </text><text xml:space="preserve" font-family="Cervo-Medium,Cervo" font-size="40.0" fill="#3C3C3C" transform="matrix(1.00, 0.00, -0.00, -1.00, 420.6, 225.3)">t</text><text xml:space="preserve" font-family="Cervo-Medium,Cervo" font-size="40.0" fill="#3C3C3C" transform="matrix(1.00, 0.00, -0.00, -1.00, 432.8, 225.3)">y</text><text xml:space="preserve" font-family="Cervo-Medium,Cervo" font-size="40.0" fill="#3C3C3C" transform="matrix(1.00, 0.00, -0.00, -1.00, 449.3, 225.3)">p</text><text xml:space="preserve" font-family="Cervo-Medium,Cervo" font-size="40.0" fill="#3C3C3C" transform="matrix(1.00, 0.00, -0.00, -1.00, 467.6, 225.3)">e</text><text xml:space="preserve" font-family="Cervo-Medium,Cervo" font-size="40.0" fill="#3C3C3C" transform="matrix(1.00, 0.00, -0.00, -1.00, 485.2, 225.3)"> </text><text xml:space="preserve" font-family="Cervo-Medium,Cervo" font-size="40.0" fill="#3C3C3C" transform="matrix(1.00, 0.00, -0.00, -1.00, 495.6, 225.3)">r</text><text xml:space="preserve" font-family="Cervo-Medium,Cervo" font-size="40.0" fill="#3C3C3C" transform="matrix(1.00, 0.00, -0.00, -1.00, 508.3, 225.3)">e</text><text xml:space="preserve" font-family="Cervo-Medium,Cervo" font-size="40.0" fill="#3C3C3C" transform="matrix(1.00, 0.00, -0.00, -1.00, 525.9, 225.3)">f</text><text xml:space="preserve" font-family="Cervo-Medium,Cervo" font-size="40.0" fill="#3C3C3C" transform="matrix(1.00, 0.00, -0.00, -1.00, 537.4, 225.3)">e</text><text xml:space="preserve" font-family="Cervo-Medium,Cervo" font-size="40.0" fill="#3C3C3C" transform="matrix(1.00, 0.00, -0.00, -1.00, 555.0, 225.3)">r</text><text xml:space="preserve" font-family="Cervo-Medium,Cervo" font-size="40.0" fill="#3C3C3C" transform="matrix(1.00, 0.00, -0.00, -1.00, 567.7, 225.3)">e</text><text xml:space="preserve" font-family="Cervo-Medium,Cervo" font-size="40.0" fill="#3C3C3C" transform="matrix(1.00, 0.00, -0.00, -1.00, 585.3, 225.3)">n</text><text xml:space="preserve" font-family="Cervo-Medium,Cervo" font-size="40.0" fill="#3C3C3C" transform="matrix(1.00, 0.00, -0.00, -1.00, 603.8, 225.3)">c</text><text xml:space="preserve" font-family="Cervo-Medium,Cervo" font-size="40.0" fill="#3C3C3C" transform="matrix(1.00, 0.00, -0.00, -1.00, 621.3, 225.3)">i</text><text xml:space="preserve" font-family="Cervo-Medium,Cervo" font-size="40.0" fill="#3C3C3C" transform="matrix(1.00, 0.00, -0.00, -1.00, 631.7, 225.3)">a</text><text xml:space="preserve" font-family="Cervo-Medium,Cervo" font-size="40.0" fill="#3C3C3C" transform="matrix(1.00, 0.00, -0.00, -1.00, 649.4, 225.3)">n</text><text xml:space="preserve" font-family="Cervo-Medium,Cervo" font-size="40.0" fill="#3C3C3C" transform="matrix(1.00, 0.00, -0.00, -1.00, 667.9, 225.3)"> </text><text xml:space="preserve" font-family="Cervo-Medium,Cervo" font-size="30.0" fill="#3C3C3C" transform="matrix(1.00, 0.00, -0.00, -1.00, 93.8, 159.3)">•</text><text xml:space="preserve" font-family="Cervo-Medium,Cervo" font-size="40.0" fill="#3C3C3C" transform="matrix(1.00, 0.00, -0.00, -1.00, 128.8, 156.3)">T</text><text xml:space="preserve" font-family="Cervo-Medium,Cervo" font-size="40.0" fill="#3C3C3C" transform="matrix(1.00, 0.00, -0.00, -1.00, 144.4, 156.3)">i</text><text xml:space="preserve" font-family="Cervo-Medium,Cervo" font-size="40.0" fill="#3C3C3C" transform="matrix(1.00, 0.00, -0.00, -1.00, 154.8, 156.3)">p</text><text xml:space="preserve" font-family="Cervo-Medium,Cervo" font-size="40.0" fill="#3C3C3C" transform="matrix(1.00, 0.00, -0.00, -1.00, 173.2, 156.3)">o</text><text xml:space="preserve" font-family="Cervo-Medium,Cervo" font-size="40.0" fill="#3C3C3C" transform="matrix(1.00, 0.00, -0.00, -1.00, 190.8, 156.3)"> </text><text xml:space="preserve" font-family="Cervo-Medium,Cervo" font-size="40.0" fill="#3C3C3C" transform="matrix(1.00, 0.00, -0.00, -1.00, 201.2, 156.3)">d</text><text xml:space="preserve" font-family="Cervo-Medium,Cervo" font-size="40.0" fill="#3C3C3C" transform="matrix(1.00, 0.00, -0.00, -1.00, 219.5, 156.3)">e</text><text xml:space="preserve" font-family="Cervo-Medium,Cervo" font-size="40.0" fill="#3C3C3C" transform="matrix(1.00, 0.00, -0.00, -1.00, 237.1, 156.3)"> </text><text xml:space="preserve" font-family="Cervo-Medium,Cervo" font-size="40.0" fill="#3C3C3C" transform="matrix(1.00, 0.00, -0.00, -1.00, 247.5, 156.3)">O</text><text xml:space="preserve" font-family="Cervo-Medium,Cervo" font-size="40.0" fill="#3C3C3C" transform="matrix(1.00, 0.00, -0.00, -1.00, 265.9, 156.3)">r</text><text xml:space="preserve" font-family="Cervo-Medium,Cervo" font-size="40.0" fill="#3C3C3C" transform="matrix(1.00, 0.00, -0.00, -1.00, 278.6, 156.3)">d</text><text xml:space="preserve" font-family="Cervo-Medium,Cervo" font-size="40.0" fill="#3C3C3C" transform="matrix(1.00, 0.00, -0.00, -1.00, 296.9, 156.3)">e</text><text xml:space="preserve" font-family="Cervo-Medium,Cervo" font-size="40.0" fill="#3C3C3C" transform="matrix(1.00, 0.00, -0.00, -1.00, 314.5, 156.3)">r</text><text xml:space="preserve" font-family="Cervo-Medium,Cervo" font-size="40.0" fill="#3C3C3C" transform="matrix(1.00, 0.00, -0.00, -1.00, 327.6, 156.3)"> </text><text xml:space="preserve" font-family="Cervo-Medium,Cervo" font-size="40.0" fill="#3C3C3C" transform="matrix(1.00, 0.00, -0.00, -1.00, 338.0, 156.3)">u</text><text xml:space="preserve" font-family="Cervo-Medium,Cervo" font-size="40.0" fill="#3C3C3C" transform="matrix(1.00, 0.00, -0.00, -1.00, 356.5, 156.3)">s</text><text xml:space="preserve" font-family="Cervo-Medium,Cervo" font-size="40.0" fill="#3C3C3C" transform="matrix(1.00, 0.00, -0.00, -1.00, 372.2, 156.3)">a</text><text xml:space="preserve" font-family="Cervo-Medium,Cervo" font-size="40.0" fill="#3C3C3C" transform="matrix(1.00, 0.00, -0.00, -1.00, 389.8, 156.3)">n</text><text xml:space="preserve" font-family="Cervo-Medium,Cervo" font-size="40.0" fill="#3C3C3C" transform="matrix(1.00, 0.00, -0.00, -1.00, 408.4, 156.3)"> </text><text xml:space="preserve" font-family="Cervo-Medium,Cervo" font-size="30.0" fill="#3C3C3C" transform="matrix(1.00, 0.00, -0.00, -1.00, 93.8, 90.3)">•</text><text xml:space="preserve" font-family="Cervo-Medium,Cervo" font-size="40.0" fill="#3C3C3C" transform="matrix(1.00, 0.00, -0.00, -1.00, 128.8, 87.3)">T</text><text xml:space="preserve" font-family="Cervo-Medium,Cervo" font-size="40.0" fill="#3C3C3C" transform="matrix(1.00, 0.00, -0.00, -1.00, 144.4, 87.3)">i</text><text xml:space="preserve" font-family="Cervo-Medium,Cervo" font-size="40.0" fill="#3C3C3C" transform="matrix(1.00, 0.00, -0.00, -1.00, 154.8, 87.3)">p</text><text xml:space="preserve" font-family="Cervo-Medium,Cervo" font-size="40.0" fill="#3C3C3C" transform="matrix(1.00, 0.00, -0.00, -1.00, 173.2, 87.3)">o</text><text xml:space="preserve" font-family="Cervo-Medium,Cervo" font-size="40.0" fill="#3C3C3C" transform="matrix(1.00, 0.00, -0.00, -1.00, 190.8, 87.3)"> </text><text xml:space="preserve" font-family="Cervo-Medium,Cervo" font-size="40.0" fill="#3C3C3C" transform="matrix(1.00, 0.00, -0.00, -1.00, 201.2, 87.3)">d</text><text xml:space="preserve" font-family="Cervo-Medium,Cervo" font-size="40.0" fill="#3C3C3C" transform="matrix(1.00, 0.00, -0.00, -1.00, 219.5, 87.3)">e</text><text xml:space="preserve" font-family="Cervo-Medium,Cervo" font-size="40.0" fill="#3C3C3C" transform="matrix(1.00, 0.00, -0.00, -1.00, 237.1, 87.3)"> </text><text xml:space="preserve" font-family="Cervo-Medium,Cervo" font-size="40.0" fill="#3C3C3C" transform="matrix(1.00, 0.00, -0.00, -1.00, 247.5, 87.3)">i</text><text xml:space="preserve" font-family="Cervo-Medium,Cervo" font-size="40.0" fill="#3C3C3C" transform="matrix(1.00, 0.00, -0.00, -1.00, 257.9, 87.3)">m</text><text xml:space="preserve" font-family="Cervo-Medium,Cervo" font-size="40.0" fill="#3C3C3C" transform="matrix(1.00, 0.00, -0.00, -1.00, 284.7, 87.3)">p</text><text xml:space="preserve" font-family="Cervo-Medium,Cervo" font-size="40.0" fill="#3C3C3C" transform="matrix(1.00, 0.00, -0.00, -1.00, 303.0, 87.3)">u</text><text xml:space="preserve" font-family="Cervo-Medium,Cervo" font-size="40.0" fill="#3C3C3C" transform="matrix(1.00, 0.00, -0.00, -1.00, 321.6, 87.3)">e</text><text xml:space="preserve" font-family="Cervo-Medium,Cervo" font-size="40.0" fill="#3C3C3C" transform="matrix(1.00, 0.00, -0.00, -1.00, 339.2, 87.3)">s</text><text xml:space="preserve" font-family="Cervo-Medium,Cervo" font-size="40.0" fill="#3C3C3C" transform="matrix(1.00, 0.00, -0.00, -1.00, 354.8, 87.3)">t</text><text xml:space="preserve" font-family="Cervo-Medium,Cervo" font-size="40.0" fill="#3C3C3C" transform="matrix(1.00, 0.00, -0.00, -1.00, 367.0, 87.3)">o</text><text xml:space="preserve" font-family="Cervo-Medium,Cervo" font-size="40.0" fill="#3C3C3C" transform="matrix(1.00, 0.00, -0.00, -1.00, 384.6, 87.3)">s</text><text xml:space="preserve" font-family="Cervo-Medium,Cervo" font-size="40.0" fill="#3C3C3C" transform="matrix(1.00, 0.00, -0.00, -1.00, 400.3, 87.3)"> </text><text xml:space="preserve" font-family="Cervo-Medium,Cervo" font-size="40.0" fill="#3C3C3C" transform="matrix(1.00, 0.00, -0.00, -1.00, 410.7, 87.3)">l</text><text xml:space="preserve" font-family="Cervo-Medium,Cervo" font-size="40.0" fill="#3C3C3C" transform="matrix(1.00, 0.00, -0.00, -1.00, 422.6, 87.3)">l</text><text xml:space="preserve" font-family="Cervo-Medium,Cervo" font-size="40.0" fill="#3C3C3C" transform="matrix(1.00, 0.00, -0.00, -1.00, 434.6, 87.3)">e</text><text xml:space="preserve" font-family="Cervo-Medium,Cervo" font-size="40.0" fill="#3C3C3C" transform="matrix(1.00, 0.00, -0.00, -1.00, 452.2, 87.3)">v</text><text xml:space="preserve" font-family="Cervo-Medium,Cervo" font-size="40.0" fill="#3C3C3C" transform="matrix(1.00, 0.00, -0.00, -1.00, 467.6, 87.3)">a</text><text xml:space="preserve" font-family="Cervo-Medium,Cervo" font-size="40.0" fill="#3C3C3C" transform="matrix(1.00, 0.00, -0.00, -1.00, 485.3, 87.3)">n</text><image xlink:href="../../5F0F7F95-4ABB-4C65-8C3E-4598113D2B88/assets/AD701408E3F41AFCA202CF093CC49BA9.png" width="681.00" height="439.00" transform="matrix(0.80, 0.00, -0.00, -0.80, 402.8, 644.0)"></image><path d="M 0.0 0.0 L 546.3 0.0 L 546.3 352.2 L 0.0 352.2 Z M 0.0 0.0 " fill="none" stroke="#0264C0" stroke-width="2.00" transform="matrix(1.00, 0.00, 0.00, -1.00, 402.8, 644.0)"></path><text xml:space="preserve" font-family="Consolas-Bold,Consolas" font-weight="bold" font-size="20.0" fill="#0264C0" transform="matrix(1.00, 0.00, -0.00, -1.00, 17.2, 25.7)">#</text><text xml:space="preserve" font-family="Consolas-Bold,Consolas" font-weight="bold" font-size="20.0" fill="#0264C0" transform="matrix(1.00, 0.00, -0.00, -1.00, 28.2, 25.7)">c</text><text xml:space="preserve" font-family="Consolas-Bold,Consolas" font-weight="bold" font-size="20.0" fill="#0264C0" transform="matrix(1.00, 0.00, -0.00, -1.00, 39.2, 25.7)">o</text><text xml:space="preserve" font-family="Consolas-Bold,Consolas" font-weight="bold" font-size="20.0" fill="#0264C0" transform="matrix(1.00, 0.00, -0.00, -1.00, 50.2, 25.7)">m</text><text xml:space="preserve" font-family="Consolas-Bold,Consolas" font-weight="bold" font-size="20.0" fill="#0264C0" transform="matrix(1.00, 0.00, -0.00, -1.00, 61.1, 25.7)">m</text><text xml:space="preserve" font-family="Consolas-Bold,Consolas" font-weight="bold" font-size="20.0" fill="#0264C0" transform="matrix(1.00, 0.00, -0.00, -1.00, 72.1, 25.7)">e</text><text xml:space="preserve" font-family="Consolas-Bold,Consolas" font-weight="bold" font-size="20.0" fill="#0264C0" transform="matrix(1.00, 0.00, -0.00, -1.00, 83.1, 25.7)">r</text><text xml:space="preserve" font-family="Consolas-Bold,Consolas" font-weight="bold" font-size="20.0" fill="#0264C0" transform="matrix(1.00, 0.00, -0.00, -1.00, 94.1, 25.7)">c</text><text xml:space="preserve" font-family="Consolas-Bold,Consolas" font-weight="bold" font-size="20.0" fill="#0264C0" transform="matrix(1.00, 0.00, -0.00, -1.00, 105.1, 25.7)">e</text><text xml:space="preserve" font-family="Consolas-Bold,Consolas" font-weight="bold" font-size="20.0" fill="#0264C0" transform="matrix(1.00, 0.00, -0.00, -1.00, 116.1, 25.7)">D</text><text xml:space="preserve" font-family="Consolas-Bold,Consolas" font-weight="bold" font-size="20.0" fill="#0264C0" transform="matrix(1.00, 0.00, -0.00, -1.00, 127.1, 25.7)">C</text><text xml:space="preserve" font-family="Consolas-Bold,Consolas" font-weight="bold" font-size="20.0" fill="#0264C0" transform="matrix(1.00, 0.00, -0.00, -1.00, 138.1, 25.7)">S</text><text xml:space="preserve" font-family="Consolas-Bold,Consolas" font-weight="bold" font-size="20.0" fill="#0264C0" transform="matrix(1.00, 0.00, -0.00, -1.00, 149.1, 25.7)">1</text><text xml:space="preserve" font-family="Consolas-Bold,Consolas" font-weight="bold" font-size="20.0" fill="#0264C0" transform="matrix(1.00, 0.00, -0.00, -1.00, 160.1, 25.7)">7</text><text xml:space="preserve" font-family="Consolas-Bold,Consolas" font-weight="bold" font-size="20.0" fill="#0264C0" transform="matrix(1.00, 0.00, -0.00, -1.00, 171.1, 25.7)">	</text><text xml:space="preserve" font-family="Consolas-Bold,Consolas" font-weight="bold" font-size="20.0" fill="#0264C0" transform="matrix(1.00, 0.00, -0.00, -1.00, 199.1, 25.7)">	</text><text xml:space="preserve" font-family="Consolas-Bold,Consolas" font-weight="bold" font-size="20.0" fill="#0264C0" transform="matrix(1.00, 0.00, -0.00, -1.00, 227.1, 25.7)">	</text><text xml:space="preserve" font-family="Consolas-Bold,Consolas" font-weight="bold" font-size="20.0" fill="#0264C0" transform="matrix(1.00, 0.00, -0.00, -1.00, 255.1, 25.7)">	</text><text xml:space="preserve" font-family="Consolas-Bold,Consolas" font-weight="bold" font-size="20.0" fill="#0264C0" transform="matrix(1.00, 0.00, -0.00, -1.00, 283.1, 25.7)">	</text><text xml:space="preserve" font-family="Consolas-Bold,Consolas" font-weight="bold" font-size="20.0" fill="#0264C0" transform="matrix(1.00, 0.00, -0.00, -1.00, 311.1, 25.7)">	</text><text xml:space="preserve" font-family="Consolas-Bold,Consolas" font-weight="bold" font-size="20.0" fill="#0264C0" transform="matrix(1.00, 0.00, -0.00, -1.00, 339.1, 25.7)">	</text><text xml:space="preserve" font-family="Consolas-Bold,Consolas" font-weight="bold" font-size="20.0" fill="#0264C0" transform="matrix(1.00, 0.00, -0.00, -1.00, 367.1, 25.7)">	</text><text xml:space="preserve" font-family="Consolas-Bold,Consolas" font-weight="bold" font-size="20.0" fill="#0264C0" transform="matrix(1.00, 0.00, -0.00, -1.00, 395.1, 25.7)">	</text><text xml:space="preserve" font-family="Consolas-Bold,Consolas" font-weight="bold" font-size="20.0" fill="#0264C0" transform="matrix(1.00, 0.00, -0.00, -1.00, 423.1, 25.7)">	</text><text xml:space="preserve" font-family="Consolas-Bold,Consolas" font-weight="bold" font-size="20.0" fill="#0264C0" transform="matrix(1.00, 0.00, -0.00, -1.00, 451.1, 25.7)">	</text><text xml:space="preserve" font-family="Consolas-Bold,Consolas" font-weight="bold" font-size="20.0" fill="#0264C0" transform="matrix(1.00, 0.00, -0.00, -1.00, 479.1, 25.7)">	</text><text xml:space="preserve" font-family="Consolas-Bold,Consolas" font-weight="bold" font-size="20.0" fill="#0264C0" transform="matrix(1.00, 0.00, -0.00, -1.00, 507.1, 25.7)">	</text><text xml:space="preserve" font-family="Consolas-Bold,Consolas" font-weight="bold" font-size="20.0" fill="#0264C0" transform="matrix(1.00, 0.00, -0.00, -1.00, 535.1, 25.7)">	</text><text xml:space="preserve" font-family="Consolas-Bold,Consolas" font-weight="bold" font-size="20.0" fill="#0264C0" transform="matrix(1.00, 0.00, -0.00, -1.00, 563.1, 25.7)">	</text><text xml:space="preserve" font-family="Consolas-Bold,Consolas" font-weight="bold" font-size="20.0" fill="#0264C0" transform="matrix(1.00, 0.00, -0.00, -1.00, 591.1, 25.7)">	</text><text xml:space="preserve" font-family="Consolas-Bold,Consolas" font-weight="bold" font-size="20.0" fill="#0264C0" transform="matrix(1.00, 0.00, -0.00, -1.00, 619.1, 25.7)">	</text><text xml:space="preserve" font-family="Consolas-Bold,Consolas" font-weight="bold" font-size="20.0" fill="#0264C0" transform="matrix(1.00, 0.00, -0.00, -1.00, 647.1, 25.7)">	</text><text xml:space="preserve" font-family="Consolas-Bold,Consolas" font-weight="bold" font-size="20.0" fill="#0264C0" transform="matrix(1.00, 0.00, -0.00, -1.00, 675.1, 25.7)">	</text><text xml:space="preserve" font-family="Consolas-Bold,Consolas" font-weight="bold" font-size="20.0" fill="#0264C0" transform="matrix(1.00, 0.00, -0.00, -1.00, 703.1, 25.7)">	</text><text xml:space="preserve" font-family="Consolas-Bold,Consolas" font-weight="bold" font-size="20.0" fill="#0264C0" transform="matrix(1.00, 0.00, -0.00, -1.00, 731.1, 25.7)">	</text><text xml:space="preserve" font-family="Consolas-Bold,Consolas" font-weight="bold" font-size="20.0" fill="#0264C0" transform="matrix(1.00, 0.00, -0.00, -1.00, 759.1, 25.7)">	</text><text xml:space="preserve" font-family="Consolas-Bold,Consolas" font-weight="bold" font-size="20.0" fill="#0264C0" transform="matrix(1.00, 0.00, -0.00, -1.00, 787.1, 25.7)">	</text><text xml:space="preserve" font-family="Consolas-Bold,Consolas" font-weight="bold" font-size="20.0" fill="#0264C0" transform="matrix(1.00, 0.00, -0.00, -1.00, 815.1, 25.7)">	</text><text xml:space="preserve" font-family="Consolas-Bold,Consolas" font-weight="bold" font-size="20.0" fill="#0264C0" transform="matrix(1.00, 0.00, -0.00, -1.00, 843.1, 25.7)">	</text><text xml:space="preserve" font-family="Consolas-Bold,Consolas" font-weight="bold" font-size="20.0" fill="#0264C0" transform="matrix(1.00, 0.00, -0.00, -1.00, 871.1, 25.7)">	</text><text xml:space="preserve" font-family="Consolas-Bold,Consolas" font-weight="bold" font-size="20.0" fill="#0264C0" transform="matrix(1.00, 0.00, -0.00, -1.00, 899.1, 25.7)">	</text><text xml:space="preserve" font-family="Consolas-Bold,Consolas" font-weight="bold" font-size="20.0" fill="#0264C0" transform="matrix(1.00, 0.00, -0.00, -1.00, 927.1, 25.7)">	</text><text xml:space="preserve" font-family="Consolas-Bold,Consolas" font-weight="bold" font-size="20.0" fill="#0264C0" transform="matrix(1.00, 0.00, -0.00, -1.00, 955.1, 25.7)">	</text><text xml:space="preserve" font-family="Consolas-Bold,Consolas" font-weight="bold" font-size="20.0" fill="#0264C0" transform="matrix(1.00, 0.00, -0.00, -1.00, 983.1, 25.7)">	</text><text xml:space="preserve" font-family="Consolas-Bold,Consolas" font-weight="bold" font-size="20.0" fill="#0264C0" transform="matrix(1.00, 0.00, -0.00, -1.00, 1011.1, 25.7)">	</text><text xml:space="preserve" font-family="Consolas-Bold,Consolas" font-weight="bold" font-size="20.0" fill="#0264C0" transform="matrix(1.00, 0.00, -0.00, -1.00, 1039.1, 25.7)">	</text><text xml:space="preserve" font-family="Consolas-Bold,Consolas" font-weight="bold" font-size="20.0" fill="#0264C0" transform="matrix(1.00, 0.00, -0.00, -1.00, 1067.1, 25.7)">	</text><text xml:space="preserve" font-family="Consolas-Bold,Consolas" font-weight="bold" font-size="20.0" fill="#0264C0" transform="matrix(1.00, 0.00, -0.00, -1.00, 1095.1, 25.7)">	</text><text xml:space="preserve" font-family="Consolas-Bold,Consolas" font-weight="bold" font-size="20.0" fill="#0264C0" transform="matrix(1.00, 0.00, -0.00, -1.00, 1123.1, 25.7)">	</text><text xml:space="preserve" font-family="Consolas-Bold,Consolas" font-weight="bold" font-size="20.0" fill="#0264C0" transform="matrix(1.00, 0.00, -0.00, -1.00, 1151.1, 25.7)">	</text><text xml:space="preserve" font-family="Consolas-Bold,Consolas" font-weight="bold" font-size="20.0" fill="#0264C0" transform="matrix(1.00, 0.00, -0.00, -1.00, 1179.1, 25.7)">	</text><text xml:space="preserve" font-family="Consolas-Bold,Consolas" font-weight="bold" font-size="20.0" fill="#0264C0" transform="matrix(1.00, 0.00, -0.00, -1.00, 1207.1, 25.7)">	</text><text xml:space="preserve" font-family="Consolas-Bold,Consolas" font-weight="bold" font-size="20.0" fill="#0264C0" transform="matrix(1.00, 0.00, -0.00, -1.00, 1235.1, 25.7)">	</text><text xml:space="preserve" font-family="Consolas-Bold,Consolas" font-weight="bold" font-size="20.0" fill="#0264C0" transform="matrix(1.00, 0.00, -0.00, -1.00, 1263.1, 25.7)">	</text><text xml:space="preserve" font-family="Consolas-Bold,Consolas" font-weight="bold" font-size="20.0" fill="#0264C0" transform="matrix(1.00, 0.00, -0.00, -1.00, 1291.1, 25.7)">	</text><text xml:space="preserve" font-family="Consolas-Bold,Consolas" font-weight="bold" font-size="20.0" fill="#0264C0" transform="matrix(1.00, 0.00, -0.00, -1.00, 1319.1, 25.7)">	</text><text xml:space="preserve" font-family="Consolas-Bold,Consolas" font-weight="bold" font-size="20.0" fill="#0264C0" transform="matrix(1.00, 0.00, -0.00, -1.00, 1347.1, 25.7)">	</text><text xml:space="preserve" font-family="Consolas-Bold,Consolas" font-weight="bold" font-size="20.0" fill="#0264C0" transform="matrix(1.00, 0.00, -0.00, -1.00, 1375.1, 25.7)">	</text><text xml:space="preserve" font-family="Consolas-Bold,Consolas" font-weight="bold" font-size="20.0" fill="#0264C0" transform="matrix(1.00, 0.00, -0.00, -1.00, 1403.1, 25.7)">	</text><text xml:space="preserve" font-family="Consolas-Bold,Consolas" font-weight="bold" font-size="20.0" fill="#0264C0" transform="matrix(1.00, 0.00, -0.00, -1.00, 1431.1, 25.7)">	</text><text xml:space="preserve" font-family="Consolas-Bold,Consolas" font-weight="bold" font-size="20.0" fill="#0264C0" transform="matrix(1.00, 0.00, -0.00, -1.00, 1459.1, 25.7)">	</text><text xml:space="preserve" font-family="Consolas-Bold,Consolas" font-weight="bold" font-size="20.0" fill="#0264C0" transform="matrix(1.00, 0.00, -0.00, -1.00, 1487.1, 25.7)">	</text><text xml:space="preserve" font-family="Consolas-Bold,Consolas" font-weight="bold" font-size="20.0" fill="#0264C0" transform="matrix(1.00, 0.00, -0.00, -1.00, 1515.1, 25.7)">	</text><text xml:space="preserve" font-family="Consolas-Bold,Consolas" font-weight="bold" font-size="20.0" fill="#0264C0" transform="matrix(1.00, 0.00, -0.00, -1.00, 1543.1, 25.7)">	</text><text xml:space="preserve" font-family="Consolas-Bold,Consolas" font-weight="bold" font-size="20.0" fill="#0264C0" transform="matrix(1.00, 0.00, -0.00, -1.00, 1571.1, 25.7)">	</text><text xml:space="preserve" font-family="Consolas-Bold,Consolas" font-weight="bold" font-size="20.0" fill="#0264C0" transform="matrix(1.00, 0.00, -0.00, -1.00, 1599.1, 25.7)">	</text><text xml:space="preserve" font-family="Consolas-Bold,Consolas" font-weight="bold" font-size="20.0" fill="#0264C0" transform="matrix(1.00, 0.00, -0.00, -1.00, 1627.1, 25.7)">	</text><text xml:space="preserve" font-family="Consolas-Bold,Consolas" font-weight="bold" font-size="20.0" fill="#0264C0" transform="matrix(1.00, 0.00, -0.00, -1.00, 1655.1, 25.7)">	</text><text xml:space="preserve" font-family="Consolas-Bold,Consolas" font-weight="bold" font-size="20.0" fill="#0264C0" transform="matrix(1.00, 0.00, -0.00, -1.00, 1683.1, 25.7)">	</text><text xml:space="preserve" font-family="Consolas-Bold,Consolas" font-weight="bold" font-size="20.0" fill="#0264C0" transform="matrix(1.00, 0.00, -0.00, -1.00, 1711.1, 25.7)">	</text><text xml:space="preserve" font-family="Consolas-Bold,Consolas" font-weight="bold" font-size="20.0" fill="#0264C0" transform="matrix(1.00, 0.00, -0.00, -1.00, 1739.1, 25.7)">	</text><text xml:space="preserve" font-family="Consolas-Bold,Consolas" font-weight="bold" font-size="20.0" fill="#0264C0" transform="matrix(1.00, 0.00, -0.00, -1.00, 1767.1, 25.7)">	</text><text xml:space="preserve" font-family="Consolas-Bold,Consolas" font-weight="bold" font-size="20.0" fill="#0264C0" transform="matrix(1.00, 0.00, -0.00, -1.00, 1795.1, 25.7)">	</text><text xml:space="preserve" font-family="Consolas-Bold,Consolas" font-weight="bold" font-size="20.0" fill="#0264C0" transform="matrix(1.00, 0.00, -0.00, -1.00, 1823.1, 25.7)">	</text><text xml:space="preserve" font-family="Consolas-Bold,Consolas" font-weight="bold" font-size="20.0" fill="#0264C0" transform="matrix(1.00, 0.00, -0.00, -1.00, 1851.1, 25.7)">	</text><text xml:space="preserve" font-family="Consolas-Bold,Consolas" font-weight="bold" font-size="20.0" fill="#0264C0" transform="matrix(1.00, 0.00, -0.00, -1.00, 1879.1, 25.7)">	</text><text xml:space="preserve" font-family="Consolas-Bold,Consolas" font-weight="bold" font-size="20.0" fill="#0264C0" transform="matrix(1.00, 0.00, -0.00, -1.00, 1907.1, 25.7)">	</text><text xml:space="preserve" font-family="Consolas-Bold,Consolas" font-weight="bold" font-size="20.0" fill="#0264C0" transform="matrix(1.00, 0.00, -0.00, -1.00, 1935.1, 25.7)">	</text><text xml:space="preserve" font-family="Consolas-Bold,Consolas" font-weight="bold" font-size="20.0" fill="#0264C0" transform="matrix(1.00, 0.00, -0.00, -1.00, 1963.1, 25.7)">	</text><text xml:space="preserve" font-family="Consolas-Bold,Consolas" font-weight="bold" font-size="20.0" fill="#0264C0" transform="matrix(1.00, 0.00, -0.00, -1.00, 1991.1, 25.7)">	</text><text xml:space="preserve" font-family="Consolas-Bold,Consolas" font-weight="bold" font-size="20.0" fill="#0264C0" transform="matrix(1.00, 0.00, -0.00, -1.00, 2019.1, 25.7)">	</text><text xml:space="preserve" font-family="Consolas-Bold,Consolas" font-weight="bold" font-size="20.0" fill="#0264C0" transform="matrix(1.00, 0.00, -0.00, -1.00, 2047.1, 25.7)">	</text><text xml:space="preserve" font-family="Consolas-Bold,Consolas" font-weight="bold" font-size="20.0" fill="#0264C0" transform="matrix(1.00, 0.00, -0.00, -1.00, 2075.1, 25.7)">	</text><text xml:space="preserve" font-family="Consolas-Bold,Consolas" font-weight="bold" font-size="20.0" fill="#0264C0" transform="matrix(1.00, 0.00, -0.00, -1.00, 929.9, 25.7)">@</text><text xml:space="preserve" font-family="Consolas-Bold,Consolas" font-weight="bold" font-size="20.0" fill="#0264C0" transform="matrix(1.00, 0.00, -0.00, -1.00, 940.8, 25.7)">f</text><text xml:space="preserve" font-family="Consolas-Bold,Consolas" font-weight="bold" font-size="20.0" fill="#0264C0" transform="matrix(1.00, 0.00, -0.00, -1.00, 951.8, 25.7)">a</text><text xml:space="preserve" font-family="Consolas-Bold,Consolas" font-weight="bold" font-size="20.0" fill="#0264C0" transform="matrix(1.00, 0.00, -0.00, -1.00, 962.8, 25.7)">c</text><text xml:space="preserve" font-family="Consolas-Bold,Consolas" font-weight="bold" font-size="20.0" fill="#0264C0" transform="matrix(1.00, 0.00, -0.00, -1.00, 973.8, 25.7)">i</text><text xml:space="preserve" font-family="Consolas-Bold,Consolas" font-weight="bold" font-size="20.0" fill="#0264C0" transform="matrix(1.00, 0.00, -0.00, -1.00, 984.8, 25.7)">n</text><text xml:space="preserve" font-family="Consolas-Bold,Consolas" font-weight="bold" font-size="20.0" fill="#0264C0" transform="matrix(1.00, 0.00, -0.00, -1.00, 995.8, 25.7)">e</text></g></svg>