<?xml version="1.0" encoding="UTF-8" standalone="no"?><svg xmlns="http://www.w3.org/2000/svg" xmlns:xlink="http://www.w3.org/1999/xlink" clip-rule="evenodd" stroke-miterlimit="10" viewBox="0 0 1024 768"><desc>SVG generated by Keynote</desc><defs></defs><g transform="matrix(1.00, 0.00, -0.00, -1.00, 0.0, 768.0)"><path d="M 0.0 768.0 L 1024.0 768.0 L 1024.0 0.0 L 0.0 0.0 Z M 0.0 768.0 " fill="#FEFFFF"></path><path d="M 0.0 677.0 L 1024.0 677.0 L 1024.0 59.0 L 0.0 59.0 Z M 0.2 677.3 " fill="#F2F2F2"></path><path d="M 0.1 0.1 L 1040.1 0.1 " fill="none" stroke="#F38F18" stroke-width="1.00" transform="matrix(1.00, 0.00, 0.00, -1.00, -8.1, 676.6)"></path><path d="M 0.1 0.1 L 1040.1 0.1 " fill="none" stroke="#F38F18" stroke-width="1.00" transform="matrix(1.00, 0.00, 0.00, -1.00, -8.1, 59.6)"></path><image xlink:href="../../0099E750-43F4-4A1E-80C1-2076B752852F/assets/55340D757A15DCE0FDDCCB8968979DD4.png" width="426.00" height="426.00" transform="matrix(0.16, 0.00, -0.00, -0.16, 13.0, 757.7)"></image><text xml:space="preserve" font-family="Cervo-Medium,Cervo" font-size="40.0" fill="#0264C0" transform="matrix(1.00, 0.00, -0.00, -1.00, 702.5, 720.6)">O</text><text xml:space="preserve" font-family="Cervo-Medium,Cervo" font-size="40.0" fill="#0264C0" transform="matrix(1.00, 0.00, -0.00, -1.00, 724.5, 720.6)">r</text><text xml:space="preserve" font-family="Cervo-Medium,Cervo" font-size="40.0" fill="#0264C0" transform="matrix(1.00, 0.00, -0.00, -1.00, 740.8, 720.6)">d</text><text xml:space="preserve" font-family="Cervo-Medium,Cervo" font-size="40.0" fill="#0264C0" transform="matrix(1.00, 0.00, -0.00, -1.00, 762.7, 720.6)">e</text><text xml:space="preserve" font-family="Cervo-Medium,Cervo" font-size="40.0" fill="#0264C0" transform="matrix(1.00, 0.00, -0.00, -1.00, 783.9, 720.6)">r</text><text xml:space="preserve" font-family="Cervo-Medium,Cervo" font-size="40.0" fill="#0264C0" transform="matrix(1.00, 0.00, -0.00, -1.00, 800.6, 720.6)"> </text><text xml:space="preserve" font-family="Cervo-Medium,Cervo" font-size="40.0" fill="#0264C0" transform="matrix(1.00, 0.00, -0.00, -1.00, 814.6, 720.6)">I</text><text xml:space="preserve" font-family="Cervo-Medium,Cervo" font-size="40.0" fill="#0264C0" transform="matrix(1.00, 0.00, -0.00, -1.00, 828.6, 720.6)">t</text><text xml:space="preserve" font-family="Cervo-Medium,Cervo" font-size="40.0" fill="#0264C0" transform="matrix(1.00, 0.00, -0.00, -1.00, 844.3, 720.6)">e</text><text xml:space="preserve" font-family="Cervo-Medium,Cervo" font-size="40.0" fill="#0264C0" transform="matrix(1.00, 0.00, -0.00, -1.00, 865.5, 720.6)">m</text><text xml:space="preserve" font-family="Cervo-Medium,Cervo" font-size="40.0" fill="#0264C0" transform="matrix(1.00, 0.00, -0.00, -1.00, 896.0, 720.6)"> </text><text xml:space="preserve" font-family="Cervo-Medium,Cervo" font-size="40.0" fill="#0264C0" transform="matrix(1.00, 0.00, -0.00, -1.00, 910.0, 720.6)">T</text><text xml:space="preserve" font-family="Cervo-Medium,Cervo" font-size="40.0" fill="#0264C0" transform="matrix(1.00, 0.00, -0.00, -1.00, 929.2, 720.6)">y</text><text xml:space="preserve" font-family="Cervo-Medium,Cervo" font-size="40.0" fill="#0264C0" transform="matrix(1.00, 0.00, -0.00, -1.00, 949.3, 720.6)">p</text><text xml:space="preserve" font-family="Cervo-Medium,Cervo" font-size="40.0" fill="#0264C0" transform="matrix(1.00, 0.00, -0.00, -1.00, 971.2, 720.6)">e</text><text xml:space="preserve" font-family="Cervo-Medium,Cervo" font-size="40.0" fill="#0264C0" transform="matrix(1.00, 0.00, -0.00, -1.00, 992.4, 720.6)">s</text><text xml:space="preserve" font-family="Cervo-Medium,Cervo" font-size="40.0" fill="#0264C0" transform="matrix(1.00, 0.00, -0.00, -1.00, 1011.7, 720.6)"> </text><text xml:space="preserve" font-family="Cervo-Medium,Cervo" font-size="20.0" fill="#BD5A0C" transform="matrix(1.00, 0.00, -0.00, -1.00, 335.1, 694.5)">H</text><text xml:space="preserve" font-family="Cervo-Medium,Cervo" font-size="20.0" fill="#BD5A0C" transform="matrix(1.00, 0.00, -0.00, -1.00, 346.1, 694.5)">o</text><text xml:space="preserve" font-family="Cervo-Medium,Cervo" font-size="20.0" fill="#BD5A0C" transform="matrix(1.00, 0.00, -0.00, -1.00, 356.7, 694.5)">m</text><text xml:space="preserve" font-family="Cervo-Medium,Cervo" font-size="20.0" fill="#BD5A0C" transform="matrix(1.00, 0.00, -0.00, -1.00, 371.9, 694.5)">e</text><text xml:space="preserve" font-family="Cervo-Medium,Cervo" font-size="20.0" fill="#BD5A0C" transform="matrix(1.00, 0.00, -0.00, -1.00, 382.5, 694.5)"> </text><text xml:space="preserve" font-family="Cervo-Medium,Cervo" font-size="20.0" fill="#BD5A0C" transform="matrix(1.00, 0.00, -0.00, -1.00, 389.5, 694.5)">&gt;</text><text xml:space="preserve" font-family="Cervo-Medium,Cervo" font-size="20.0" fill="#BD5A0C" transform="matrix(1.00, 0.00, -0.00, -1.00, 397.9, 694.5)">&gt;</text><text xml:space="preserve" font-family="Cervo-Medium,Cervo" font-size="20.0" fill="#BD5A0C" transform="matrix(1.00, 0.00, -0.00, -1.00, 406.2, 694.5)"> </text><text xml:space="preserve" font-family="Cervo-Medium,Cervo" font-size="20.0" fill="#BD5A0C" transform="matrix(1.00, 0.00, -0.00, -1.00, 413.2, 694.5)">A</text><text xml:space="preserve" font-family="Cervo-Medium,Cervo" font-size="20.0" fill="#BD5A0C" transform="matrix(1.00, 0.00, -0.00, -1.00, 424.5, 694.5)">d</text><text xml:space="preserve" font-family="Cervo-Medium,Cervo" font-size="20.0" fill="#BD5A0C" transform="matrix(1.00, 0.00, -0.00, -1.00, 435.4, 694.5)">m</text><text xml:space="preserve" font-family="Cervo-Medium,Cervo" font-size="20.0" fill="#BD5A0C" transform="matrix(1.00, 0.00, -0.00, -1.00, 450.6, 694.5)">i</text><text xml:space="preserve" font-family="Cervo-Medium,Cervo" font-size="20.0" fill="#BD5A0C" transform="matrix(1.00, 0.00, -0.00, -1.00, 457.6, 694.5)">n</text><text xml:space="preserve" font-family="Cervo-Medium,Cervo" font-size="20.0" fill="#BD5A0C" transform="matrix(1.00, 0.00, -0.00, -1.00, 468.7, 694.5)">i</text><text xml:space="preserve" font-family="Cervo-Medium,Cervo" font-size="20.0" fill="#BD5A0C" transform="matrix(1.00, 0.00, -0.00, -1.00, 475.7, 694.5)">s</text><text xml:space="preserve" font-family="Cervo-Medium,Cervo" font-size="20.0" fill="#BD5A0C" transform="matrix(1.00, 0.00, -0.00, -1.00, 485.3, 694.5)">t</text><text xml:space="preserve" font-family="Cervo-Medium,Cervo" font-size="20.0" fill="#BD5A0C" transform="matrix(1.00, 0.00, -0.00, -1.00, 493.2, 694.5)">r</text><text xml:space="preserve" font-family="Cervo-Medium,Cervo" font-size="20.0" fill="#BD5A0C" transform="matrix(1.00, 0.00, -0.00, -1.00, 501.4, 694.5)">a</text><text xml:space="preserve" font-family="Cervo-Medium,Cervo" font-size="20.0" fill="#BD5A0C" transform="matrix(1.00, 0.00, -0.00, -1.00, 512.0, 694.5)">t</text><text xml:space="preserve" font-family="Cervo-Medium,Cervo" font-size="20.0" fill="#BD5A0C" transform="matrix(1.00, 0.00, -0.00, -1.00, 519.9, 694.5)">i</text><text xml:space="preserve" font-family="Cervo-Medium,Cervo" font-size="20.0" fill="#BD5A0C" transform="matrix(1.00, 0.00, -0.00, -1.00, 526.9, 694.5)">o</text><text xml:space="preserve" font-family="Cervo-Medium,Cervo" font-size="20.0" fill="#BD5A0C" transform="matrix(1.00, 0.00, -0.00, -1.00, 537.5, 694.5)">n</text><text xml:space="preserve" font-family="Cervo-Medium,Cervo" font-size="20.0" fill="#BD5A0C" transform="matrix(1.00, 0.00, -0.00, -1.00, 548.5, 694.5)"> </text><text xml:space="preserve" font-family="Cervo-Medium,Cervo" font-size="20.0" fill="#BD5A0C" transform="matrix(1.00, 0.00, -0.00, -1.00, 555.5, 694.5)">&gt;</text><text xml:space="preserve" font-family="Cervo-Medium,Cervo" font-size="20.0" fill="#BD5A0C" transform="matrix(1.00, 0.00, -0.00, -1.00, 563.9, 694.5)">&gt;</text><text xml:space="preserve" font-family="Cervo-Medium,Cervo" font-size="20.0" fill="#BD5A0C" transform="matrix(1.00, 0.00, -0.00, -1.00, 572.3, 694.5)"> </text><text xml:space="preserve" font-family="Cervo-Medium,Cervo" font-size="20.0" fill="#BD5A0C" transform="matrix(1.00, 0.00, -0.00, -1.00, 579.3, 694.5)">C</text><text xml:space="preserve" font-family="Cervo-Medium,Cervo" font-size="20.0" fill="#BD5A0C" transform="matrix(1.00, 0.00, -0.00, -1.00, 590.2, 694.5)">o</text><text xml:space="preserve" font-family="Cervo-Medium,Cervo" font-size="20.0" fill="#BD5A0C" transform="matrix(1.00, 0.00, -0.00, -1.00, 600.8, 694.5)">m</text><text xml:space="preserve" font-family="Cervo-Medium,Cervo" font-size="20.0" fill="#BD5A0C" transform="matrix(1.00, 0.00, -0.00, -1.00, 616.0, 694.5)">m</text><text xml:space="preserve" font-family="Cervo-Medium,Cervo" font-size="20.0" fill="#BD5A0C" transform="matrix(1.00, 0.00, -0.00, -1.00, 631.2, 694.5)">e</text><text xml:space="preserve" font-family="Cervo-Medium,Cervo" font-size="20.0" fill="#BD5A0C" transform="matrix(1.00, 0.00, -0.00, -1.00, 641.8, 694.5)">r</text><text xml:space="preserve" font-family="Cervo-Medium,Cervo" font-size="20.0" fill="#BD5A0C" transform="matrix(1.00, 0.00, -0.00, -1.00, 649.9, 694.5)">c</text><text xml:space="preserve" font-family="Cervo-Medium,Cervo" font-size="20.0" fill="#BD5A0C" transform="matrix(1.00, 0.00, -0.00, -1.00, 660.5, 694.5)">e</text><text xml:space="preserve" font-family="Cervo-Medium,Cervo" font-size="20.0" fill="#BD5A0C" transform="matrix(1.00, 0.00, -0.00, -1.00, 671.1, 694.5)"> </text><text xml:space="preserve" font-family="Cervo-Medium,Cervo" font-size="20.0" fill="#BD5A0C" transform="matrix(1.00, 0.00, -0.00, -1.00, 678.1, 694.5)">&gt;</text><text xml:space="preserve" font-family="Cervo-Medium,Cervo" font-size="20.0" fill="#BD5A0C" transform="matrix(1.00, 0.00, -0.00, -1.00, 686.4, 694.5)">&gt;</text><text xml:space="preserve" font-family="Cervo-Medium,Cervo" font-size="20.0" fill="#BD5A0C" transform="matrix(1.00, 0.00, -0.00, -1.00, 694.8, 694.5)"> </text><text xml:space="preserve" font-family="Cervo-Medium,Cervo" font-size="20.0" fill="#BD5A0C" transform="matrix(1.00, 0.00, -0.00, -1.00, 701.8, 694.5)">C</text><text xml:space="preserve" font-family="Cervo-Medium,Cervo" font-size="20.0" fill="#BD5A0C" transform="matrix(1.00, 0.00, -0.00, -1.00, 712.7, 694.5)">o</text><text xml:space="preserve" font-family="Cervo-Medium,Cervo" font-size="20.0" fill="#BD5A0C" transform="matrix(1.00, 0.00, -0.00, -1.00, 723.3, 694.5)">n</text><text xml:space="preserve" font-family="Cervo-Medium,Cervo" font-size="20.0" fill="#BD5A0C" transform="matrix(1.00, 0.00, -0.00, -1.00, 734.3, 694.5)">f</text><text xml:space="preserve" font-family="Cervo-Medium,Cervo" font-size="20.0" fill="#BD5A0C" transform="matrix(1.00, 0.00, -0.00, -1.00, 741.9, 694.5)">i</text><text xml:space="preserve" font-family="Cervo-Medium,Cervo" font-size="20.0" fill="#BD5A0C" transform="matrix(1.00, 0.00, -0.00, -1.00, 748.9, 694.5)">g</text><text xml:space="preserve" font-family="Cervo-Medium,Cervo" font-size="20.0" fill="#BD5A0C" transform="matrix(1.00, 0.00, -0.00, -1.00, 760.0, 694.5)">u</text><text xml:space="preserve" font-family="Cervo-Medium,Cervo" font-size="20.0" fill="#BD5A0C" transform="matrix(1.00, 0.00, -0.00, -1.00, 771.0, 694.5)">r</text><text xml:space="preserve" font-family="Cervo-Medium,Cervo" font-size="20.0" fill="#BD5A0C" transform="matrix(1.00, 0.00, -0.00, -1.00, 779.2, 694.5)">a</text><text xml:space="preserve" font-family="Cervo-Medium,Cervo" font-size="20.0" fill="#BD5A0C" transform="matrix(1.00, 0.00, -0.00, -1.00, 789.8, 694.5)">t</text><text xml:space="preserve" font-family="Cervo-Medium,Cervo" font-size="20.0" fill="#BD5A0C" transform="matrix(1.00, 0.00, -0.00, -1.00, 797.7, 694.5)">i</text><text xml:space="preserve" font-family="Cervo-Medium,Cervo" font-size="20.0" fill="#BD5A0C" transform="matrix(1.00, 0.00, -0.00, -1.00, 804.7, 694.5)">o</text><text xml:space="preserve" font-family="Cervo-Medium,Cervo" font-size="20.0" fill="#BD5A0C" transform="matrix(1.00, 0.00, -0.00, -1.00, 815.3, 694.5)">n</text><text xml:space="preserve" font-family="Cervo-Medium,Cervo" font-size="20.0" fill="#BD5A0C" transform="matrix(1.00, 0.00, -0.00, -1.00, 826.4, 694.5)"> </text><text xml:space="preserve" font-family="Cervo-Medium,Cervo" font-size="20.0" fill="#BD5A0C" transform="matrix(1.00, 0.00, -0.00, -1.00, 833.4, 694.5)">&gt;</text><text xml:space="preserve" font-family="Cervo-Medium,Cervo" font-size="20.0" fill="#BD5A0C" transform="matrix(1.00, 0.00, -0.00, -1.00, 841.7, 694.5)">&gt;</text><text xml:space="preserve" font-family="Cervo-Medium,Cervo" font-size="20.0" fill="#BD5A0C" transform="matrix(1.00, 0.00, -0.00, -1.00, 850.1, 694.5)"> </text><text xml:space="preserve" font-family="Cervo-Medium,Cervo" font-size="20.0" fill="#BD5A0C" transform="matrix(1.00, 0.00, -0.00, -1.00, 857.1, 694.5)">O</text><text xml:space="preserve" font-family="Cervo-Medium,Cervo" font-size="20.0" fill="#BD5A0C" transform="matrix(1.00, 0.00, -0.00, -1.00, 868.1, 694.5)">r</text><text xml:space="preserve" font-family="Cervo-Medium,Cervo" font-size="20.0" fill="#BD5A0C" transform="matrix(1.00, 0.00, -0.00, -1.00, 876.2, 694.5)">d</text><text xml:space="preserve" font-family="Cervo-Medium,Cervo" font-size="20.0" fill="#BD5A0C" transform="matrix(1.00, 0.00, -0.00, -1.00, 887.2, 694.5)">e</text><text xml:space="preserve" font-family="Cervo-Medium,Cervo" font-size="20.0" fill="#BD5A0C" transform="matrix(1.00, 0.00, -0.00, -1.00, 897.8, 694.5)">r</text><text xml:space="preserve" font-family="Cervo-Medium,Cervo" font-size="20.0" fill="#BD5A0C" transform="matrix(1.00, 0.00, -0.00, -1.00, 906.1, 694.5)"> </text><text xml:space="preserve" font-family="Cervo-Medium,Cervo" font-size="20.0" fill="#BD5A0C" transform="matrix(1.00, 0.00, -0.00, -1.00, 913.1, 694.5)">I</text><text xml:space="preserve" font-family="Cervo-Medium,Cervo" font-size="20.0" fill="#BD5A0C" transform="matrix(1.00, 0.00, -0.00, -1.00, 920.1, 694.5)">t</text><text xml:space="preserve" font-family="Cervo-Medium,Cervo" font-size="20.0" fill="#BD5A0C" transform="matrix(1.00, 0.00, -0.00, -1.00, 928.0, 694.5)">e</text><text xml:space="preserve" font-family="Cervo-Medium,Cervo" font-size="20.0" fill="#BD5A0C" transform="matrix(1.00, 0.00, -0.00, -1.00, 938.6, 694.5)">m</text><text xml:space="preserve" font-family="Cervo-Medium,Cervo" font-size="20.0" fill="#BD5A0C" transform="matrix(1.00, 0.00, -0.00, -1.00, 953.8, 694.5)"> </text><text xml:space="preserve" font-family="Cervo-Medium,Cervo" font-size="20.0" fill="#BD5A0C" transform="matrix(1.00, 0.00, -0.00, -1.00, 960.8, 694.5)">T</text><text xml:space="preserve" font-family="Cervo-Medium,Cervo" font-size="20.0" fill="#BD5A0C" transform="matrix(1.00, 0.00, -0.00, -1.00, 970.4, 694.5)">y</text><text xml:space="preserve" font-family="Cervo-Medium,Cervo" font-size="20.0" fill="#BD5A0C" transform="matrix(1.00, 0.00, -0.00, -1.00, 980.5, 694.5)">p</text><text xml:space="preserve" font-family="Cervo-Medium,Cervo" font-size="20.0" fill="#BD5A0C" transform="matrix(1.00, 0.00, -0.00, -1.00, 991.4, 694.5)">e</text><text xml:space="preserve" font-family="Cervo-Medium,Cervo" font-size="20.0" fill="#BD5A0C" transform="matrix(1.00, 0.00, -0.00, -1.00, 1002.0, 694.5)">s</text><text xml:space="preserve" font-family="Cervo-Medium,Cervo" font-size="30.0" fill="#3C3C3C" transform="matrix(1.00, 0.00, -0.00, -1.00, 23.8, 169.3)">•</text><text xml:space="preserve" font-family="Cervo-Medium,Cervo" font-size="40.0" fill="#3C3C3C" transform="matrix(1.00, 0.00, -0.00, -1.00, 58.8, 166.3)">A</text><text xml:space="preserve" font-family="Cervo-Medium,Cervo" font-size="40.0" fill="#3C3C3C" transform="matrix(1.00, 0.00, -0.00, -1.00, 77.7, 166.3)">ñ</text><text xml:space="preserve" font-family="Cervo-Medium,Cervo" font-size="40.0" fill="#3C3C3C" transform="matrix(1.00, 0.00, -0.00, -1.00, 96.2, 166.3)">a</text><text xml:space="preserve" font-family="Cervo-Medium,Cervo" font-size="40.0" fill="#3C3C3C" transform="matrix(1.00, 0.00, -0.00, -1.00, 113.9, 166.3)">d</text><text xml:space="preserve" font-family="Cervo-Medium,Cervo" font-size="40.0" fill="#3C3C3C" transform="matrix(1.00, 0.00, -0.00, -1.00, 132.2, 166.3)">i</text><text xml:space="preserve" font-family="Cervo-Medium,Cervo" font-size="40.0" fill="#3C3C3C" transform="matrix(1.00, 0.00, -0.00, -1.00, 142.6, 166.3)">r</text><text xml:space="preserve" font-family="Cervo-Medium,Cervo" font-size="40.0" fill="#3C3C3C" transform="matrix(1.00, 0.00, -0.00, -1.00, 155.7, 166.3)"> </text><text xml:space="preserve" font-family="Cervo-Medium,Cervo" font-size="40.0" fill="#3C3C3C" transform="matrix(1.00, 0.00, -0.00, -1.00, 166.1, 166.3)">c</text><text xml:space="preserve" font-family="Cervo-Medium,Cervo" font-size="40.0" fill="#3C3C3C" transform="matrix(1.00, 0.00, -0.00, -1.00, 183.6, 166.3)">a</text><text xml:space="preserve" font-family="Cervo-Medium,Cervo" font-size="40.0" fill="#3C3C3C" transform="matrix(1.00, 0.00, -0.00, -1.00, 201.2, 166.3)">m</text><text xml:space="preserve" font-family="Cervo-Medium,Cervo" font-size="40.0" fill="#3C3C3C" transform="matrix(1.00, 0.00, -0.00, -1.00, 228.1, 166.3)">p</text><text xml:space="preserve" font-family="Cervo-Medium,Cervo" font-size="40.0" fill="#3C3C3C" transform="matrix(1.00, 0.00, -0.00, -1.00, 246.4, 166.3)">o</text><text xml:space="preserve" font-family="Cervo-Medium,Cervo" font-size="40.0" fill="#3C3C3C" transform="matrix(1.00, 0.00, -0.00, -1.00, 264.0, 166.3)">s</text><text xml:space="preserve" font-family="Cervo-Medium,Cervo" font-size="40.0" fill="#3C3C3C" transform="matrix(1.00, 0.00, -0.00, -1.00, 279.7, 166.3)"> </text><text xml:space="preserve" font-family="Cervo-Medium,Cervo" font-size="30.0" fill="#3C3C3C" transform="matrix(1.00, 0.00, -0.00, -1.00, 23.8, 90.3)">•</text><text xml:space="preserve" font-family="Cervo-Medium,Cervo" font-size="40.0" fill="#3C3C3C" transform="matrix(1.00, 0.00, -0.00, -1.00, 58.8, 87.3)">C</text><text xml:space="preserve" font-family="Cervo-Medium,Cervo" font-size="40.0" fill="#3C3C3C" transform="matrix(1.00, 0.00, -0.00, -1.00, 77.0, 87.3)">o</text><text xml:space="preserve" font-family="Cervo-Medium,Cervo" font-size="40.0" fill="#3C3C3C" transform="matrix(1.00, 0.00, -0.00, -1.00, 94.6, 87.3)">n</text><text xml:space="preserve" font-family="Cervo-Medium,Cervo" font-size="40.0" fill="#3C3C3C" transform="matrix(1.00, 0.00, -0.00, -1.00, 113.2, 87.3)">f</text><text xml:space="preserve" font-family="Cervo-Medium,Cervo" font-size="40.0" fill="#3C3C3C" transform="matrix(1.00, 0.00, -0.00, -1.00, 124.7, 87.3)">i</text><text xml:space="preserve" font-family="Cervo-Medium,Cervo" font-size="40.0" fill="#3C3C3C" transform="matrix(1.00, 0.00, -0.00, -1.00, 135.1, 87.3)">g</text><text xml:space="preserve" font-family="Cervo-Medium,Cervo" font-size="40.0" fill="#3C3C3C" transform="matrix(1.00, 0.00, -0.00, -1.00, 153.6, 87.3)">u</text><text xml:space="preserve" font-family="Cervo-Medium,Cervo" font-size="40.0" fill="#3C3C3C" transform="matrix(1.00, 0.00, -0.00, -1.00, 172.2, 87.3)">r</text><text xml:space="preserve" font-family="Cervo-Medium,Cervo" font-size="40.0" fill="#3C3C3C" transform="matrix(1.00, 0.00, -0.00, -1.00, 184.8, 87.3)">a</text><text xml:space="preserve" font-family="Cervo-Medium,Cervo" font-size="40.0" fill="#3C3C3C" transform="matrix(1.00, 0.00, -0.00, -1.00, 202.5, 87.3)">r</text><text xml:space="preserve" font-family="Cervo-Medium,Cervo" font-size="40.0" fill="#3C3C3C" transform="matrix(1.00, 0.00, -0.00, -1.00, 215.6, 87.3)"> </text><text xml:space="preserve" font-family="Cervo-Medium,Cervo" font-size="40.0" fill="#3C3C3C" transform="matrix(1.00, 0.00, -0.00, -1.00, 226.0, 87.3)">c</text><text xml:space="preserve" font-family="Cervo-Medium,Cervo" font-size="40.0" fill="#3C3C3C" transform="matrix(1.00, 0.00, -0.00, -1.00, 243.4, 87.3)">ó</text><text xml:space="preserve" font-family="Cervo-Medium,Cervo" font-size="40.0" fill="#3C3C3C" transform="matrix(1.00, 0.00, -0.00, -1.00, 261.0, 87.3)">m</text><text xml:space="preserve" font-family="Cervo-Medium,Cervo" font-size="40.0" fill="#3C3C3C" transform="matrix(1.00, 0.00, -0.00, -1.00, 287.9, 87.3)">o</text><text xml:space="preserve" font-family="Cervo-Medium,Cervo" font-size="40.0" fill="#3C3C3C" transform="matrix(1.00, 0.00, -0.00, -1.00, 305.5, 87.3)"> </text><text xml:space="preserve" font-family="Cervo-Medium,Cervo" font-size="40.0" fill="#3C3C3C" transform="matrix(1.00, 0.00, -0.00, -1.00, 315.9, 87.3)">m</text><text xml:space="preserve" font-family="Cervo-Medium,Cervo" font-size="40.0" fill="#3C3C3C" transform="matrix(1.00, 0.00, -0.00, -1.00, 342.7, 87.3)">o</text><text xml:space="preserve" font-family="Cervo-Medium,Cervo" font-size="40.0" fill="#3C3C3C" transform="matrix(1.00, 0.00, -0.00, -1.00, 360.3, 87.3)">s</text><text xml:space="preserve" font-family="Cervo-Medium,Cervo" font-size="40.0" fill="#3C3C3C" transform="matrix(1.00, 0.00, -0.00, -1.00, 376.0, 87.3)">t</text><text xml:space="preserve" font-family="Cervo-Medium,Cervo" font-size="40.0" fill="#3C3C3C" transform="matrix(1.00, 0.00, -0.00, -1.00, 388.2, 87.3)">r</text><text xml:space="preserve" font-family="Cervo-Medium,Cervo" font-size="40.0" fill="#3C3C3C" transform="matrix(1.00, 0.00, -0.00, -1.00, 400.8, 87.3)">a</text><text xml:space="preserve" font-family="Cervo-Medium,Cervo" font-size="40.0" fill="#3C3C3C" transform="matrix(1.00, 0.00, -0.00, -1.00, 418.5, 87.3)">r</text><text xml:space="preserve" font-family="Cervo-Medium,Cervo" font-size="40.0" fill="#3C3C3C" transform="matrix(1.00, 0.00, -0.00, -1.00, 431.6, 87.3)">s</text><text xml:space="preserve" font-family="Cervo-Medium,Cervo" font-size="40.0" fill="#3C3C3C" transform="matrix(1.00, 0.00, -0.00, -1.00, 447.3, 87.3)">e</text><text xml:space="preserve" font-family="Cervo-Medium,Cervo" font-size="40.0" fill="#3C3C3C" transform="matrix(1.00, 0.00, -0.00, -1.00, 464.9, 87.3)"> </text><text xml:space="preserve" font-family="Cervo-Medium,Cervo" font-size="40.0" fill="#3C3C3C" transform="matrix(1.00, 0.00, -0.00, -1.00, 475.3, 87.3)">e</text><text xml:space="preserve" font-family="Cervo-Medium,Cervo" font-size="40.0" fill="#3C3C3C" transform="matrix(1.00, 0.00, -0.00, -1.00, 492.9, 87.3)">n</text><text xml:space="preserve" font-family="Cervo-Medium,Cervo" font-size="40.0" fill="#3C3C3C" transform="matrix(1.00, 0.00, -0.00, -1.00, 511.4, 87.3)"> </text><text xml:space="preserve" font-family="Cervo-Medium,Cervo" font-size="40.0" fill="#3C3C3C" transform="matrix(1.00, 0.00, -0.00, -1.00, 521.8, 87.3)">e</text><text xml:space="preserve" font-family="Cervo-Medium,Cervo" font-size="40.0" fill="#3C3C3C" transform="matrix(1.00, 0.00, -0.00, -1.00, 539.4, 87.3)">l</text><text xml:space="preserve" font-family="Cervo-Medium,Cervo" font-size="40.0" fill="#3C3C3C" transform="matrix(1.00, 0.00, -0.00, -1.00, 551.4, 87.3)"> </text><text xml:space="preserve" font-family="Cervo-Medium,Cervo" font-size="40.0" fill="#3C3C3C" transform="matrix(1.00, 0.00, -0.00, -1.00, 561.8, 87.3)">“</text><text xml:space="preserve" font-family="Cervo-Medium,Cervo" font-size="40.0" fill="#3C3C3C" transform="matrix(1.00, 0.00, -0.00, -1.00, 574.6, 87.3)">A</text><text xml:space="preserve" font-family="Cervo-Medium,Cervo" font-size="40.0" fill="#3C3C3C" transform="matrix(1.00, 0.00, -0.00, -1.00, 593.4, 87.3)">d</text><text xml:space="preserve" font-family="Cervo-Medium,Cervo" font-size="40.0" fill="#3C3C3C" transform="matrix(1.00, 0.00, -0.00, -1.00, 611.8, 87.3)">d</text><text xml:space="preserve" font-family="Cervo-Medium,Cervo" font-size="40.0" fill="#3C3C3C" transform="matrix(1.00, 0.00, -0.00, -1.00, 630.1, 87.3)"> </text><text xml:space="preserve" font-family="Cervo-Medium,Cervo" font-size="40.0" fill="#3C3C3C" transform="matrix(1.00, 0.00, -0.00, -1.00, 640.5, 87.3)">t</text><text xml:space="preserve" font-family="Cervo-Medium,Cervo" font-size="40.0" fill="#3C3C3C" transform="matrix(1.00, 0.00, -0.00, -1.00, 652.6, 87.3)">o</text><text xml:space="preserve" font-family="Cervo-Medium,Cervo" font-size="40.0" fill="#3C3C3C" transform="matrix(1.00, 0.00, -0.00, -1.00, 670.2, 87.3)"> </text><text xml:space="preserve" font-family="Cervo-Medium,Cervo" font-size="40.0" fill="#3C3C3C" transform="matrix(1.00, 0.00, -0.00, -1.00, 680.6, 87.3)">c</text><text xml:space="preserve" font-family="Cervo-Medium,Cervo" font-size="40.0" fill="#3C3C3C" transform="matrix(1.00, 0.00, -0.00, -1.00, 698.1, 87.3)">a</text><text xml:space="preserve" font-family="Cervo-Medium,Cervo" font-size="40.0" fill="#3C3C3C" transform="matrix(1.00, 0.00, -0.00, -1.00, 715.8, 87.3)">r</text><text xml:space="preserve" font-family="Cervo-Medium,Cervo" font-size="40.0" fill="#3C3C3C" transform="matrix(1.00, 0.00, -0.00, -1.00, 728.8, 87.3)">t</text><text xml:space="preserve" font-family="Cervo-Medium,Cervo" font-size="40.0" fill="#3C3C3C" transform="matrix(1.00, 0.00, -0.00, -1.00, 741.0, 87.3)">”</text><image xlink:href="E4C9A7BC6DAA7CFDF3E7153BBDC56392.png" width="631.00" height="584.00" transform="matrix(0.71, 0.00, -0.00, -0.71, 62.6, 649.3)"></image><path d="M 0.0 0.0 L 448.5 0.0 L 448.5 415.1 L 0.0 415.1 Z M 0.0 0.0 " fill="none" stroke="#0264C0" stroke-width="2.00" transform="matrix(1.00, 0.00, 0.00, -1.00, 62.6, 649.3)"></path><image xlink:href="00EF7EC7814D18868CDB87C13895876A.png" width="528.00" height="471.00" transform="matrix(0.88, 0.00, -0.00, -0.88, 480.3, 567.7)"></image><path d="M 0.0 0.0 L 465.4 0.0 L 465.4 415.1 L 0.0 415.1 Z M 0.0 0.0 " fill="none" stroke="#0264C0" stroke-width="2.00" transform="matrix(1.00, 0.00, 0.00, -1.00, 480.3, 567.7)"></path><text xml:space="preserve" font-family="Consolas-Bold,Consolas" font-weight="bold" font-size="20.0" fill="#0264C0" transform="matrix(1.00, 0.00, -0.00, -1.00, 17.2, 25.7)">#</text><text xml:space="preserve" font-family="Consolas-Bold,Consolas" font-weight="bold" font-size="20.0" fill="#0264C0" transform="matrix(1.00, 0.00, -0.00, -1.00, 28.2, 25.7)">c</text><text xml:space="preserve" font-family="Consolas-Bold,Consolas" font-weight="bold" font-size="20.0" fill="#0264C0" transform="matrix(1.00, 0.00, -0.00, -1.00, 39.2, 25.7)">o</text><text xml:space="preserve" font-family="Consolas-Bold,Consolas" font-weight="bold" font-size="20.0" fill="#0264C0" transform="matrix(1.00, 0.00, -0.00, -1.00, 50.2, 25.7)">m</text><text xml:space="preserve" font-family="Consolas-Bold,Consolas" font-weight="bold" font-size="20.0" fill="#0264C0" transform="matrix(1.00, 0.00, -0.00, -1.00, 61.1, 25.7)">m</text><text xml:space="preserve" font-family="Consolas-Bold,Consolas" font-weight="bold" font-size="20.0" fill="#0264C0" transform="matrix(1.00, 0.00, -0.00, -1.00, 72.1, 25.7)">e</text><text xml:space="preserve" font-family="Consolas-Bold,Consolas" font-weight="bold" font-size="20.0" fill="#0264C0" transform="matrix(1.00, 0.00, -0.00, -1.00, 83.1, 25.7)">r</text><text xml:space="preserve" font-family="Consolas-Bold,Consolas" font-weight="bold" font-size="20.0" fill="#0264C0" transform="matrix(1.00, 0.00, -0.00, -1.00, 94.1, 25.7)">c</text><text xml:space="preserve" font-family="Consolas-Bold,Consolas" font-weight="bold" font-size="20.0" fill="#0264C0" transform="matrix(1.00, 0.00, -0.00, -1.00, 105.1, 25.7)">e</text><text xml:space="preserve" font-family="Consolas-Bold,Consolas" font-weight="bold" font-size="20.0" fill="#0264C0" transform="matrix(1.00, 0.00, -0.00, -1.00, 116.1, 25.7)">D</text><text xml:space="preserve" font-family="Consolas-Bold,Consolas" font-weight="bold" font-size="20.0" fill="#0264C0" transform="matrix(1.00, 0.00, -0.00, -1.00, 127.1, 25.7)">C</text><text xml:space="preserve" font-family="Consolas-Bold,Consolas" font-weight="bold" font-size="20.0" fill="#0264C0" transform="matrix(1.00, 0.00, -0.00, -1.00, 138.1, 25.7)">S</text><text xml:space="preserve" font-family="Consolas-Bold,Consolas" font-weight="bold" font-size="20.0" fill="#0264C0" transform="matrix(1.00, 0.00, -0.00, -1.00, 149.1, 25.7)">1</text><text xml:space="preserve" font-family="Consolas-Bold,Consolas" font-weight="bold" font-size="20.0" fill="#0264C0" transform="matrix(1.00, 0.00, -0.00, -1.00, 160.1, 25.7)">7</text><text xml:space="preserve" font-family="Consolas-Bold,Consolas" font-weight="bold" font-size="20.0" fill="#0264C0" transform="matrix(1.00, 0.00, -0.00, -1.00, 171.1, 25.7)">	</text><text xml:space="preserve" font-family="Consolas-Bold,Consolas" font-weight="bold" font-size="20.0" fill="#0264C0" transform="matrix(1.00, 0.00, -0.00, -1.00, 199.1, 25.7)">	</text><text xml:space="preserve" font-family="Consolas-Bold,Consolas" font-weight="bold" font-size="20.0" fill="#0264C0" transform="matrix(1.00, 0.00, -0.00, -1.00, 227.1, 25.7)">	</text><text xml:space="preserve" font-family="Consolas-Bold,Consolas" font-weight="bold" font-size="20.0" fill="#0264C0" transform="matrix(1.00, 0.00, -0.00, -1.00, 255.1, 25.7)">	</text><text xml:space="preserve" font-family="Consolas-Bold,Consolas" font-weight="bold" font-size="20.0" fill="#0264C0" transform="matrix(1.00, 0.00, -0.00, -1.00, 283.1, 25.7)">	</text><text xml:space="preserve" font-family="Consolas-Bold,Consolas" font-weight="bold" font-size="20.0" fill="#0264C0" transform="matrix(1.00, 0.00, -0.00, -1.00, 311.1, 25.7)">	</text><text xml:space="preserve" font-family="Consolas-Bold,Consolas" font-weight="bold" font-size="20.0" fill="#0264C0" transform="matrix(1.00, 0.00, -0.00, -1.00, 339.1, 25.7)">	</text><text xml:space="preserve" font-family="Consolas-Bold,Consolas" font-weight="bold" font-size="20.0" fill="#0264C0" transform="matrix(1.00, 0.00, -0.00, -1.00, 367.1, 25.7)">	</text><text xml:space="preserve" font-family="Consolas-Bold,Consolas" font-weight="bold" font-size="20.0" fill="#0264C0" transform="matrix(1.00, 0.00, -0.00, -1.00, 395.1, 25.7)">	</text><text xml:space="preserve" font-family="Consolas-Bold,Consolas" font-weight="bold" font-size="20.0" fill="#0264C0" transform="matrix(1.00, 0.00, -0.00, -1.00, 423.1, 25.7)">	</text><text xml:space="preserve" font-family="Consolas-Bold,Consolas" font-weight="bold" font-size="20.0" fill="#0264C0" transform="matrix(1.00, 0.00, -0.00, -1.00, 451.1, 25.7)">	</text><text xml:space="preserve" font-family="Consolas-Bold,Consolas" font-weight="bold" font-size="20.0" fill="#0264C0" transform="matrix(1.00, 0.00, -0.00, -1.00, 479.1, 25.7)">	</text><text xml:space="preserve" font-family="Consolas-Bold,Consolas" font-weight="bold" font-size="20.0" fill="#0264C0" transform="matrix(1.00, 0.00, -0.00, -1.00, 507.1, 25.7)">	</text><text xml:space="preserve" font-family="Consolas-Bold,Consolas" font-weight="bold" font-size="20.0" fill="#0264C0" transform="matrix(1.00, 0.00, -0.00, -1.00, 535.1, 25.7)">	</text><text xml:space="preserve" font-family="Consolas-Bold,Consolas" font-weight="bold" font-size="20.0" fill="#0264C0" transform="matrix(1.00, 0.00, -0.00, -1.00, 563.1, 25.7)">	</text><text xml:space="preserve" font-family="Consolas-Bold,Consolas" font-weight="bold" font-size="20.0" fill="#0264C0" transform="matrix(1.00, 0.00, -0.00, -1.00, 591.1, 25.7)">	</text><text xml:space="preserve" font-family="Consolas-Bold,Consolas" font-weight="bold" font-size="20.0" fill="#0264C0" transform="matrix(1.00, 0.00, -0.00, -1.00, 619.1, 25.7)">	</text><text xml:space="preserve" font-family="Consolas-Bold,Consolas" font-weight="bold" font-size="20.0" fill="#0264C0" transform="matrix(1.00, 0.00, -0.00, -1.00, 647.1, 25.7)">	</text><text xml:space="preserve" font-family="Consolas-Bold,Consolas" font-weight="bold" font-size="20.0" fill="#0264C0" transform="matrix(1.00, 0.00, -0.00, -1.00, 675.1, 25.7)">	</text><text xml:space="preserve" font-family="Consolas-Bold,Consolas" font-weight="bold" font-size="20.0" fill="#0264C0" transform="matrix(1.00, 0.00, -0.00, -1.00, 703.1, 25.7)">	</text><text xml:space="preserve" font-family="Consolas-Bold,Consolas" font-weight="bold" font-size="20.0" fill="#0264C0" transform="matrix(1.00, 0.00, -0.00, -1.00, 731.1, 25.7)">	</text><text xml:space="preserve" font-family="Consolas-Bold,Consolas" font-weight="bold" font-size="20.0" fill="#0264C0" transform="matrix(1.00, 0.00, -0.00, -1.00, 759.1, 25.7)">	</text><text xml:space="preserve" font-family="Consolas-Bold,Consolas" font-weight="bold" font-size="20.0" fill="#0264C0" transform="matrix(1.00, 0.00, -0.00, -1.00, 787.1, 25.7)">	</text><text xml:space="preserve" font-family="Consolas-Bold,Consolas" font-weight="bold" font-size="20.0" fill="#0264C0" transform="matrix(1.00, 0.00, -0.00, -1.00, 815.1, 25.7)">	</text><text xml:space="preserve" font-family="Consolas-Bold,Consolas" font-weight="bold" font-size="20.0" fill="#0264C0" transform="matrix(1.00, 0.00, -0.00, -1.00, 843.1, 25.7)">	</text><text xml:space="preserve" font-family="Consolas-Bold,Consolas" font-weight="bold" font-size="20.0" fill="#0264C0" transform="matrix(1.00, 0.00, -0.00, -1.00, 871.1, 25.7)">	</text><text xml:space="preserve" font-family="Consolas-Bold,Consolas" font-weight="bold" font-size="20.0" fill="#0264C0" transform="matrix(1.00, 0.00, -0.00, -1.00, 899.1, 25.7)">	</text><text xml:space="preserve" font-family="Consolas-Bold,Consolas" font-weight="bold" font-size="20.0" fill="#0264C0" transform="matrix(1.00, 0.00, -0.00, -1.00, 927.1, 25.7)">	</text><text xml:space="preserve" font-family="Consolas-Bold,Consolas" font-weight="bold" font-size="20.0" fill="#0264C0" transform="matrix(1.00, 0.00, -0.00, -1.00, 955.1, 25.7)">	</text><text xml:space="preserve" font-family="Consolas-Bold,Consolas" font-weight="bold" font-size="20.0" fill="#0264C0" transform="matrix(1.00, 0.00, -0.00, -1.00, 983.1, 25.7)">	</text><text xml:space="preserve" font-family="Consolas-Bold,Consolas" font-weight="bold" font-size="20.0" fill="#0264C0" transform="matrix(1.00, 0.00, -0.00, -1.00, 1011.1, 25.7)">	</text><text xml:space="preserve" font-family="Consolas-Bold,Consolas" font-weight="bold" font-size="20.0" fill="#0264C0" transform="matrix(1.00, 0.00, -0.00, -1.00, 1039.1, 25.7)">	</text><text xml:space="preserve" font-family="Consolas-Bold,Consolas" font-weight="bold" font-size="20.0" fill="#0264C0" transform="matrix(1.00, 0.00, -0.00, -1.00, 1067.1, 25.7)">	</text><text xml:space="preserve" font-family="Consolas-Bold,Consolas" font-weight="bold" font-size="20.0" fill="#0264C0" transform="matrix(1.00, 0.00, -0.00, -1.00, 1095.1, 25.7)">	</text><text xml:space="preserve" font-family="Consolas-Bold,Consolas" font-weight="bold" font-size="20.0" fill="#0264C0" transform="matrix(1.00, 0.00, -0.00, -1.00, 1123.1, 25.7)">	</text><text xml:space="preserve" font-family="Consolas-Bold,Consolas" font-weight="bold" font-size="20.0" fill="#0264C0" transform="matrix(1.00, 0.00, -0.00, -1.00, 1151.1, 25.7)">	</text><text xml:space="preserve" font-family="Consolas-Bold,Consolas" font-weight="bold" font-size="20.0" fill="#0264C0" transform="matrix(1.00, 0.00, -0.00, -1.00, 1179.1, 25.7)">	</text><text xml:space="preserve" font-family="Consolas-Bold,Consolas" font-weight="bold" font-size="20.0" fill="#0264C0" transform="matrix(1.00, 0.00, -0.00, -1.00, 1207.1, 25.7)">	</text><text xml:space="preserve" font-family="Consolas-Bold,Consolas" font-weight="bold" font-size="20.0" fill="#0264C0" transform="matrix(1.00, 0.00, -0.00, -1.00, 1235.1, 25.7)">	</text><text xml:space="preserve" font-family="Consolas-Bold,Consolas" font-weight="bold" font-size="20.0" fill="#0264C0" transform="matrix(1.00, 0.00, -0.00, -1.00, 1263.1, 25.7)">	</text><text xml:space="preserve" font-family="Consolas-Bold,Consolas" font-weight="bold" font-size="20.0" fill="#0264C0" transform="matrix(1.00, 0.00, -0.00, -1.00, 1291.1, 25.7)">	</text><text xml:space="preserve" font-family="Consolas-Bold,Consolas" font-weight="bold" font-size="20.0" fill="#0264C0" transform="matrix(1.00, 0.00, -0.00, -1.00, 1319.1, 25.7)">	</text><text xml:space="preserve" font-family="Consolas-Bold,Consolas" font-weight="bold" font-size="20.0" fill="#0264C0" transform="matrix(1.00, 0.00, -0.00, -1.00, 1347.1, 25.7)">	</text><text xml:space="preserve" font-family="Consolas-Bold,Consolas" font-weight="bold" font-size="20.0" fill="#0264C0" transform="matrix(1.00, 0.00, -0.00, -1.00, 1375.1, 25.7)">	</text><text xml:space="preserve" font-family="Consolas-Bold,Consolas" font-weight="bold" font-size="20.0" fill="#0264C0" transform="matrix(1.00, 0.00, -0.00, -1.00, 1403.1, 25.7)">	</text><text xml:space="preserve" font-family="Consolas-Bold,Consolas" font-weight="bold" font-size="20.0" fill="#0264C0" transform="matrix(1.00, 0.00, -0.00, -1.00, 1431.1, 25.7)">	</text><text xml:space="preserve" font-family="Consolas-Bold,Consolas" font-weight="bold" font-size="20.0" fill="#0264C0" transform="matrix(1.00, 0.00, -0.00, -1.00, 1459.1, 25.7)">	</text><text xml:space="preserve" font-family="Consolas-Bold,Consolas" font-weight="bold" font-size="20.0" fill="#0264C0" transform="matrix(1.00, 0.00, -0.00, -1.00, 1487.1, 25.7)">	</text><text xml:space="preserve" font-family="Consolas-Bold,Consolas" font-weight="bold" font-size="20.0" fill="#0264C0" transform="matrix(1.00, 0.00, -0.00, -1.00, 1515.1, 25.7)">	</text><text xml:space="preserve" font-family="Consolas-Bold,Consolas" font-weight="bold" font-size="20.0" fill="#0264C0" transform="matrix(1.00, 0.00, -0.00, -1.00, 1543.1, 25.7)">	</text><text xml:space="preserve" font-family="Consolas-Bold,Consolas" font-weight="bold" font-size="20.0" fill="#0264C0" transform="matrix(1.00, 0.00, -0.00, -1.00, 1571.1, 25.7)">	</text><text xml:space="preserve" font-family="Consolas-Bold,Consolas" font-weight="bold" font-size="20.0" fill="#0264C0" transform="matrix(1.00, 0.00, -0.00, -1.00, 1599.1, 25.7)">	</text><text xml:space="preserve" font-family="Consolas-Bold,Consolas" font-weight="bold" font-size="20.0" fill="#0264C0" transform="matrix(1.00, 0.00, -0.00, -1.00, 1627.1, 25.7)">	</text><text xml:space="preserve" font-family="Consolas-Bold,Consolas" font-weight="bold" font-size="20.0" fill="#0264C0" transform="matrix(1.00, 0.00, -0.00, -1.00, 1655.1, 25.7)">	</text><text xml:space="preserve" font-family="Consolas-Bold,Consolas" font-weight="bold" font-size="20.0" fill="#0264C0" transform="matrix(1.00, 0.00, -0.00, -1.00, 1683.1, 25.7)">	</text><text xml:space="preserve" font-family="Consolas-Bold,Consolas" font-weight="bold" font-size="20.0" fill="#0264C0" transform="matrix(1.00, 0.00, -0.00, -1.00, 1711.1, 25.7)">	</text><text xml:space="preserve" font-family="Consolas-Bold,Consolas" font-weight="bold" font-size="20.0" fill="#0264C0" transform="matrix(1.00, 0.00, -0.00, -1.00, 1739.1, 25.7)">	</text><text xml:space="preserve" font-family="Consolas-Bold,Consolas" font-weight="bold" font-size="20.0" fill="#0264C0" transform="matrix(1.00, 0.00, -0.00, -1.00, 1767.1, 25.7)">	</text><text xml:space="preserve" font-family="Consolas-Bold,Consolas" font-weight="bold" font-size="20.0" fill="#0264C0" transform="matrix(1.00, 0.00, -0.00, -1.00, 1795.1, 25.7)">	</text><text xml:space="preserve" font-family="Consolas-Bold,Consolas" font-weight="bold" font-size="20.0" fill="#0264C0" transform="matrix(1.00, 0.00, -0.00, -1.00, 1823.1, 25.7)">	</text><text xml:space="preserve" font-family="Consolas-Bold,Consolas" font-weight="bold" font-size="20.0" fill="#0264C0" transform="matrix(1.00, 0.00, -0.00, -1.00, 1851.1, 25.7)">	</text><text xml:space="preserve" font-family="Consolas-Bold,Consolas" font-weight="bold" font-size="20.0" fill="#0264C0" transform="matrix(1.00, 0.00, -0.00, -1.00, 1879.1, 25.7)">	</text><text xml:space="preserve" font-family="Consolas-Bold,Consolas" font-weight="bold" font-size="20.0" fill="#0264C0" transform="matrix(1.00, 0.00, -0.00, -1.00, 1907.1, 25.7)">	</text><text xml:space="preserve" font-family="Consolas-Bold,Consolas" font-weight="bold" font-size="20.0" fill="#0264C0" transform="matrix(1.00, 0.00, -0.00, -1.00, 1935.1, 25.7)">	</text><text xml:space="preserve" font-family="Consolas-Bold,Consolas" font-weight="bold" font-size="20.0" fill="#0264C0" transform="matrix(1.00, 0.00, -0.00, -1.00, 1963.1, 25.7)">	</text><text xml:space="preserve" font-family="Consolas-Bold,Consolas" font-weight="bold" font-size="20.0" fill="#0264C0" transform="matrix(1.00, 0.00, -0.00, -1.00, 1991.1, 25.7)">	</text><text xml:space="preserve" font-family="Consolas-Bold,Consolas" font-weight="bold" font-size="20.0" fill="#0264C0" transform="matrix(1.00, 0.00, -0.00, -1.00, 2019.1, 25.7)">	</text><text xml:space="preserve" font-family="Consolas-Bold,Consolas" font-weight="bold" font-size="20.0" fill="#0264C0" transform="matrix(1.00, 0.00, -0.00, -1.00, 2047.1, 25.7)">	</text><text xml:space="preserve" font-family="Consolas-Bold,Consolas" font-weight="bold" font-size="20.0" fill="#0264C0" transform="matrix(1.00, 0.00, -0.00, -1.00, 2075.1, 25.7)">	</text><text xml:space="preserve" font-family="Consolas-Bold,Consolas" font-weight="bold" font-size="20.0" fill="#0264C0" transform="matrix(1.00, 0.00, -0.00, -1.00, 929.9, 25.7)">@</text><text xml:space="preserve" font-family="Consolas-Bold,Consolas" font-weight="bold" font-size="20.0" fill="#0264C0" transform="matrix(1.00, 0.00, -0.00, -1.00, 940.8, 25.7)">f</text><text xml:space="preserve" font-family="Consolas-Bold,Consolas" font-weight="bold" font-size="20.0" fill="#0264C0" transform="matrix(1.00, 0.00, -0.00, -1.00, 951.8, 25.7)">a</text><text xml:space="preserve" font-family="Consolas-Bold,Consolas" font-weight="bold" font-size="20.0" fill="#0264C0" transform="matrix(1.00, 0.00, -0.00, -1.00, 962.8, 25.7)">c</text><text xml:space="preserve" font-family="Consolas-Bold,Consolas" font-weight="bold" font-size="20.0" fill="#0264C0" transform="matrix(1.00, 0.00, -0.00, -1.00, 973.8, 25.7)">i</text><text xml:space="preserve" font-family="Consolas-Bold,Consolas" font-weight="bold" font-size="20.0" fill="#0264C0" transform="matrix(1.00, 0.00, -0.00, -1.00, 984.8, 25.7)">n</text><text xml:space="preserve" font-family="Consolas-Bold,Consolas" font-weight="bold" font-size="20.0" fill="#0264C0" transform="matrix(1.00, 0.00, -0.00, -1.00, 995.8, 25.7)">e</text></g></svg>