<?xml version="1.0" encoding="UTF-8" standalone="no"?><svg xmlns="http://www.w3.org/2000/svg" xmlns:xlink="http://www.w3.org/1999/xlink" clip-rule="evenodd" stroke-miterlimit="10" viewBox="0 0 1024 768"><desc>SVG generated by Keynote</desc><defs></defs><g transform="matrix(1.00, 0.00, -0.00, -1.00, 0.0, 768.0)"><path d="M 0.0 768.0 L 1024.0 768.0 L 1024.0 0.0 L 0.0 0.0 Z M 0.0 768.0 " fill="#FEFFFF"></path><g><clipPath id="clip0x7fb4f8d52260"><path d="M -70.0 772.0 L 1094.0 772.0 L 1094.0 -4.0 L -70.0 -4.0 Z M -70.4 772.4 "></path></clipPath><g clip-path="url(#clip0x7fb4f8d52260)"><image xlink:href="../../EF9A6B70-337B-411D-AFD1-5C7159AC5126/assets/A4DC88A2BFFC6F74A667AAA7FCB78F79.png" width="1024.00" height="683.00" transform="matrix(1.14, 0.00, -0.00, -1.14, -70.4, 772.4)"></image></g></g><image xlink:href="../../C7BBE13A-6904-4C3D-8E46-062582B6D0F2/assets/723E03ACED9FED60C18ED7DD0769D8C3.png" width="526.00" height="198.00" transform="matrix(1.00, 0.00, -0.00, -1.00, 248.9, 396.0)"></image><path d="M 260.0 385.0 L 764.0 385.0 L 764.0 209.0 L 260.0 209.0 Z M 259.9 385.0 " fill="#DCDDE0"></path><text xml:space="preserve" font-family="Cervo-Regular,Cervo" font-size="66.0" fill="#3C3C3C" transform="matrix(1.00, 0.00, -0.00, -1.00, 355.0, 308.7)">E</text><text xml:space="preserve" font-family="Cervo-Regular,Cervo" font-size="66.0" fill="#3C3C3C" transform="matrix(1.00, 0.00, -0.00, -1.00, 388.1, 308.7)">s</text><text xml:space="preserve" font-family="Cervo-Regular,Cervo" font-size="66.0" fill="#3C3C3C" transform="matrix(1.00, 0.00, -0.00, -1.00, 420.6, 308.7)">t</text><text xml:space="preserve" font-family="Cervo-Regular,Cervo" font-size="66.0" fill="#3C3C3C" transform="matrix(1.00, 0.00, -0.00, -1.00, 446.3, 308.7)">r</text><text xml:space="preserve" font-family="Cervo-Regular,Cervo" font-size="66.0" fill="#3C3C3C" transform="matrix(1.00, 0.00, -0.00, -1.00, 473.4, 308.7)">u</text><text xml:space="preserve" font-family="Cervo-Regular,Cervo" font-size="66.0" fill="#3C3C3C" transform="matrix(1.00, 0.00, -0.00, -1.00, 509.5, 308.7)">c</text><text xml:space="preserve" font-family="Cervo-Regular,Cervo" font-size="66.0" fill="#3C3C3C" transform="matrix(1.00, 0.00, -0.00, -1.00, 544.9, 308.7)">t</text><text xml:space="preserve" font-family="Cervo-Regular,Cervo" font-size="66.0" fill="#3C3C3C" transform="matrix(1.00, 0.00, -0.00, -1.00, 570.6, 308.7)">u</text><text xml:space="preserve" font-family="Cervo-Regular,Cervo" font-size="66.0" fill="#3C3C3C" transform="matrix(1.00, 0.00, -0.00, -1.00, 606.7, 308.7)">r</text><text xml:space="preserve" font-family="Cervo-Regular,Cervo" font-size="66.0" fill="#3C3C3C" transform="matrix(1.00, 0.00, -0.00, -1.00, 633.2, 308.7)">a</text><text xml:space="preserve" font-family="Cervo-Regular,Cervo" font-size="66.0" fill="#3C3C3C" transform="matrix(1.00, 0.00, -0.00, -1.00, 669.0, 308.7)"> </text><text xml:space="preserve" font-family="Cervo-Regular,Cervo" font-size="66.0" fill="#3C3C3C" transform="matrix(1.00, 0.00, -0.00, -1.00, 314.9, 243.9)">d</text><text xml:space="preserve" font-family="Cervo-Regular,Cervo" font-size="66.0" fill="#3C3C3C" transform="matrix(1.00, 0.00, -0.00, -1.00, 350.7, 243.9)">e</text><text xml:space="preserve" font-family="Cervo-Regular,Cervo" font-size="66.0" fill="#3C3C3C" transform="matrix(1.00, 0.00, -0.00, -1.00, 386.3, 243.9)"> </text><text xml:space="preserve" font-family="Cervo-Regular,Cervo" font-size="66.0" fill="#3C3C3C" transform="matrix(1.00, 0.00, -0.00, -1.00, 410.1, 243.9)">p</text><text xml:space="preserve" font-family="Cervo-Regular,Cervo" font-size="66.0" fill="#3C3C3C" transform="matrix(1.00, 0.00, -0.00, -1.00, 445.9, 243.9)">r</text><text xml:space="preserve" font-family="Cervo-Regular,Cervo" font-size="66.0" fill="#3C3C3C" transform="matrix(1.00, 0.00, -0.00, -1.00, 472.3, 243.9)">o</text><text xml:space="preserve" font-family="Cervo-Regular,Cervo" font-size="66.0" fill="#3C3C3C" transform="matrix(1.00, 0.00, -0.00, -1.00, 508.0, 243.9)">d</text><text xml:space="preserve" font-family="Cervo-Regular,Cervo" font-size="66.0" fill="#3C3C3C" transform="matrix(1.00, 0.00, -0.00, -1.00, 543.7, 243.9)">u</text><text xml:space="preserve" font-family="Cervo-Regular,Cervo" font-size="66.0" fill="#3C3C3C" transform="matrix(1.00, 0.00, -0.00, -1.00, 579.8, 243.9)">c</text><text xml:space="preserve" font-family="Cervo-Regular,Cervo" font-size="66.0" fill="#3C3C3C" transform="matrix(1.00, 0.00, -0.00, -1.00, 615.2, 243.9)">t</text><text xml:space="preserve" font-family="Cervo-Regular,Cervo" font-size="66.0" fill="#3C3C3C" transform="matrix(1.00, 0.00, -0.00, -1.00, 641.0, 243.9)">o</text><text xml:space="preserve" font-family="Cervo-Regular,Cervo" font-size="66.0" fill="#3C3C3C" transform="matrix(1.00, 0.00, -0.00, -1.00, 676.6, 243.9)">s</text></g></svg>