<?xml version="1.0" encoding="UTF-8" standalone="no"?><svg xmlns="http://www.w3.org/2000/svg" xmlns:xlink="http://www.w3.org/1999/xlink" clip-rule="evenodd" stroke-miterlimit="10" viewBox="0 0 1024 768"><desc>SVG generated by Keynote</desc><defs></defs><g transform="matrix(1.00, 0.00, -0.00, -1.00, 0.0, 768.0)"><path d="M 0.0 768.0 L 1024.0 768.0 L 1024.0 0.0 L 0.0 0.0 Z M 0.0 768.0 " fill="#FEFFFF"></path><path d="M 0.0 677.0 L 1024.0 677.0 L 1024.0 59.0 L 0.0 59.0 Z M 0.2 677.3 " fill="#F2F2F2"></path><path d="M 0.1 0.1 L 1040.1 0.1 " fill="none" stroke="#F38F18" stroke-width="1.00" transform="matrix(1.00, 0.00, 0.00, -1.00, -8.1, 676.6)"></path><path d="M 0.1 0.1 L 1040.1 0.1 " fill="none" stroke="#F38F18" stroke-width="1.00" transform="matrix(1.00, 0.00, 0.00, -1.00, -8.1, 59.6)"></path><image xlink:href="../../0099E750-43F4-4A1E-80C1-2076B752852F/assets/55340D757A15DCE0FDDCCB8968979DD4.png" width="426.00" height="426.00" transform="matrix(0.16, 0.00, -0.00, -0.16, 13.0, 757.7)"></image><text xml:space="preserve" font-family="Cervo-Medium,Cervo" font-size="40.0" fill="#0264C0" transform="matrix(1.00, 0.00, -0.00, -1.00, 800.9, 720.6)">S</text><text xml:space="preserve" font-family="Cervo-Medium,Cervo" font-size="40.0" fill="#0264C0" transform="matrix(1.00, 0.00, -0.00, -1.00, 821.5, 720.6)">t</text><text xml:space="preserve" font-family="Cervo-Medium,Cervo" font-size="40.0" fill="#0264C0" transform="matrix(1.00, 0.00, -0.00, -1.00, 837.3, 720.6)">o</text><text xml:space="preserve" font-family="Cervo-Medium,Cervo" font-size="40.0" fill="#0264C0" transform="matrix(1.00, 0.00, -0.00, -1.00, 858.5, 720.6)">r</text><text xml:space="preserve" font-family="Cervo-Medium,Cervo" font-size="40.0" fill="#0264C0" transform="matrix(1.00, 0.00, -0.00, -1.00, 874.8, 720.6)">e</text><text xml:space="preserve" font-family="Cervo-Medium,Cervo" font-size="40.0" fill="#0264C0" transform="matrix(1.00, 0.00, -0.00, -1.00, 896.0, 720.6)"> </text><text xml:space="preserve" font-family="Cervo-Medium,Cervo" font-size="40.0" fill="#0264C0" transform="matrix(1.00, 0.00, -0.00, -1.00, 910.0, 720.6)">T</text><text xml:space="preserve" font-family="Cervo-Medium,Cervo" font-size="40.0" fill="#0264C0" transform="matrix(1.00, 0.00, -0.00, -1.00, 929.2, 720.6)">y</text><text xml:space="preserve" font-family="Cervo-Medium,Cervo" font-size="40.0" fill="#0264C0" transform="matrix(1.00, 0.00, -0.00, -1.00, 949.3, 720.6)">p</text><text xml:space="preserve" font-family="Cervo-Medium,Cervo" font-size="40.0" fill="#0264C0" transform="matrix(1.00, 0.00, -0.00, -1.00, 971.2, 720.6)">e</text><text xml:space="preserve" font-family="Cervo-Medium,Cervo" font-size="40.0" fill="#0264C0" transform="matrix(1.00, 0.00, -0.00, -1.00, 992.4, 720.6)">s</text><text xml:space="preserve" font-family="Cervo-Medium,Cervo" font-size="40.0" fill="#0264C0" transform="matrix(1.00, 0.00, -0.00, -1.00, 1011.7, 720.6)"> </text><text xml:space="preserve" font-family="Cervo-Medium,Cervo" font-size="20.0" fill="#BD5A0C" transform="matrix(1.00, 0.00, -0.00, -1.00, 384.3, 694.5)">H</text><text xml:space="preserve" font-family="Cervo-Medium,Cervo" font-size="20.0" fill="#BD5A0C" transform="matrix(1.00, 0.00, -0.00, -1.00, 395.3, 694.5)">o</text><text xml:space="preserve" font-family="Cervo-Medium,Cervo" font-size="20.0" fill="#BD5A0C" transform="matrix(1.00, 0.00, -0.00, -1.00, 405.9, 694.5)">m</text><text xml:space="preserve" font-family="Cervo-Medium,Cervo" font-size="20.0" fill="#BD5A0C" transform="matrix(1.00, 0.00, -0.00, -1.00, 421.1, 694.5)">e</text><text xml:space="preserve" font-family="Cervo-Medium,Cervo" font-size="20.0" fill="#BD5A0C" transform="matrix(1.00, 0.00, -0.00, -1.00, 431.7, 694.5)"> </text><text xml:space="preserve" font-family="Cervo-Medium,Cervo" font-size="20.0" fill="#BD5A0C" transform="matrix(1.00, 0.00, -0.00, -1.00, 438.7, 694.5)">&gt;</text><text xml:space="preserve" font-family="Cervo-Medium,Cervo" font-size="20.0" fill="#BD5A0C" transform="matrix(1.00, 0.00, -0.00, -1.00, 447.0, 694.5)">&gt;</text><text xml:space="preserve" font-family="Cervo-Medium,Cervo" font-size="20.0" fill="#BD5A0C" transform="matrix(1.00, 0.00, -0.00, -1.00, 455.4, 694.5)"> </text><text xml:space="preserve" font-family="Cervo-Medium,Cervo" font-size="20.0" fill="#BD5A0C" transform="matrix(1.00, 0.00, -0.00, -1.00, 462.4, 694.5)">A</text><text xml:space="preserve" font-family="Cervo-Medium,Cervo" font-size="20.0" fill="#BD5A0C" transform="matrix(1.00, 0.00, -0.00, -1.00, 473.6, 694.5)">d</text><text xml:space="preserve" font-family="Cervo-Medium,Cervo" font-size="20.0" fill="#BD5A0C" transform="matrix(1.00, 0.00, -0.00, -1.00, 484.6, 694.5)">m</text><text xml:space="preserve" font-family="Cervo-Medium,Cervo" font-size="20.0" fill="#BD5A0C" transform="matrix(1.00, 0.00, -0.00, -1.00, 499.8, 694.5)">i</text><text xml:space="preserve" font-family="Cervo-Medium,Cervo" font-size="20.0" fill="#BD5A0C" transform="matrix(1.00, 0.00, -0.00, -1.00, 506.8, 694.5)">n</text><text xml:space="preserve" font-family="Cervo-Medium,Cervo" font-size="20.0" fill="#BD5A0C" transform="matrix(1.00, 0.00, -0.00, -1.00, 517.9, 694.5)">i</text><text xml:space="preserve" font-family="Cervo-Medium,Cervo" font-size="20.0" fill="#BD5A0C" transform="matrix(1.00, 0.00, -0.00, -1.00, 524.9, 694.5)">s</text><text xml:space="preserve" font-family="Cervo-Medium,Cervo" font-size="20.0" fill="#BD5A0C" transform="matrix(1.00, 0.00, -0.00, -1.00, 534.5, 694.5)">t</text><text xml:space="preserve" font-family="Cervo-Medium,Cervo" font-size="20.0" fill="#BD5A0C" transform="matrix(1.00, 0.00, -0.00, -1.00, 542.4, 694.5)">r</text><text xml:space="preserve" font-family="Cervo-Medium,Cervo" font-size="20.0" fill="#BD5A0C" transform="matrix(1.00, 0.00, -0.00, -1.00, 550.5, 694.5)">a</text><text xml:space="preserve" font-family="Cervo-Medium,Cervo" font-size="20.0" fill="#BD5A0C" transform="matrix(1.00, 0.00, -0.00, -1.00, 561.2, 694.5)">t</text><text xml:space="preserve" font-family="Cervo-Medium,Cervo" font-size="20.0" fill="#BD5A0C" transform="matrix(1.00, 0.00, -0.00, -1.00, 569.1, 694.5)">i</text><text xml:space="preserve" font-family="Cervo-Medium,Cervo" font-size="20.0" fill="#BD5A0C" transform="matrix(1.00, 0.00, -0.00, -1.00, 576.1, 694.5)">o</text><text xml:space="preserve" font-family="Cervo-Medium,Cervo" font-size="20.0" fill="#BD5A0C" transform="matrix(1.00, 0.00, -0.00, -1.00, 586.7, 694.5)">n</text><text xml:space="preserve" font-family="Cervo-Medium,Cervo" font-size="20.0" fill="#BD5A0C" transform="matrix(1.00, 0.00, -0.00, -1.00, 597.7, 694.5)"> </text><text xml:space="preserve" font-family="Cervo-Medium,Cervo" font-size="20.0" fill="#BD5A0C" transform="matrix(1.00, 0.00, -0.00, -1.00, 604.7, 694.5)">&gt;</text><text xml:space="preserve" font-family="Cervo-Medium,Cervo" font-size="20.0" fill="#BD5A0C" transform="matrix(1.00, 0.00, -0.00, -1.00, 613.1, 694.5)">&gt;</text><text xml:space="preserve" font-family="Cervo-Medium,Cervo" font-size="20.0" fill="#BD5A0C" transform="matrix(1.00, 0.00, -0.00, -1.00, 621.4, 694.5)"> </text><text xml:space="preserve" font-family="Cervo-Medium,Cervo" font-size="20.0" fill="#BD5A0C" transform="matrix(1.00, 0.00, -0.00, -1.00, 628.4, 694.5)">C</text><text xml:space="preserve" font-family="Cervo-Medium,Cervo" font-size="20.0" fill="#BD5A0C" transform="matrix(1.00, 0.00, -0.00, -1.00, 639.3, 694.5)">o</text><text xml:space="preserve" font-family="Cervo-Medium,Cervo" font-size="20.0" fill="#BD5A0C" transform="matrix(1.00, 0.00, -0.00, -1.00, 649.9, 694.5)">m</text><text xml:space="preserve" font-family="Cervo-Medium,Cervo" font-size="20.0" fill="#BD5A0C" transform="matrix(1.00, 0.00, -0.00, -1.00, 665.2, 694.5)">m</text><text xml:space="preserve" font-family="Cervo-Medium,Cervo" font-size="20.0" fill="#BD5A0C" transform="matrix(1.00, 0.00, -0.00, -1.00, 680.4, 694.5)">e</text><text xml:space="preserve" font-family="Cervo-Medium,Cervo" font-size="20.0" fill="#BD5A0C" transform="matrix(1.00, 0.00, -0.00, -1.00, 691.0, 694.5)">r</text><text xml:space="preserve" font-family="Cervo-Medium,Cervo" font-size="20.0" fill="#BD5A0C" transform="matrix(1.00, 0.00, -0.00, -1.00, 699.1, 694.5)">c</text><text xml:space="preserve" font-family="Cervo-Medium,Cervo" font-size="20.0" fill="#BD5A0C" transform="matrix(1.00, 0.00, -0.00, -1.00, 709.6, 694.5)">e</text><text xml:space="preserve" font-family="Cervo-Medium,Cervo" font-size="20.0" fill="#BD5A0C" transform="matrix(1.00, 0.00, -0.00, -1.00, 720.2, 694.5)"> </text><text xml:space="preserve" font-family="Cervo-Medium,Cervo" font-size="20.0" fill="#BD5A0C" transform="matrix(1.00, 0.00, -0.00, -1.00, 727.2, 694.5)">&gt;</text><text xml:space="preserve" font-family="Cervo-Medium,Cervo" font-size="20.0" fill="#BD5A0C" transform="matrix(1.00, 0.00, -0.00, -1.00, 735.6, 694.5)">&gt;</text><text xml:space="preserve" font-family="Cervo-Medium,Cervo" font-size="20.0" fill="#BD5A0C" transform="matrix(1.00, 0.00, -0.00, -1.00, 744.0, 694.5)"> </text><text xml:space="preserve" font-family="Cervo-Medium,Cervo" font-size="20.0" fill="#BD5A0C" transform="matrix(1.00, 0.00, -0.00, -1.00, 751.0, 694.5)">C</text><text xml:space="preserve" font-family="Cervo-Medium,Cervo" font-size="20.0" fill="#BD5A0C" transform="matrix(1.00, 0.00, -0.00, -1.00, 761.9, 694.5)">o</text><text xml:space="preserve" font-family="Cervo-Medium,Cervo" font-size="20.0" fill="#BD5A0C" transform="matrix(1.00, 0.00, -0.00, -1.00, 772.5, 694.5)">n</text><text xml:space="preserve" font-family="Cervo-Medium,Cervo" font-size="20.0" fill="#BD5A0C" transform="matrix(1.00, 0.00, -0.00, -1.00, 783.5, 694.5)">f</text><text xml:space="preserve" font-family="Cervo-Medium,Cervo" font-size="20.0" fill="#BD5A0C" transform="matrix(1.00, 0.00, -0.00, -1.00, 791.1, 694.5)">i</text><text xml:space="preserve" font-family="Cervo-Medium,Cervo" font-size="20.0" fill="#BD5A0C" transform="matrix(1.00, 0.00, -0.00, -1.00, 798.1, 694.5)">g</text><text xml:space="preserve" font-family="Cervo-Medium,Cervo" font-size="20.0" fill="#BD5A0C" transform="matrix(1.00, 0.00, -0.00, -1.00, 809.2, 694.5)">u</text><text xml:space="preserve" font-family="Cervo-Medium,Cervo" font-size="20.0" fill="#BD5A0C" transform="matrix(1.00, 0.00, -0.00, -1.00, 820.2, 694.5)">r</text><text xml:space="preserve" font-family="Cervo-Medium,Cervo" font-size="20.0" fill="#BD5A0C" transform="matrix(1.00, 0.00, -0.00, -1.00, 828.4, 694.5)">a</text><text xml:space="preserve" font-family="Cervo-Medium,Cervo" font-size="20.0" fill="#BD5A0C" transform="matrix(1.00, 0.00, -0.00, -1.00, 839.0, 694.5)">t</text><text xml:space="preserve" font-family="Cervo-Medium,Cervo" font-size="20.0" fill="#BD5A0C" transform="matrix(1.00, 0.00, -0.00, -1.00, 846.9, 694.5)">i</text><text xml:space="preserve" font-family="Cervo-Medium,Cervo" font-size="20.0" fill="#BD5A0C" transform="matrix(1.00, 0.00, -0.00, -1.00, 853.9, 694.5)">o</text><text xml:space="preserve" font-family="Cervo-Medium,Cervo" font-size="20.0" fill="#BD5A0C" transform="matrix(1.00, 0.00, -0.00, -1.00, 864.5, 694.5)">n</text><text xml:space="preserve" font-family="Cervo-Medium,Cervo" font-size="20.0" fill="#BD5A0C" transform="matrix(1.00, 0.00, -0.00, -1.00, 875.5, 694.5)"> </text><text xml:space="preserve" font-family="Cervo-Medium,Cervo" font-size="20.0" fill="#BD5A0C" transform="matrix(1.00, 0.00, -0.00, -1.00, 882.5, 694.5)">&gt;</text><text xml:space="preserve" font-family="Cervo-Medium,Cervo" font-size="20.0" fill="#BD5A0C" transform="matrix(1.00, 0.00, -0.00, -1.00, 890.9, 694.5)">&gt;</text><text xml:space="preserve" font-family="Cervo-Medium,Cervo" font-size="20.0" fill="#BD5A0C" transform="matrix(1.00, 0.00, -0.00, -1.00, 899.3, 694.5)"> </text><text xml:space="preserve" font-family="Cervo-Medium,Cervo" font-size="20.0" fill="#BD5A0C" transform="matrix(1.00, 0.00, -0.00, -1.00, 906.3, 694.5)">S</text><text xml:space="preserve" font-family="Cervo-Medium,Cervo" font-size="20.0" fill="#BD5A0C" transform="matrix(1.00, 0.00, -0.00, -1.00, 916.6, 694.5)">t</text><text xml:space="preserve" font-family="Cervo-Medium,Cervo" font-size="20.0" fill="#BD5A0C" transform="matrix(1.00, 0.00, -0.00, -1.00, 924.5, 694.5)">o</text><text xml:space="preserve" font-family="Cervo-Medium,Cervo" font-size="20.0" fill="#BD5A0C" transform="matrix(1.00, 0.00, -0.00, -1.00, 935.1, 694.5)">r</text><text xml:space="preserve" font-family="Cervo-Medium,Cervo" font-size="20.0" fill="#BD5A0C" transform="matrix(1.00, 0.00, -0.00, -1.00, 943.2, 694.5)">e</text><text xml:space="preserve" font-family="Cervo-Medium,Cervo" font-size="20.0" fill="#BD5A0C" transform="matrix(1.00, 0.00, -0.00, -1.00, 953.8, 694.5)"> </text><text xml:space="preserve" font-family="Cervo-Medium,Cervo" font-size="20.0" fill="#BD5A0C" transform="matrix(1.00, 0.00, -0.00, -1.00, 960.8, 694.5)">T</text><text xml:space="preserve" font-family="Cervo-Medium,Cervo" font-size="20.0" fill="#BD5A0C" transform="matrix(1.00, 0.00, -0.00, -1.00, 970.4, 694.5)">y</text><text xml:space="preserve" font-family="Cervo-Medium,Cervo" font-size="20.0" fill="#BD5A0C" transform="matrix(1.00, 0.00, -0.00, -1.00, 980.5, 694.5)">p</text><text xml:space="preserve" font-family="Cervo-Medium,Cervo" font-size="20.0" fill="#BD5A0C" transform="matrix(1.00, 0.00, -0.00, -1.00, 991.4, 694.5)">e</text><text xml:space="preserve" font-family="Cervo-Medium,Cervo" font-size="20.0" fill="#BD5A0C" transform="matrix(1.00, 0.00, -0.00, -1.00, 1002.0, 694.5)">s</text><text xml:space="preserve" font-family="Cervo-Medium,Cervo" font-size="30.0" fill="#3C3C3C" transform="matrix(1.00, 0.00, -0.00, -1.00, 23.8, 169.3)">•</text><text xml:space="preserve" font-family="Cervo-Medium,Cervo" font-size="40.0" fill="#3C3C3C" transform="matrix(1.00, 0.00, -0.00, -1.00, 58.8, 166.3)">M</text><text xml:space="preserve" font-family="Cervo-Medium,Cervo" font-size="40.0" fill="#3C3C3C" transform="matrix(1.00, 0.00, -0.00, -1.00, 81.3, 166.3)">ú</text><text xml:space="preserve" font-family="Cervo-Medium,Cervo" font-size="40.0" fill="#3C3C3C" transform="matrix(1.00, 0.00, -0.00, -1.00, 99.8, 166.3)">l</text><text xml:space="preserve" font-family="Cervo-Medium,Cervo" font-size="40.0" fill="#3C3C3C" transform="matrix(1.00, 0.00, -0.00, -1.00, 111.8, 166.3)">t</text><text xml:space="preserve" font-family="Cervo-Medium,Cervo" font-size="40.0" fill="#3C3C3C" transform="matrix(1.00, 0.00, -0.00, -1.00, 124.0, 166.3)">i</text><text xml:space="preserve" font-family="Cervo-Medium,Cervo" font-size="40.0" fill="#3C3C3C" transform="matrix(1.00, 0.00, -0.00, -1.00, 134.4, 166.3)">p</text><text xml:space="preserve" font-family="Cervo-Medium,Cervo" font-size="40.0" fill="#3C3C3C" transform="matrix(1.00, 0.00, -0.00, -1.00, 152.7, 166.3)">l</text><text xml:space="preserve" font-family="Cervo-Medium,Cervo" font-size="40.0" fill="#3C3C3C" transform="matrix(1.00, 0.00, -0.00, -1.00, 164.6, 166.3)">e</text><text xml:space="preserve" font-family="Cervo-Medium,Cervo" font-size="40.0" fill="#3C3C3C" transform="matrix(1.00, 0.00, -0.00, -1.00, 182.2, 166.3)">s</text><text xml:space="preserve" font-family="Cervo-Medium,Cervo" font-size="40.0" fill="#3C3C3C" transform="matrix(1.00, 0.00, -0.00, -1.00, 197.9, 166.3)"> </text><text xml:space="preserve" font-family="Cervo-Medium,Cervo" font-size="40.0" fill="#3C3C3C" transform="matrix(1.00, 0.00, -0.00, -1.00, 208.3, 166.3)">t</text><text xml:space="preserve" font-family="Cervo-Medium,Cervo" font-size="40.0" fill="#3C3C3C" transform="matrix(1.00, 0.00, -0.00, -1.00, 220.5, 166.3)">i</text><text xml:space="preserve" font-family="Cervo-Medium,Cervo" font-size="40.0" fill="#3C3C3C" transform="matrix(1.00, 0.00, -0.00, -1.00, 230.9, 166.3)">p</text><text xml:space="preserve" font-family="Cervo-Medium,Cervo" font-size="40.0" fill="#3C3C3C" transform="matrix(1.00, 0.00, -0.00, -1.00, 249.2, 166.3)">o</text><text xml:space="preserve" font-family="Cervo-Medium,Cervo" font-size="40.0" fill="#3C3C3C" transform="matrix(1.00, 0.00, -0.00, -1.00, 266.8, 166.3)">s</text><text xml:space="preserve" font-family="Cervo-Medium,Cervo" font-size="40.0" fill="#3C3C3C" transform="matrix(1.00, 0.00, -0.00, -1.00, 282.5, 166.3)"> </text><text xml:space="preserve" font-family="Cervo-Medium,Cervo" font-size="30.0" fill="#3C3C3C" transform="matrix(1.00, 0.00, -0.00, -1.00, 23.8, 90.3)">•</text><text xml:space="preserve" font-family="Cervo-Medium,Cervo" font-size="40.0" fill="#3C3C3C" transform="matrix(1.00, 0.00, -0.00, -1.00, 58.8, 87.3)">D</text><text xml:space="preserve" font-family="Cervo-Medium,Cervo" font-size="40.0" fill="#3C3C3C" transform="matrix(1.00, 0.00, -0.00, -1.00, 76.8, 87.3)">e</text><text xml:space="preserve" font-family="Cervo-Medium,Cervo" font-size="40.0" fill="#3C3C3C" transform="matrix(1.00, 0.00, -0.00, -1.00, 94.4, 87.3)">s</text><text xml:space="preserve" font-family="Cervo-Medium,Cervo" font-size="40.0" fill="#3C3C3C" transform="matrix(1.00, 0.00, -0.00, -1.00, 110.1, 87.3)">d</text><text xml:space="preserve" font-family="Cervo-Medium,Cervo" font-size="40.0" fill="#3C3C3C" transform="matrix(1.00, 0.00, -0.00, -1.00, 128.4, 87.3)">e</text><text xml:space="preserve" font-family="Cervo-Medium,Cervo" font-size="40.0" fill="#3C3C3C" transform="matrix(1.00, 0.00, -0.00, -1.00, 146.0, 87.3)"> </text><text xml:space="preserve" font-family="Cervo-Medium,Cervo" font-size="40.0" fill="#3C3C3C" transform="matrix(1.00, 0.00, -0.00, -1.00, 156.4, 87.3)">ú</text><text xml:space="preserve" font-family="Cervo-Medium,Cervo" font-size="40.0" fill="#3C3C3C" transform="matrix(1.00, 0.00, -0.00, -1.00, 175.0, 87.3)">n</text><text xml:space="preserve" font-family="Cervo-Medium,Cervo" font-size="40.0" fill="#3C3C3C" transform="matrix(1.00, 0.00, -0.00, -1.00, 193.5, 87.3)">i</text><text xml:space="preserve" font-family="Cervo-Medium,Cervo" font-size="40.0" fill="#3C3C3C" transform="matrix(1.00, 0.00, -0.00, -1.00, 203.9, 87.3)">c</text><text xml:space="preserve" font-family="Cervo-Medium,Cervo" font-size="40.0" fill="#3C3C3C" transform="matrix(1.00, 0.00, -0.00, -1.00, 221.3, 87.3)">a</text><text xml:space="preserve" font-family="Cervo-Medium,Cervo" font-size="40.0" fill="#3C3C3C" transform="matrix(1.00, 0.00, -0.00, -1.00, 239.0, 87.3)">s</text><text xml:space="preserve" font-family="Cervo-Medium,Cervo" font-size="40.0" fill="#3C3C3C" transform="matrix(1.00, 0.00, -0.00, -1.00, 254.7, 87.3)"> </text><text xml:space="preserve" font-family="Cervo-Medium,Cervo" font-size="40.0" fill="#3C3C3C" transform="matrix(1.00, 0.00, -0.00, -1.00, 265.1, 87.3)">a</text><text xml:space="preserve" font-family="Cervo-Medium,Cervo" font-size="40.0" fill="#3C3C3C" transform="matrix(1.00, 0.00, -0.00, -1.00, 282.8, 87.3)"> </text><text xml:space="preserve" font-family="Cervo-Medium,Cervo" font-size="40.0" fill="#3C3C3C" transform="matrix(1.00, 0.00, -0.00, -1.00, 293.2, 87.3)">m</text><text xml:space="preserve" font-family="Cervo-Medium,Cervo" font-size="40.0" fill="#3C3C3C" transform="matrix(1.00, 0.00, -0.00, -1.00, 320.0, 87.3)">ú</text><text xml:space="preserve" font-family="Cervo-Medium,Cervo" font-size="40.0" fill="#3C3C3C" transform="matrix(1.00, 0.00, -0.00, -1.00, 338.5, 87.3)">l</text><text xml:space="preserve" font-family="Cervo-Medium,Cervo" font-size="40.0" fill="#3C3C3C" transform="matrix(1.00, 0.00, -0.00, -1.00, 350.5, 87.3)">t</text><text xml:space="preserve" font-family="Cervo-Medium,Cervo" font-size="40.0" fill="#3C3C3C" transform="matrix(1.00, 0.00, -0.00, -1.00, 362.6, 87.3)">i</text><text xml:space="preserve" font-family="Cervo-Medium,Cervo" font-size="40.0" fill="#3C3C3C" transform="matrix(1.00, 0.00, -0.00, -1.00, 373.0, 87.3)">p</text><text xml:space="preserve" font-family="Cervo-Medium,Cervo" font-size="40.0" fill="#3C3C3C" transform="matrix(1.00, 0.00, -0.00, -1.00, 391.4, 87.3)">l</text><text xml:space="preserve" font-family="Cervo-Medium,Cervo" font-size="40.0" fill="#3C3C3C" transform="matrix(1.00, 0.00, -0.00, -1.00, 403.3, 87.3)">e</text><text xml:space="preserve" font-family="Cervo-Medium,Cervo" font-size="40.0" fill="#3C3C3C" transform="matrix(1.00, 0.00, -0.00, -1.00, 420.9, 87.3)">s</text><text xml:space="preserve" font-family="Cervo-Medium,Cervo" font-size="40.0" fill="#3C3C3C" transform="matrix(1.00, 0.00, -0.00, -1.00, 436.6, 87.3)"> </text><text xml:space="preserve" font-family="Cervo-Medium,Cervo" font-size="40.0" fill="#3C3C3C" transform="matrix(1.00, 0.00, -0.00, -1.00, 447.0, 87.3)">c</text><text xml:space="preserve" font-family="Cervo-Medium,Cervo" font-size="40.0" fill="#3C3C3C" transform="matrix(1.00, 0.00, -0.00, -1.00, 464.4, 87.3)">o</text><text xml:space="preserve" font-family="Cervo-Medium,Cervo" font-size="40.0" fill="#3C3C3C" transform="matrix(1.00, 0.00, -0.00, -1.00, 482.0, 87.3)">m</text><text xml:space="preserve" font-family="Cervo-Medium,Cervo" font-size="40.0" fill="#3C3C3C" transform="matrix(1.00, 0.00, -0.00, -1.00, 508.9, 87.3)">o</text><text xml:space="preserve" font-family="Cervo-Medium,Cervo" font-size="40.0" fill="#3C3C3C" transform="matrix(1.00, 0.00, -0.00, -1.00, 526.5, 87.3)"> </text><text xml:space="preserve" font-family="Cervo-Medium,Cervo" font-size="40.0" fill="#3C3C3C" transform="matrix(1.00, 0.00, -0.00, -1.00, 536.9, 87.3)">A</text><text xml:space="preserve" font-family="Cervo-Medium,Cervo" font-size="40.0" fill="#3C3C3C" transform="matrix(1.00, 0.00, -0.00, -1.00, 555.8, 87.3)">m</text><text xml:space="preserve" font-family="Cervo-Medium,Cervo" font-size="40.0" fill="#3C3C3C" transform="matrix(1.00, 0.00, -0.00, -1.00, 582.6, 87.3)">a</text><text xml:space="preserve" font-family="Cervo-Medium,Cervo" font-size="40.0" fill="#3C3C3C" transform="matrix(1.00, 0.00, -0.00, -1.00, 600.3, 87.3)">z</text><text xml:space="preserve" font-family="Cervo-Medium,Cervo" font-size="40.0" fill="#3C3C3C" transform="matrix(1.00, 0.00, -0.00, -1.00, 615.4, 87.3)">o</text><text xml:space="preserve" font-family="Cervo-Medium,Cervo" font-size="40.0" fill="#3C3C3C" transform="matrix(1.00, 0.00, -0.00, -1.00, 633.0, 87.3)">n</text><text xml:space="preserve" font-family="Cervo-Medium,Cervo" font-size="40.0" fill="#3C3C3C" transform="matrix(1.00, 0.00, -0.00, -1.00, 651.5, 87.3)"> </text><text xml:space="preserve" font-family="Cervo-Medium,Cervo" font-size="40.0" fill="#3C3C3C" transform="matrix(1.00, 0.00, -0.00, -1.00, 661.9, 87.3)">o</text><text xml:space="preserve" font-family="Cervo-Medium,Cervo" font-size="40.0" fill="#3C3C3C" transform="matrix(1.00, 0.00, -0.00, -1.00, 679.5, 87.3)"> </text><text xml:space="preserve" font-family="Cervo-Medium,Cervo" font-size="40.0" fill="#3C3C3C" transform="matrix(1.00, 0.00, -0.00, -1.00, 689.9, 87.3)">e</text><text xml:space="preserve" font-family="Cervo-Medium,Cervo" font-size="40.0" fill="#3C3C3C" transform="matrix(1.00, 0.00, -0.00, -1.00, 707.5, 87.3)">B</text><text xml:space="preserve" font-family="Cervo-Medium,Cervo" font-size="40.0" fill="#3C3C3C" transform="matrix(1.00, 0.00, -0.00, -1.00, 725.5, 87.3)">a</text><text xml:space="preserve" font-family="Cervo-Medium,Cervo" font-size="40.0" fill="#3C3C3C" transform="matrix(1.00, 0.00, -0.00, -1.00, 743.2, 87.3)">y</text><text xml:space="preserve" font-family="Cervo-Medium,Cervo" font-size="40.0" fill="#3C3C3C" transform="matrix(1.00, 0.00, -0.00, -1.00, 757.7, 87.3)">…</text><image xlink:href="../../08FE699A-893C-45A1-B08C-13221E026D70/assets/18C635363193E0BC18FD6542ACD7C261.png" width="703.00" height="342.00" transform="matrix(0.72, 0.00, -0.00, -0.72, 22.9, 491.3)"></image><path d="M 0.0 0.0 L 506.5 0.0 L 506.5 246.4 L 0.0 246.4 Z M 0.0 0.0 " fill="none" stroke="#0264C0" stroke-width="2.00" transform="matrix(1.00, 0.00, 0.00, -1.00, 22.9, 491.3)"></path><image xlink:href="../../08FE699A-893C-45A1-B08C-13221E026D70/assets/BA68DCE1F667A6037906836979DC039C.png" width="683.00" height="341.00" transform="matrix(0.76, 0.00, -0.00, -0.76, 304.9, 654.7)"></image><path d="M 0.0 0.0 L 521.1 0.0 L 521.1 260.2 L 0.0 260.2 Z M 0.0 0.0 " fill="none" stroke="#0264C0" stroke-width="2.00" transform="matrix(1.00, 0.00, 0.00, -1.00, 304.9, 654.7)"></path><image xlink:href="../../08FE699A-893C-45A1-B08C-13221E026D70/assets/03CB6DBE351B3AC53585B1448FC46995.png" width="574.00" height="314.00" transform="matrix(0.74, 0.00, -0.00, -0.74, 493.6, 366.8)"></image><path d="M 0.0 0.0 L 426.9 0.0 L 426.9 233.5 L 0.0 233.5 Z M 0.0 0.0 " fill="none" stroke="#0264C0" stroke-width="2.00" transform="matrix(1.00, 0.00, 0.00, -1.00, 493.6, 366.8)"></path><text xml:space="preserve" font-family="Consolas-Bold,Consolas" font-weight="bold" font-size="20.0" fill="#0264C0" transform="matrix(1.00, 0.00, -0.00, -1.00, 17.2, 25.7)">#</text><text xml:space="preserve" font-family="Consolas-Bold,Consolas" font-weight="bold" font-size="20.0" fill="#0264C0" transform="matrix(1.00, 0.00, -0.00, -1.00, 28.2, 25.7)">c</text><text xml:space="preserve" font-family="Consolas-Bold,Consolas" font-weight="bold" font-size="20.0" fill="#0264C0" transform="matrix(1.00, 0.00, -0.00, -1.00, 39.2, 25.7)">o</text><text xml:space="preserve" font-family="Consolas-Bold,Consolas" font-weight="bold" font-size="20.0" fill="#0264C0" transform="matrix(1.00, 0.00, -0.00, -1.00, 50.2, 25.7)">m</text><text xml:space="preserve" font-family="Consolas-Bold,Consolas" font-weight="bold" font-size="20.0" fill="#0264C0" transform="matrix(1.00, 0.00, -0.00, -1.00, 61.1, 25.7)">m</text><text xml:space="preserve" font-family="Consolas-Bold,Consolas" font-weight="bold" font-size="20.0" fill="#0264C0" transform="matrix(1.00, 0.00, -0.00, -1.00, 72.1, 25.7)">e</text><text xml:space="preserve" font-family="Consolas-Bold,Consolas" font-weight="bold" font-size="20.0" fill="#0264C0" transform="matrix(1.00, 0.00, -0.00, -1.00, 83.1, 25.7)">r</text><text xml:space="preserve" font-family="Consolas-Bold,Consolas" font-weight="bold" font-size="20.0" fill="#0264C0" transform="matrix(1.00, 0.00, -0.00, -1.00, 94.1, 25.7)">c</text><text xml:space="preserve" font-family="Consolas-Bold,Consolas" font-weight="bold" font-size="20.0" fill="#0264C0" transform="matrix(1.00, 0.00, -0.00, -1.00, 105.1, 25.7)">e</text><text xml:space="preserve" font-family="Consolas-Bold,Consolas" font-weight="bold" font-size="20.0" fill="#0264C0" transform="matrix(1.00, 0.00, -0.00, -1.00, 116.1, 25.7)">D</text><text xml:space="preserve" font-family="Consolas-Bold,Consolas" font-weight="bold" font-size="20.0" fill="#0264C0" transform="matrix(1.00, 0.00, -0.00, -1.00, 127.1, 25.7)">C</text><text xml:space="preserve" font-family="Consolas-Bold,Consolas" font-weight="bold" font-size="20.0" fill="#0264C0" transform="matrix(1.00, 0.00, -0.00, -1.00, 138.1, 25.7)">S</text><text xml:space="preserve" font-family="Consolas-Bold,Consolas" font-weight="bold" font-size="20.0" fill="#0264C0" transform="matrix(1.00, 0.00, -0.00, -1.00, 149.1, 25.7)">1</text><text xml:space="preserve" font-family="Consolas-Bold,Consolas" font-weight="bold" font-size="20.0" fill="#0264C0" transform="matrix(1.00, 0.00, -0.00, -1.00, 160.1, 25.7)">7</text><text xml:space="preserve" font-family="Consolas-Bold,Consolas" font-weight="bold" font-size="20.0" fill="#0264C0" transform="matrix(1.00, 0.00, -0.00, -1.00, 171.1, 25.7)">	</text><text xml:space="preserve" font-family="Consolas-Bold,Consolas" font-weight="bold" font-size="20.0" fill="#0264C0" transform="matrix(1.00, 0.00, -0.00, -1.00, 199.1, 25.7)">	</text><text xml:space="preserve" font-family="Consolas-Bold,Consolas" font-weight="bold" font-size="20.0" fill="#0264C0" transform="matrix(1.00, 0.00, -0.00, -1.00, 227.1, 25.7)">	</text><text xml:space="preserve" font-family="Consolas-Bold,Consolas" font-weight="bold" font-size="20.0" fill="#0264C0" transform="matrix(1.00, 0.00, -0.00, -1.00, 255.1, 25.7)">	</text><text xml:space="preserve" font-family="Consolas-Bold,Consolas" font-weight="bold" font-size="20.0" fill="#0264C0" transform="matrix(1.00, 0.00, -0.00, -1.00, 283.1, 25.7)">	</text><text xml:space="preserve" font-family="Consolas-Bold,Consolas" font-weight="bold" font-size="20.0" fill="#0264C0" transform="matrix(1.00, 0.00, -0.00, -1.00, 311.1, 25.7)">	</text><text xml:space="preserve" font-family="Consolas-Bold,Consolas" font-weight="bold" font-size="20.0" fill="#0264C0" transform="matrix(1.00, 0.00, -0.00, -1.00, 339.1, 25.7)">	</text><text xml:space="preserve" font-family="Consolas-Bold,Consolas" font-weight="bold" font-size="20.0" fill="#0264C0" transform="matrix(1.00, 0.00, -0.00, -1.00, 367.1, 25.7)">	</text><text xml:space="preserve" font-family="Consolas-Bold,Consolas" font-weight="bold" font-size="20.0" fill="#0264C0" transform="matrix(1.00, 0.00, -0.00, -1.00, 395.1, 25.7)">	</text><text xml:space="preserve" font-family="Consolas-Bold,Consolas" font-weight="bold" font-size="20.0" fill="#0264C0" transform="matrix(1.00, 0.00, -0.00, -1.00, 423.1, 25.7)">	</text><text xml:space="preserve" font-family="Consolas-Bold,Consolas" font-weight="bold" font-size="20.0" fill="#0264C0" transform="matrix(1.00, 0.00, -0.00, -1.00, 451.1, 25.7)">	</text><text xml:space="preserve" font-family="Consolas-Bold,Consolas" font-weight="bold" font-size="20.0" fill="#0264C0" transform="matrix(1.00, 0.00, -0.00, -1.00, 479.1, 25.7)">	</text><text xml:space="preserve" font-family="Consolas-Bold,Consolas" font-weight="bold" font-size="20.0" fill="#0264C0" transform="matrix(1.00, 0.00, -0.00, -1.00, 507.1, 25.7)">	</text><text xml:space="preserve" font-family="Consolas-Bold,Consolas" font-weight="bold" font-size="20.0" fill="#0264C0" transform="matrix(1.00, 0.00, -0.00, -1.00, 535.1, 25.7)">	</text><text xml:space="preserve" font-family="Consolas-Bold,Consolas" font-weight="bold" font-size="20.0" fill="#0264C0" transform="matrix(1.00, 0.00, -0.00, -1.00, 563.1, 25.7)">	</text><text xml:space="preserve" font-family="Consolas-Bold,Consolas" font-weight="bold" font-size="20.0" fill="#0264C0" transform="matrix(1.00, 0.00, -0.00, -1.00, 591.1, 25.7)">	</text><text xml:space="preserve" font-family="Consolas-Bold,Consolas" font-weight="bold" font-size="20.0" fill="#0264C0" transform="matrix(1.00, 0.00, -0.00, -1.00, 619.1, 25.7)">	</text><text xml:space="preserve" font-family="Consolas-Bold,Consolas" font-weight="bold" font-size="20.0" fill="#0264C0" transform="matrix(1.00, 0.00, -0.00, -1.00, 647.1, 25.7)">	</text><text xml:space="preserve" font-family="Consolas-Bold,Consolas" font-weight="bold" font-size="20.0" fill="#0264C0" transform="matrix(1.00, 0.00, -0.00, -1.00, 675.1, 25.7)">	</text><text xml:space="preserve" font-family="Consolas-Bold,Consolas" font-weight="bold" font-size="20.0" fill="#0264C0" transform="matrix(1.00, 0.00, -0.00, -1.00, 703.1, 25.7)">	</text><text xml:space="preserve" font-family="Consolas-Bold,Consolas" font-weight="bold" font-size="20.0" fill="#0264C0" transform="matrix(1.00, 0.00, -0.00, -1.00, 731.1, 25.7)">	</text><text xml:space="preserve" font-family="Consolas-Bold,Consolas" font-weight="bold" font-size="20.0" fill="#0264C0" transform="matrix(1.00, 0.00, -0.00, -1.00, 759.1, 25.7)">	</text><text xml:space="preserve" font-family="Consolas-Bold,Consolas" font-weight="bold" font-size="20.0" fill="#0264C0" transform="matrix(1.00, 0.00, -0.00, -1.00, 787.1, 25.7)">	</text><text xml:space="preserve" font-family="Consolas-Bold,Consolas" font-weight="bold" font-size="20.0" fill="#0264C0" transform="matrix(1.00, 0.00, -0.00, -1.00, 815.1, 25.7)">	</text><text xml:space="preserve" font-family="Consolas-Bold,Consolas" font-weight="bold" font-size="20.0" fill="#0264C0" transform="matrix(1.00, 0.00, -0.00, -1.00, 843.1, 25.7)">	</text><text xml:space="preserve" font-family="Consolas-Bold,Consolas" font-weight="bold" font-size="20.0" fill="#0264C0" transform="matrix(1.00, 0.00, -0.00, -1.00, 871.1, 25.7)">	</text><text xml:space="preserve" font-family="Consolas-Bold,Consolas" font-weight="bold" font-size="20.0" fill="#0264C0" transform="matrix(1.00, 0.00, -0.00, -1.00, 899.1, 25.7)">	</text><text xml:space="preserve" font-family="Consolas-Bold,Consolas" font-weight="bold" font-size="20.0" fill="#0264C0" transform="matrix(1.00, 0.00, -0.00, -1.00, 927.1, 25.7)">	</text><text xml:space="preserve" font-family="Consolas-Bold,Consolas" font-weight="bold" font-size="20.0" fill="#0264C0" transform="matrix(1.00, 0.00, -0.00, -1.00, 955.1, 25.7)">	</text><text xml:space="preserve" font-family="Consolas-Bold,Consolas" font-weight="bold" font-size="20.0" fill="#0264C0" transform="matrix(1.00, 0.00, -0.00, -1.00, 983.1, 25.7)">	</text><text xml:space="preserve" font-family="Consolas-Bold,Consolas" font-weight="bold" font-size="20.0" fill="#0264C0" transform="matrix(1.00, 0.00, -0.00, -1.00, 1011.1, 25.7)">	</text><text xml:space="preserve" font-family="Consolas-Bold,Consolas" font-weight="bold" font-size="20.0" fill="#0264C0" transform="matrix(1.00, 0.00, -0.00, -1.00, 1039.1, 25.7)">	</text><text xml:space="preserve" font-family="Consolas-Bold,Consolas" font-weight="bold" font-size="20.0" fill="#0264C0" transform="matrix(1.00, 0.00, -0.00, -1.00, 1067.1, 25.7)">	</text><text xml:space="preserve" font-family="Consolas-Bold,Consolas" font-weight="bold" font-size="20.0" fill="#0264C0" transform="matrix(1.00, 0.00, -0.00, -1.00, 1095.1, 25.7)">	</text><text xml:space="preserve" font-family="Consolas-Bold,Consolas" font-weight="bold" font-size="20.0" fill="#0264C0" transform="matrix(1.00, 0.00, -0.00, -1.00, 1123.1, 25.7)">	</text><text xml:space="preserve" font-family="Consolas-Bold,Consolas" font-weight="bold" font-size="20.0" fill="#0264C0" transform="matrix(1.00, 0.00, -0.00, -1.00, 1151.1, 25.7)">	</text><text xml:space="preserve" font-family="Consolas-Bold,Consolas" font-weight="bold" font-size="20.0" fill="#0264C0" transform="matrix(1.00, 0.00, -0.00, -1.00, 1179.1, 25.7)">	</text><text xml:space="preserve" font-family="Consolas-Bold,Consolas" font-weight="bold" font-size="20.0" fill="#0264C0" transform="matrix(1.00, 0.00, -0.00, -1.00, 1207.1, 25.7)">	</text><text xml:space="preserve" font-family="Consolas-Bold,Consolas" font-weight="bold" font-size="20.0" fill="#0264C0" transform="matrix(1.00, 0.00, -0.00, -1.00, 1235.1, 25.7)">	</text><text xml:space="preserve" font-family="Consolas-Bold,Consolas" font-weight="bold" font-size="20.0" fill="#0264C0" transform="matrix(1.00, 0.00, -0.00, -1.00, 1263.1, 25.7)">	</text><text xml:space="preserve" font-family="Consolas-Bold,Consolas" font-weight="bold" font-size="20.0" fill="#0264C0" transform="matrix(1.00, 0.00, -0.00, -1.00, 1291.1, 25.7)">	</text><text xml:space="preserve" font-family="Consolas-Bold,Consolas" font-weight="bold" font-size="20.0" fill="#0264C0" transform="matrix(1.00, 0.00, -0.00, -1.00, 1319.1, 25.7)">	</text><text xml:space="preserve" font-family="Consolas-Bold,Consolas" font-weight="bold" font-size="20.0" fill="#0264C0" transform="matrix(1.00, 0.00, -0.00, -1.00, 1347.1, 25.7)">	</text><text xml:space="preserve" font-family="Consolas-Bold,Consolas" font-weight="bold" font-size="20.0" fill="#0264C0" transform="matrix(1.00, 0.00, -0.00, -1.00, 1375.1, 25.7)">	</text><text xml:space="preserve" font-family="Consolas-Bold,Consolas" font-weight="bold" font-size="20.0" fill="#0264C0" transform="matrix(1.00, 0.00, -0.00, -1.00, 1403.1, 25.7)">	</text><text xml:space="preserve" font-family="Consolas-Bold,Consolas" font-weight="bold" font-size="20.0" fill="#0264C0" transform="matrix(1.00, 0.00, -0.00, -1.00, 1431.1, 25.7)">	</text><text xml:space="preserve" font-family="Consolas-Bold,Consolas" font-weight="bold" font-size="20.0" fill="#0264C0" transform="matrix(1.00, 0.00, -0.00, -1.00, 1459.1, 25.7)">	</text><text xml:space="preserve" font-family="Consolas-Bold,Consolas" font-weight="bold" font-size="20.0" fill="#0264C0" transform="matrix(1.00, 0.00, -0.00, -1.00, 1487.1, 25.7)">	</text><text xml:space="preserve" font-family="Consolas-Bold,Consolas" font-weight="bold" font-size="20.0" fill="#0264C0" transform="matrix(1.00, 0.00, -0.00, -1.00, 1515.1, 25.7)">	</text><text xml:space="preserve" font-family="Consolas-Bold,Consolas" font-weight="bold" font-size="20.0" fill="#0264C0" transform="matrix(1.00, 0.00, -0.00, -1.00, 1543.1, 25.7)">	</text><text xml:space="preserve" font-family="Consolas-Bold,Consolas" font-weight="bold" font-size="20.0" fill="#0264C0" transform="matrix(1.00, 0.00, -0.00, -1.00, 1571.1, 25.7)">	</text><text xml:space="preserve" font-family="Consolas-Bold,Consolas" font-weight="bold" font-size="20.0" fill="#0264C0" transform="matrix(1.00, 0.00, -0.00, -1.00, 1599.1, 25.7)">	</text><text xml:space="preserve" font-family="Consolas-Bold,Consolas" font-weight="bold" font-size="20.0" fill="#0264C0" transform="matrix(1.00, 0.00, -0.00, -1.00, 1627.1, 25.7)">	</text><text xml:space="preserve" font-family="Consolas-Bold,Consolas" font-weight="bold" font-size="20.0" fill="#0264C0" transform="matrix(1.00, 0.00, -0.00, -1.00, 1655.1, 25.7)">	</text><text xml:space="preserve" font-family="Consolas-Bold,Consolas" font-weight="bold" font-size="20.0" fill="#0264C0" transform="matrix(1.00, 0.00, -0.00, -1.00, 1683.1, 25.7)">	</text><text xml:space="preserve" font-family="Consolas-Bold,Consolas" font-weight="bold" font-size="20.0" fill="#0264C0" transform="matrix(1.00, 0.00, -0.00, -1.00, 1711.1, 25.7)">	</text><text xml:space="preserve" font-family="Consolas-Bold,Consolas" font-weight="bold" font-size="20.0" fill="#0264C0" transform="matrix(1.00, 0.00, -0.00, -1.00, 1739.1, 25.7)">	</text><text xml:space="preserve" font-family="Consolas-Bold,Consolas" font-weight="bold" font-size="20.0" fill="#0264C0" transform="matrix(1.00, 0.00, -0.00, -1.00, 1767.1, 25.7)">	</text><text xml:space="preserve" font-family="Consolas-Bold,Consolas" font-weight="bold" font-size="20.0" fill="#0264C0" transform="matrix(1.00, 0.00, -0.00, -1.00, 1795.1, 25.7)">	</text><text xml:space="preserve" font-family="Consolas-Bold,Consolas" font-weight="bold" font-size="20.0" fill="#0264C0" transform="matrix(1.00, 0.00, -0.00, -1.00, 1823.1, 25.7)">	</text><text xml:space="preserve" font-family="Consolas-Bold,Consolas" font-weight="bold" font-size="20.0" fill="#0264C0" transform="matrix(1.00, 0.00, -0.00, -1.00, 1851.1, 25.7)">	</text><text xml:space="preserve" font-family="Consolas-Bold,Consolas" font-weight="bold" font-size="20.0" fill="#0264C0" transform="matrix(1.00, 0.00, -0.00, -1.00, 1879.1, 25.7)">	</text><text xml:space="preserve" font-family="Consolas-Bold,Consolas" font-weight="bold" font-size="20.0" fill="#0264C0" transform="matrix(1.00, 0.00, -0.00, -1.00, 1907.1, 25.7)">	</text><text xml:space="preserve" font-family="Consolas-Bold,Consolas" font-weight="bold" font-size="20.0" fill="#0264C0" transform="matrix(1.00, 0.00, -0.00, -1.00, 1935.1, 25.7)">	</text><text xml:space="preserve" font-family="Consolas-Bold,Consolas" font-weight="bold" font-size="20.0" fill="#0264C0" transform="matrix(1.00, 0.00, -0.00, -1.00, 1963.1, 25.7)">	</text><text xml:space="preserve" font-family="Consolas-Bold,Consolas" font-weight="bold" font-size="20.0" fill="#0264C0" transform="matrix(1.00, 0.00, -0.00, -1.00, 1991.1, 25.7)">	</text><text xml:space="preserve" font-family="Consolas-Bold,Consolas" font-weight="bold" font-size="20.0" fill="#0264C0" transform="matrix(1.00, 0.00, -0.00, -1.00, 2019.1, 25.7)">	</text><text xml:space="preserve" font-family="Consolas-Bold,Consolas" font-weight="bold" font-size="20.0" fill="#0264C0" transform="matrix(1.00, 0.00, -0.00, -1.00, 2047.1, 25.7)">	</text><text xml:space="preserve" font-family="Consolas-Bold,Consolas" font-weight="bold" font-size="20.0" fill="#0264C0" transform="matrix(1.00, 0.00, -0.00, -1.00, 2075.1, 25.7)">	</text><text xml:space="preserve" font-family="Consolas-Bold,Consolas" font-weight="bold" font-size="20.0" fill="#0264C0" transform="matrix(1.00, 0.00, -0.00, -1.00, 929.9, 25.7)">@</text><text xml:space="preserve" font-family="Consolas-Bold,Consolas" font-weight="bold" font-size="20.0" fill="#0264C0" transform="matrix(1.00, 0.00, -0.00, -1.00, 940.8, 25.7)">f</text><text xml:space="preserve" font-family="Consolas-Bold,Consolas" font-weight="bold" font-size="20.0" fill="#0264C0" transform="matrix(1.00, 0.00, -0.00, -1.00, 951.8, 25.7)">a</text><text xml:space="preserve" font-family="Consolas-Bold,Consolas" font-weight="bold" font-size="20.0" fill="#0264C0" transform="matrix(1.00, 0.00, -0.00, -1.00, 962.8, 25.7)">c</text><text xml:space="preserve" font-family="Consolas-Bold,Consolas" font-weight="bold" font-size="20.0" fill="#0264C0" transform="matrix(1.00, 0.00, -0.00, -1.00, 973.8, 25.7)">i</text><text xml:space="preserve" font-family="Consolas-Bold,Consolas" font-weight="bold" font-size="20.0" fill="#0264C0" transform="matrix(1.00, 0.00, -0.00, -1.00, 984.8, 25.7)">n</text><text xml:space="preserve" font-family="Consolas-Bold,Consolas" font-weight="bold" font-size="20.0" fill="#0264C0" transform="matrix(1.00, 0.00, -0.00, -1.00, 995.8, 25.7)">e</text></g></svg>