<?xml version="1.0" encoding="UTF-8" standalone="no"?><svg xmlns="http://www.w3.org/2000/svg" xmlns:xlink="http://www.w3.org/1999/xlink" clip-rule="evenodd" stroke-miterlimit="10" viewBox="0 0 1024 768"><desc>SVG generated by Keynote</desc><defs></defs><g transform="matrix(1.00, 0.00, -0.00, -1.00, 0.0, 768.0)"><path d="M 0.0 768.0 L 1024.0 768.0 L 1024.0 0.0 L 0.0 0.0 Z M 0.0 768.0 " fill="#FEFFFF"></path><path d="M 0.0 677.0 L 1024.0 677.0 L 1024.0 59.0 L 0.0 59.0 Z M 0.2 677.3 " fill="#F2F2F2"></path><path d="M 0.1 0.1 L 1040.1 0.1 " fill="none" stroke="#F38F18" stroke-width="1.00" transform="matrix(1.00, 0.00, 0.00, -1.00, -8.1, 676.6)"></path><path d="M 0.1 0.1 L 1040.1 0.1 " fill="none" stroke="#F38F18" stroke-width="1.00" transform="matrix(1.00, 0.00, 0.00, -1.00, -8.1, 59.6)"></path><image xlink:href="../../0099E750-43F4-4A1E-80C1-2076B752852F/assets/55340D757A15DCE0FDDCCB8968979DD4.png" width="426.00" height="426.00" transform="matrix(0.16, 0.00, -0.00, -0.16, 13.0, 757.7)"></image><text xml:space="preserve" font-family="Cervo-Medium,Cervo" font-size="40.0" fill="#0264C0" transform="matrix(1.00, 0.00, -0.00, -1.00, 936.1, 720.6)">C</text><text xml:space="preserve" font-family="Cervo-Medium,Cervo" font-size="40.0" fill="#0264C0" transform="matrix(1.00, 0.00, -0.00, -1.00, 957.9, 720.6)">a</text><text xml:space="preserve" font-family="Cervo-Medium,Cervo" font-size="40.0" fill="#0264C0" transform="matrix(1.00, 0.00, -0.00, -1.00, 979.2, 720.6)">r</text><text xml:space="preserve" font-family="Cervo-Medium,Cervo" font-size="40.0" fill="#0264C0" transform="matrix(1.00, 0.00, -0.00, -1.00, 995.9, 720.6)">t</text><text xml:space="preserve" font-family="Cervo-Medium,Cervo" font-size="40.0" fill="#0264C0" transform="matrix(1.00, 0.00, -0.00, -1.00, 1011.7, 720.6)"> </text><text xml:space="preserve" font-family="Cervo-Medium,Cervo" font-size="20.0" fill="#BD5A0C" transform="matrix(1.00, 0.00, -0.00, -1.00, 520.4, 694.5)">H</text><text xml:space="preserve" font-family="Cervo-Medium,Cervo" font-size="20.0" fill="#BD5A0C" transform="matrix(1.00, 0.00, -0.00, -1.00, 531.4, 694.5)">o</text><text xml:space="preserve" font-family="Cervo-Medium,Cervo" font-size="20.0" fill="#BD5A0C" transform="matrix(1.00, 0.00, -0.00, -1.00, 542.0, 694.5)">m</text><text xml:space="preserve" font-family="Cervo-Medium,Cervo" font-size="20.0" fill="#BD5A0C" transform="matrix(1.00, 0.00, -0.00, -1.00, 557.2, 694.5)">e</text><text xml:space="preserve" font-family="Cervo-Medium,Cervo" font-size="20.0" fill="#BD5A0C" transform="matrix(1.00, 0.00, -0.00, -1.00, 567.8, 694.5)"> </text><text xml:space="preserve" font-family="Cervo-Medium,Cervo" font-size="20.0" fill="#BD5A0C" transform="matrix(1.00, 0.00, -0.00, -1.00, 574.8, 694.5)">&gt;</text><text xml:space="preserve" font-family="Cervo-Medium,Cervo" font-size="20.0" fill="#BD5A0C" transform="matrix(1.00, 0.00, -0.00, -1.00, 583.2, 694.5)">&gt;</text><text xml:space="preserve" font-family="Cervo-Medium,Cervo" font-size="20.0" fill="#BD5A0C" transform="matrix(1.00, 0.00, -0.00, -1.00, 591.5, 694.5)"> </text><text xml:space="preserve" font-family="Cervo-Medium,Cervo" font-size="20.0" fill="#BD5A0C" transform="matrix(1.00, 0.00, -0.00, -1.00, 598.5, 694.5)">A</text><text xml:space="preserve" font-family="Cervo-Medium,Cervo" font-size="20.0" fill="#BD5A0C" transform="matrix(1.00, 0.00, -0.00, -1.00, 609.8, 694.5)">d</text><text xml:space="preserve" font-family="Cervo-Medium,Cervo" font-size="20.0" fill="#BD5A0C" transform="matrix(1.00, 0.00, -0.00, -1.00, 620.7, 694.5)">m</text><text xml:space="preserve" font-family="Cervo-Medium,Cervo" font-size="20.0" fill="#BD5A0C" transform="matrix(1.00, 0.00, -0.00, -1.00, 635.9, 694.5)">i</text><text xml:space="preserve" font-family="Cervo-Medium,Cervo" font-size="20.0" fill="#BD5A0C" transform="matrix(1.00, 0.00, -0.00, -1.00, 642.9, 694.5)">n</text><text xml:space="preserve" font-family="Cervo-Medium,Cervo" font-size="20.0" fill="#BD5A0C" transform="matrix(1.00, 0.00, -0.00, -1.00, 654.0, 694.5)">i</text><text xml:space="preserve" font-family="Cervo-Medium,Cervo" font-size="20.0" fill="#BD5A0C" transform="matrix(1.00, 0.00, -0.00, -1.00, 661.0, 694.5)">s</text><text xml:space="preserve" font-family="Cervo-Medium,Cervo" font-size="20.0" fill="#BD5A0C" transform="matrix(1.00, 0.00, -0.00, -1.00, 670.6, 694.5)">t</text><text xml:space="preserve" font-family="Cervo-Medium,Cervo" font-size="20.0" fill="#BD5A0C" transform="matrix(1.00, 0.00, -0.00, -1.00, 678.5, 694.5)">r</text><text xml:space="preserve" font-family="Cervo-Medium,Cervo" font-size="20.0" fill="#BD5A0C" transform="matrix(1.00, 0.00, -0.00, -1.00, 686.7, 694.5)">a</text><text xml:space="preserve" font-family="Cervo-Medium,Cervo" font-size="20.0" fill="#BD5A0C" transform="matrix(1.00, 0.00, -0.00, -1.00, 697.3, 694.5)">t</text><text xml:space="preserve" font-family="Cervo-Medium,Cervo" font-size="20.0" fill="#BD5A0C" transform="matrix(1.00, 0.00, -0.00, -1.00, 705.2, 694.5)">i</text><text xml:space="preserve" font-family="Cervo-Medium,Cervo" font-size="20.0" fill="#BD5A0C" transform="matrix(1.00, 0.00, -0.00, -1.00, 712.2, 694.5)">o</text><text xml:space="preserve" font-family="Cervo-Medium,Cervo" font-size="20.0" fill="#BD5A0C" transform="matrix(1.00, 0.00, -0.00, -1.00, 722.8, 694.5)">n</text><text xml:space="preserve" font-family="Cervo-Medium,Cervo" font-size="20.0" fill="#BD5A0C" transform="matrix(1.00, 0.00, -0.00, -1.00, 733.8, 694.5)"> </text><text xml:space="preserve" font-family="Cervo-Medium,Cervo" font-size="20.0" fill="#BD5A0C" transform="matrix(1.00, 0.00, -0.00, -1.00, 740.8, 694.5)">&gt;</text><text xml:space="preserve" font-family="Cervo-Medium,Cervo" font-size="20.0" fill="#BD5A0C" transform="matrix(1.00, 0.00, -0.00, -1.00, 749.2, 694.5)">&gt;</text><text xml:space="preserve" font-family="Cervo-Medium,Cervo" font-size="20.0" fill="#BD5A0C" transform="matrix(1.00, 0.00, -0.00, -1.00, 757.6, 694.5)"> </text><text xml:space="preserve" font-family="Cervo-Medium,Cervo" font-size="20.0" fill="#BD5A0C" transform="matrix(1.00, 0.00, -0.00, -1.00, 764.6, 694.5)">C</text><text xml:space="preserve" font-family="Cervo-Medium,Cervo" font-size="20.0" fill="#BD5A0C" transform="matrix(1.00, 0.00, -0.00, -1.00, 775.5, 694.5)">o</text><text xml:space="preserve" font-family="Cervo-Medium,Cervo" font-size="20.0" fill="#BD5A0C" transform="matrix(1.00, 0.00, -0.00, -1.00, 786.1, 694.5)">m</text><text xml:space="preserve" font-family="Cervo-Medium,Cervo" font-size="20.0" fill="#BD5A0C" transform="matrix(1.00, 0.00, -0.00, -1.00, 801.3, 694.5)">m</text><text xml:space="preserve" font-family="Cervo-Medium,Cervo" font-size="20.0" fill="#BD5A0C" transform="matrix(1.00, 0.00, -0.00, -1.00, 816.5, 694.5)">e</text><text xml:space="preserve" font-family="Cervo-Medium,Cervo" font-size="20.0" fill="#BD5A0C" transform="matrix(1.00, 0.00, -0.00, -1.00, 827.1, 694.5)">r</text><text xml:space="preserve" font-family="Cervo-Medium,Cervo" font-size="20.0" fill="#BD5A0C" transform="matrix(1.00, 0.00, -0.00, -1.00, 835.2, 694.5)">c</text><text xml:space="preserve" font-family="Cervo-Medium,Cervo" font-size="20.0" fill="#BD5A0C" transform="matrix(1.00, 0.00, -0.00, -1.00, 845.8, 694.5)">e</text><text xml:space="preserve" font-family="Cervo-Medium,Cervo" font-size="20.0" fill="#BD5A0C" transform="matrix(1.00, 0.00, -0.00, -1.00, 856.4, 694.5)"> </text><text xml:space="preserve" font-family="Cervo-Medium,Cervo" font-size="20.0" fill="#BD5A0C" transform="matrix(1.00, 0.00, -0.00, -1.00, 863.4, 694.5)">&gt;</text><text xml:space="preserve" font-family="Cervo-Medium,Cervo" font-size="20.0" fill="#BD5A0C" transform="matrix(1.00, 0.00, -0.00, -1.00, 871.7, 694.5)">&gt;</text><text xml:space="preserve" font-family="Cervo-Medium,Cervo" font-size="20.0" fill="#BD5A0C" transform="matrix(1.00, 0.00, -0.00, -1.00, 880.1, 694.5)"> </text><text xml:space="preserve" font-family="Cervo-Medium,Cervo" font-size="20.0" fill="#BD5A0C" transform="matrix(1.00, 0.00, -0.00, -1.00, 887.1, 694.5)">C</text><text xml:space="preserve" font-family="Cervo-Medium,Cervo" font-size="20.0" fill="#BD5A0C" transform="matrix(1.00, 0.00, -0.00, -1.00, 898.0, 694.5)">o</text><text xml:space="preserve" font-family="Cervo-Medium,Cervo" font-size="20.0" fill="#BD5A0C" transform="matrix(1.00, 0.00, -0.00, -1.00, 908.6, 694.5)">n</text><text xml:space="preserve" font-family="Cervo-Medium,Cervo" font-size="20.0" fill="#BD5A0C" transform="matrix(1.00, 0.00, -0.00, -1.00, 919.6, 694.5)">f</text><text xml:space="preserve" font-family="Cervo-Medium,Cervo" font-size="20.0" fill="#BD5A0C" transform="matrix(1.00, 0.00, -0.00, -1.00, 927.2, 694.5)">i</text><text xml:space="preserve" font-family="Cervo-Medium,Cervo" font-size="20.0" fill="#BD5A0C" transform="matrix(1.00, 0.00, -0.00, -1.00, 934.2, 694.5)">g</text><text xml:space="preserve" font-family="Cervo-Medium,Cervo" font-size="20.0" fill="#BD5A0C" transform="matrix(1.00, 0.00, -0.00, -1.00, 945.3, 694.5)">u</text><text xml:space="preserve" font-family="Cervo-Medium,Cervo" font-size="20.0" fill="#BD5A0C" transform="matrix(1.00, 0.00, -0.00, -1.00, 956.3, 694.5)">r</text><text xml:space="preserve" font-family="Cervo-Medium,Cervo" font-size="20.0" fill="#BD5A0C" transform="matrix(1.00, 0.00, -0.00, -1.00, 964.5, 694.5)">a</text><text xml:space="preserve" font-family="Cervo-Medium,Cervo" font-size="20.0" fill="#BD5A0C" transform="matrix(1.00, 0.00, -0.00, -1.00, 975.1, 694.5)">t</text><text xml:space="preserve" font-family="Cervo-Medium,Cervo" font-size="20.0" fill="#BD5A0C" transform="matrix(1.00, 0.00, -0.00, -1.00, 983.0, 694.5)">i</text><text xml:space="preserve" font-family="Cervo-Medium,Cervo" font-size="20.0" fill="#BD5A0C" transform="matrix(1.00, 0.00, -0.00, -1.00, 990.0, 694.5)">o</text><text xml:space="preserve" font-family="Cervo-Medium,Cervo" font-size="20.0" fill="#BD5A0C" transform="matrix(1.00, 0.00, -0.00, -1.00, 1000.6, 694.5)">n</text><text xml:space="preserve" font-family="Cervo-Medium,Cervo" font-size="30.0" fill="#3C3C3C" transform="matrix(1.00, 0.00, -0.00, -1.00, 23.8, 188.3)">•</text><text xml:space="preserve" font-family="Cervo-Medium,Cervo" font-size="40.0" fill="#3C3C3C" transform="matrix(1.00, 0.00, -0.00, -1.00, 58.8, 185.3)">V</text><text xml:space="preserve" font-family="Cervo-Medium,Cervo" font-size="40.0" fill="#3C3C3C" transform="matrix(1.00, 0.00, -0.00, -1.00, 77.3, 185.3)">i</text><text xml:space="preserve" font-family="Cervo-Medium,Cervo" font-size="40.0" fill="#3C3C3C" transform="matrix(1.00, 0.00, -0.00, -1.00, 87.7, 185.3)">s</text><text xml:space="preserve" font-family="Cervo-Medium,Cervo" font-size="40.0" fill="#3C3C3C" transform="matrix(1.00, 0.00, -0.00, -1.00, 103.4, 185.3)">t</text><text xml:space="preserve" font-family="Cervo-Medium,Cervo" font-size="40.0" fill="#3C3C3C" transform="matrix(1.00, 0.00, -0.00, -1.00, 115.6, 185.3)">a</text><text xml:space="preserve" font-family="Cervo-Medium,Cervo" font-size="40.0" fill="#3C3C3C" transform="matrix(1.00, 0.00, -0.00, -1.00, 133.2, 185.3)">s</text><text xml:space="preserve" font-family="Cervo-Medium,Cervo" font-size="40.0" fill="#3C3C3C" transform="matrix(1.00, 0.00, -0.00, -1.00, 148.9, 185.3)"> </text><text xml:space="preserve" font-family="Cervo-Medium,Cervo" font-size="40.0" fill="#3C3C3C" transform="matrix(1.00, 0.00, -0.00, -1.00, 159.3, 185.3)">c</text><text xml:space="preserve" font-family="Cervo-Medium,Cervo" font-size="40.0" fill="#3C3C3C" transform="matrix(1.00, 0.00, -0.00, -1.00, 176.8, 185.3)">o</text><text xml:space="preserve" font-family="Cervo-Medium,Cervo" font-size="40.0" fill="#3C3C3C" transform="matrix(1.00, 0.00, -0.00, -1.00, 194.4, 185.3)">n</text><text xml:space="preserve" font-family="Cervo-Medium,Cervo" font-size="40.0" fill="#3C3C3C" transform="matrix(1.00, 0.00, -0.00, -1.00, 212.9, 185.3)">f</text><text xml:space="preserve" font-family="Cervo-Medium,Cervo" font-size="40.0" fill="#3C3C3C" transform="matrix(1.00, 0.00, -0.00, -1.00, 224.4, 185.3)">i</text><text xml:space="preserve" font-family="Cervo-Medium,Cervo" font-size="40.0" fill="#3C3C3C" transform="matrix(1.00, 0.00, -0.00, -1.00, 234.8, 185.3)">g</text><text xml:space="preserve" font-family="Cervo-Medium,Cervo" font-size="40.0" fill="#3C3C3C" transform="matrix(1.00, 0.00, -0.00, -1.00, 253.4, 185.3)">u</text><text xml:space="preserve" font-family="Cervo-Medium,Cervo" font-size="40.0" fill="#3C3C3C" transform="matrix(1.00, 0.00, -0.00, -1.00, 271.9, 185.3)">r</text><text xml:space="preserve" font-family="Cervo-Medium,Cervo" font-size="40.0" fill="#3C3C3C" transform="matrix(1.00, 0.00, -0.00, -1.00, 284.6, 185.3)">a</text><text xml:space="preserve" font-family="Cervo-Medium,Cervo" font-size="40.0" fill="#3C3C3C" transform="matrix(1.00, 0.00, -0.00, -1.00, 302.2, 185.3)">b</text><text xml:space="preserve" font-family="Cervo-Medium,Cervo" font-size="40.0" fill="#3C3C3C" transform="matrix(1.00, 0.00, -0.00, -1.00, 320.6, 185.3)">l</text><text xml:space="preserve" font-family="Cervo-Medium,Cervo" font-size="40.0" fill="#3C3C3C" transform="matrix(1.00, 0.00, -0.00, -1.00, 332.5, 185.3)">e</text><text xml:space="preserve" font-family="Cervo-Medium,Cervo" font-size="40.0" fill="#3C3C3C" transform="matrix(1.00, 0.00, -0.00, -1.00, 350.1, 185.3)">s</text><text xml:space="preserve" font-family="LucidaGrande-Bold,Lucida Grande" font-weight="bold" font-size="40.0" fill="#3C3C3C" transform="matrix(1.00, 0.00, -0.00, -1.00, 365.8, 185.3)"> </text><text xml:space="preserve" font-family="LucidaGrande-Bold,Lucida Grande" font-weight="bold" font-size="40.0" fill="#3C3C3C" transform="matrix(1.00, 0.00, -0.00, -1.00, 58.8, 136.3)"> </text><text xml:space="preserve" font-family="Cervo-Medium,Cervo" font-size="40.0" fill="#3C3C3C" transform="matrix(1.00, 0.00, -0.00, -1.00, 58.8, 87.3)"> </text><text xml:space="preserve" font-family="Cervo-Medium,Cervo" font-size="40.0" fill="#3C3C3C" transform="matrix(1.00, 0.00, -0.00, -1.00, 69.2, 87.3)"> </text><text xml:space="preserve" font-family="Cervo-Medium,Cervo" font-size="40.0" fill="#3C3C3C" transform="matrix(1.00, 0.00, -0.00, -1.00, 79.6, 87.3)"> </text><text xml:space="preserve" font-family="Cervo-Medium,Cervo" font-size="40.0" fill="#3C3C3C" transform="matrix(1.00, 0.00, -0.00, -1.00, 90.0, 87.3)"> </text><text xml:space="preserve" font-family="Cervo-Medium,Cervo" font-size="40.0" fill="#3C3C3C" transform="matrix(1.00, 0.00, -0.00, -1.00, 100.4, 87.3)"> </text><text xml:space="preserve" font-family="Cervo-Medium,Cervo" font-size="40.0" fill="#3C3C3C" transform="matrix(1.00, 0.00, -0.00, -1.00, 110.8, 87.3)"> </text><text xml:space="preserve" font-family="Cervo-Medium,Cervo" font-size="40.0" fill="#3C3C3C" transform="matrix(1.00, 0.00, -0.00, -1.00, 121.2, 87.3)"> </text><text xml:space="preserve" font-family="Cervo-Medium,Cervo" font-size="40.0" fill="#3C3C3C" transform="matrix(1.00, 0.00, -0.00, -1.00, 131.6, 87.3)"> </text><text xml:space="preserve" font-family="Cervo-Medium,Cervo" font-size="40.0" fill="#3C3C3C" transform="matrix(1.00, 0.00, -0.00, -1.00, 142.0, 87.3)">d</text><text xml:space="preserve" font-family="Cervo-Medium,Cervo" font-size="40.0" fill="#3C3C3C" transform="matrix(1.00, 0.00, -0.00, -1.00, 160.4, 87.3)">e</text><text xml:space="preserve" font-family="Cervo-Medium,Cervo" font-size="40.0" fill="#3C3C3C" transform="matrix(1.00, 0.00, -0.00, -1.00, 178.0, 87.3)">f</text><text xml:space="preserve" font-family="Cervo-Medium,Cervo" font-size="40.0" fill="#3C3C3C" transform="matrix(1.00, 0.00, -0.00, -1.00, 189.5, 87.3)">i</text><text xml:space="preserve" font-family="Cervo-Medium,Cervo" font-size="40.0" fill="#3C3C3C" transform="matrix(1.00, 0.00, -0.00, -1.00, 199.9, 87.3)">n</text><text xml:space="preserve" font-family="Cervo-Medium,Cervo" font-size="40.0" fill="#3C3C3C" transform="matrix(1.00, 0.00, -0.00, -1.00, 218.4, 87.3)">i</text><text xml:space="preserve" font-family="Cervo-Medium,Cervo" font-size="40.0" fill="#3C3C3C" transform="matrix(1.00, 0.00, -0.00, -1.00, 228.8, 87.3)">d</text><text xml:space="preserve" font-family="Cervo-Medium,Cervo" font-size="40.0" fill="#3C3C3C" transform="matrix(1.00, 0.00, -0.00, -1.00, 247.2, 87.3)">a</text><text xml:space="preserve" font-family="Cervo-Medium,Cervo" font-size="40.0" fill="#3C3C3C" transform="matrix(1.00, 0.00, -0.00, -1.00, 264.8, 87.3)">s</text><text xml:space="preserve" font-family="Cervo-Medium,Cervo" font-size="40.0" fill="#3C3C3C" transform="matrix(1.00, 0.00, -0.00, -1.00, 280.5, 87.3)"> </text><text xml:space="preserve" font-family="Cervo-Medium,Cervo" font-size="40.0" fill="#3C3C3C" transform="matrix(1.00, 0.00, -0.00, -1.00, 290.9, 87.3)">e</text><text xml:space="preserve" font-family="Cervo-Medium,Cervo" font-size="40.0" fill="#3C3C3C" transform="matrix(1.00, 0.00, -0.00, -1.00, 308.5, 87.3)">n</text><text xml:space="preserve" font-family="Cervo-Medium,Cervo" font-size="40.0" fill="#3C3C3C" transform="matrix(1.00, 0.00, -0.00, -1.00, 327.0, 87.3)"> </text><text xml:space="preserve" font-family="Cervo-Medium,Cervo" font-size="40.0" fill="#3C3C3C" transform="matrix(1.00, 0.00, -0.00, -1.00, 337.4, 87.3)">l</text><text xml:space="preserve" font-family="Cervo-Medium,Cervo" font-size="40.0" fill="#3C3C3C" transform="matrix(1.00, 0.00, -0.00, -1.00, 349.4, 87.3)">o</text><text xml:space="preserve" font-family="Cervo-Medium,Cervo" font-size="40.0" fill="#3C3C3C" transform="matrix(1.00, 0.00, -0.00, -1.00, 367.0, 87.3)">s</text><text xml:space="preserve" font-family="Cervo-Medium,Cervo" font-size="40.0" fill="#3C3C3C" transform="matrix(1.00, 0.00, -0.00, -1.00, 382.7, 87.3)"> </text><text xml:space="preserve" font-family="Cervo-Medium,Cervo" font-size="40.0" fill="#3C3C3C" transform="matrix(1.00, 0.00, -0.00, -1.00, 393.1, 87.3)">O</text><text xml:space="preserve" font-family="Cervo-Medium,Cervo" font-size="40.0" fill="#3C3C3C" transform="matrix(1.00, 0.00, -0.00, -1.00, 411.5, 87.3)">r</text><text xml:space="preserve" font-family="Cervo-Medium,Cervo" font-size="40.0" fill="#3C3C3C" transform="matrix(1.00, 0.00, -0.00, -1.00, 424.2, 87.3)">d</text><text xml:space="preserve" font-family="Cervo-Medium,Cervo" font-size="40.0" fill="#3C3C3C" transform="matrix(1.00, 0.00, -0.00, -1.00, 442.5, 87.3)">e</text><text xml:space="preserve" font-family="Cervo-Medium,Cervo" font-size="40.0" fill="#3C3C3C" transform="matrix(1.00, 0.00, -0.00, -1.00, 460.1, 87.3)">r</text><text xml:space="preserve" font-family="Cervo-Medium,Cervo" font-size="40.0" fill="#3C3C3C" transform="matrix(1.00, 0.00, -0.00, -1.00, 473.2, 87.3)"> </text><text xml:space="preserve" font-family="Cervo-Medium,Cervo" font-size="40.0" fill="#3C3C3C" transform="matrix(1.00, 0.00, -0.00, -1.00, 483.6, 87.3)">T</text><text xml:space="preserve" font-family="Cervo-Medium,Cervo" font-size="40.0" fill="#3C3C3C" transform="matrix(1.00, 0.00, -0.00, -1.00, 499.2, 87.3)">y</text><text xml:space="preserve" font-family="Cervo-Medium,Cervo" font-size="40.0" fill="#3C3C3C" transform="matrix(1.00, 0.00, -0.00, -1.00, 515.6, 87.3)">p</text><text xml:space="preserve" font-family="Cervo-Medium,Cervo" font-size="40.0" fill="#3C3C3C" transform="matrix(1.00, 0.00, -0.00, -1.00, 534.0, 87.3)">e</text><text xml:space="preserve" font-family="Cervo-Medium,Cervo" font-size="40.0" fill="#3C3C3C" transform="matrix(1.00, 0.00, -0.00, -1.00, 551.6, 87.3)">s</text><image xlink:href="6317B046637F479A298F07494304C4C1.png" width="735.00" height="285.00" transform="matrix(1.00, 0.00, -0.00, -1.00, 144.5, 585.9)"></image><path d="M 0.0 0.0 L 735.0 0.0 L 735.0 285.0 L 0.0 285.0 Z M 0.0 0.0 " fill="none" stroke="#0264C0" stroke-width="2.00" transform="matrix(1.00, 0.00, 0.00, -1.00, 144.5, 585.9)"></path><text xml:space="preserve" font-family="Consolas-Bold,Consolas" font-weight="bold" font-size="20.0" fill="#0264C0" transform="matrix(1.00, 0.00, -0.00, -1.00, 17.2, 25.7)">#</text><text xml:space="preserve" font-family="Consolas-Bold,Consolas" font-weight="bold" font-size="20.0" fill="#0264C0" transform="matrix(1.00, 0.00, -0.00, -1.00, 28.2, 25.7)">c</text><text xml:space="preserve" font-family="Consolas-Bold,Consolas" font-weight="bold" font-size="20.0" fill="#0264C0" transform="matrix(1.00, 0.00, -0.00, -1.00, 39.2, 25.7)">o</text><text xml:space="preserve" font-family="Consolas-Bold,Consolas" font-weight="bold" font-size="20.0" fill="#0264C0" transform="matrix(1.00, 0.00, -0.00, -1.00, 50.2, 25.7)">m</text><text xml:space="preserve" font-family="Consolas-Bold,Consolas" font-weight="bold" font-size="20.0" fill="#0264C0" transform="matrix(1.00, 0.00, -0.00, -1.00, 61.1, 25.7)">m</text><text xml:space="preserve" font-family="Consolas-Bold,Consolas" font-weight="bold" font-size="20.0" fill="#0264C0" transform="matrix(1.00, 0.00, -0.00, -1.00, 72.1, 25.7)">e</text><text xml:space="preserve" font-family="Consolas-Bold,Consolas" font-weight="bold" font-size="20.0" fill="#0264C0" transform="matrix(1.00, 0.00, -0.00, -1.00, 83.1, 25.7)">r</text><text xml:space="preserve" font-family="Consolas-Bold,Consolas" font-weight="bold" font-size="20.0" fill="#0264C0" transform="matrix(1.00, 0.00, -0.00, -1.00, 94.1, 25.7)">c</text><text xml:space="preserve" font-family="Consolas-Bold,Consolas" font-weight="bold" font-size="20.0" fill="#0264C0" transform="matrix(1.00, 0.00, -0.00, -1.00, 105.1, 25.7)">e</text><text xml:space="preserve" font-family="Consolas-Bold,Consolas" font-weight="bold" font-size="20.0" fill="#0264C0" transform="matrix(1.00, 0.00, -0.00, -1.00, 116.1, 25.7)">D</text><text xml:space="preserve" font-family="Consolas-Bold,Consolas" font-weight="bold" font-size="20.0" fill="#0264C0" transform="matrix(1.00, 0.00, -0.00, -1.00, 127.1, 25.7)">C</text><text xml:space="preserve" font-family="Consolas-Bold,Consolas" font-weight="bold" font-size="20.0" fill="#0264C0" transform="matrix(1.00, 0.00, -0.00, -1.00, 138.1, 25.7)">S</text><text xml:space="preserve" font-family="Consolas-Bold,Consolas" font-weight="bold" font-size="20.0" fill="#0264C0" transform="matrix(1.00, 0.00, -0.00, -1.00, 149.1, 25.7)">1</text><text xml:space="preserve" font-family="Consolas-Bold,Consolas" font-weight="bold" font-size="20.0" fill="#0264C0" transform="matrix(1.00, 0.00, -0.00, -1.00, 160.1, 25.7)">7</text><text xml:space="preserve" font-family="Consolas-Bold,Consolas" font-weight="bold" font-size="20.0" fill="#0264C0" transform="matrix(1.00, 0.00, -0.00, -1.00, 171.1, 25.7)">	</text><text xml:space="preserve" font-family="Consolas-Bold,Consolas" font-weight="bold" font-size="20.0" fill="#0264C0" transform="matrix(1.00, 0.00, -0.00, -1.00, 199.1, 25.7)">	</text><text xml:space="preserve" font-family="Consolas-Bold,Consolas" font-weight="bold" font-size="20.0" fill="#0264C0" transform="matrix(1.00, 0.00, -0.00, -1.00, 227.1, 25.7)">	</text><text xml:space="preserve" font-family="Consolas-Bold,Consolas" font-weight="bold" font-size="20.0" fill="#0264C0" transform="matrix(1.00, 0.00, -0.00, -1.00, 255.1, 25.7)">	</text><text xml:space="preserve" font-family="Consolas-Bold,Consolas" font-weight="bold" font-size="20.0" fill="#0264C0" transform="matrix(1.00, 0.00, -0.00, -1.00, 283.1, 25.7)">	</text><text xml:space="preserve" font-family="Consolas-Bold,Consolas" font-weight="bold" font-size="20.0" fill="#0264C0" transform="matrix(1.00, 0.00, -0.00, -1.00, 311.1, 25.7)">	</text><text xml:space="preserve" font-family="Consolas-Bold,Consolas" font-weight="bold" font-size="20.0" fill="#0264C0" transform="matrix(1.00, 0.00, -0.00, -1.00, 339.1, 25.7)">	</text><text xml:space="preserve" font-family="Consolas-Bold,Consolas" font-weight="bold" font-size="20.0" fill="#0264C0" transform="matrix(1.00, 0.00, -0.00, -1.00, 367.1, 25.7)">	</text><text xml:space="preserve" font-family="Consolas-Bold,Consolas" font-weight="bold" font-size="20.0" fill="#0264C0" transform="matrix(1.00, 0.00, -0.00, -1.00, 395.1, 25.7)">	</text><text xml:space="preserve" font-family="Consolas-Bold,Consolas" font-weight="bold" font-size="20.0" fill="#0264C0" transform="matrix(1.00, 0.00, -0.00, -1.00, 423.1, 25.7)">	</text><text xml:space="preserve" font-family="Consolas-Bold,Consolas" font-weight="bold" font-size="20.0" fill="#0264C0" transform="matrix(1.00, 0.00, -0.00, -1.00, 451.1, 25.7)">	</text><text xml:space="preserve" font-family="Consolas-Bold,Consolas" font-weight="bold" font-size="20.0" fill="#0264C0" transform="matrix(1.00, 0.00, -0.00, -1.00, 479.1, 25.7)">	</text><text xml:space="preserve" font-family="Consolas-Bold,Consolas" font-weight="bold" font-size="20.0" fill="#0264C0" transform="matrix(1.00, 0.00, -0.00, -1.00, 507.1, 25.7)">	</text><text xml:space="preserve" font-family="Consolas-Bold,Consolas" font-weight="bold" font-size="20.0" fill="#0264C0" transform="matrix(1.00, 0.00, -0.00, -1.00, 535.1, 25.7)">	</text><text xml:space="preserve" font-family="Consolas-Bold,Consolas" font-weight="bold" font-size="20.0" fill="#0264C0" transform="matrix(1.00, 0.00, -0.00, -1.00, 563.1, 25.7)">	</text><text xml:space="preserve" font-family="Consolas-Bold,Consolas" font-weight="bold" font-size="20.0" fill="#0264C0" transform="matrix(1.00, 0.00, -0.00, -1.00, 591.1, 25.7)">	</text><text xml:space="preserve" font-family="Consolas-Bold,Consolas" font-weight="bold" font-size="20.0" fill="#0264C0" transform="matrix(1.00, 0.00, -0.00, -1.00, 619.1, 25.7)">	</text><text xml:space="preserve" font-family="Consolas-Bold,Consolas" font-weight="bold" font-size="20.0" fill="#0264C0" transform="matrix(1.00, 0.00, -0.00, -1.00, 647.1, 25.7)">	</text><text xml:space="preserve" font-family="Consolas-Bold,Consolas" font-weight="bold" font-size="20.0" fill="#0264C0" transform="matrix(1.00, 0.00, -0.00, -1.00, 675.1, 25.7)">	</text><text xml:space="preserve" font-family="Consolas-Bold,Consolas" font-weight="bold" font-size="20.0" fill="#0264C0" transform="matrix(1.00, 0.00, -0.00, -1.00, 703.1, 25.7)">	</text><text xml:space="preserve" font-family="Consolas-Bold,Consolas" font-weight="bold" font-size="20.0" fill="#0264C0" transform="matrix(1.00, 0.00, -0.00, -1.00, 731.1, 25.7)">	</text><text xml:space="preserve" font-family="Consolas-Bold,Consolas" font-weight="bold" font-size="20.0" fill="#0264C0" transform="matrix(1.00, 0.00, -0.00, -1.00, 759.1, 25.7)">	</text><text xml:space="preserve" font-family="Consolas-Bold,Consolas" font-weight="bold" font-size="20.0" fill="#0264C0" transform="matrix(1.00, 0.00, -0.00, -1.00, 787.1, 25.7)">	</text><text xml:space="preserve" font-family="Consolas-Bold,Consolas" font-weight="bold" font-size="20.0" fill="#0264C0" transform="matrix(1.00, 0.00, -0.00, -1.00, 815.1, 25.7)">	</text><text xml:space="preserve" font-family="Consolas-Bold,Consolas" font-weight="bold" font-size="20.0" fill="#0264C0" transform="matrix(1.00, 0.00, -0.00, -1.00, 843.1, 25.7)">	</text><text xml:space="preserve" font-family="Consolas-Bold,Consolas" font-weight="bold" font-size="20.0" fill="#0264C0" transform="matrix(1.00, 0.00, -0.00, -1.00, 871.1, 25.7)">	</text><text xml:space="preserve" font-family="Consolas-Bold,Consolas" font-weight="bold" font-size="20.0" fill="#0264C0" transform="matrix(1.00, 0.00, -0.00, -1.00, 899.1, 25.7)">	</text><text xml:space="preserve" font-family="Consolas-Bold,Consolas" font-weight="bold" font-size="20.0" fill="#0264C0" transform="matrix(1.00, 0.00, -0.00, -1.00, 927.1, 25.7)">	</text><text xml:space="preserve" font-family="Consolas-Bold,Consolas" font-weight="bold" font-size="20.0" fill="#0264C0" transform="matrix(1.00, 0.00, -0.00, -1.00, 955.1, 25.7)">	</text><text xml:space="preserve" font-family="Consolas-Bold,Consolas" font-weight="bold" font-size="20.0" fill="#0264C0" transform="matrix(1.00, 0.00, -0.00, -1.00, 983.1, 25.7)">	</text><text xml:space="preserve" font-family="Consolas-Bold,Consolas" font-weight="bold" font-size="20.0" fill="#0264C0" transform="matrix(1.00, 0.00, -0.00, -1.00, 1011.1, 25.7)">	</text><text xml:space="preserve" font-family="Consolas-Bold,Consolas" font-weight="bold" font-size="20.0" fill="#0264C0" transform="matrix(1.00, 0.00, -0.00, -1.00, 1039.1, 25.7)">	</text><text xml:space="preserve" font-family="Consolas-Bold,Consolas" font-weight="bold" font-size="20.0" fill="#0264C0" transform="matrix(1.00, 0.00, -0.00, -1.00, 1067.1, 25.7)">	</text><text xml:space="preserve" font-family="Consolas-Bold,Consolas" font-weight="bold" font-size="20.0" fill="#0264C0" transform="matrix(1.00, 0.00, -0.00, -1.00, 1095.1, 25.7)">	</text><text xml:space="preserve" font-family="Consolas-Bold,Consolas" font-weight="bold" font-size="20.0" fill="#0264C0" transform="matrix(1.00, 0.00, -0.00, -1.00, 1123.1, 25.7)">	</text><text xml:space="preserve" font-family="Consolas-Bold,Consolas" font-weight="bold" font-size="20.0" fill="#0264C0" transform="matrix(1.00, 0.00, -0.00, -1.00, 1151.1, 25.7)">	</text><text xml:space="preserve" font-family="Consolas-Bold,Consolas" font-weight="bold" font-size="20.0" fill="#0264C0" transform="matrix(1.00, 0.00, -0.00, -1.00, 1179.1, 25.7)">	</text><text xml:space="preserve" font-family="Consolas-Bold,Consolas" font-weight="bold" font-size="20.0" fill="#0264C0" transform="matrix(1.00, 0.00, -0.00, -1.00, 1207.1, 25.7)">	</text><text xml:space="preserve" font-family="Consolas-Bold,Consolas" font-weight="bold" font-size="20.0" fill="#0264C0" transform="matrix(1.00, 0.00, -0.00, -1.00, 1235.1, 25.7)">	</text><text xml:space="preserve" font-family="Consolas-Bold,Consolas" font-weight="bold" font-size="20.0" fill="#0264C0" transform="matrix(1.00, 0.00, -0.00, -1.00, 1263.1, 25.7)">	</text><text xml:space="preserve" font-family="Consolas-Bold,Consolas" font-weight="bold" font-size="20.0" fill="#0264C0" transform="matrix(1.00, 0.00, -0.00, -1.00, 1291.1, 25.7)">	</text><text xml:space="preserve" font-family="Consolas-Bold,Consolas" font-weight="bold" font-size="20.0" fill="#0264C0" transform="matrix(1.00, 0.00, -0.00, -1.00, 1319.1, 25.7)">	</text><text xml:space="preserve" font-family="Consolas-Bold,Consolas" font-weight="bold" font-size="20.0" fill="#0264C0" transform="matrix(1.00, 0.00, -0.00, -1.00, 1347.1, 25.7)">	</text><text xml:space="preserve" font-family="Consolas-Bold,Consolas" font-weight="bold" font-size="20.0" fill="#0264C0" transform="matrix(1.00, 0.00, -0.00, -1.00, 1375.1, 25.7)">	</text><text xml:space="preserve" font-family="Consolas-Bold,Consolas" font-weight="bold" font-size="20.0" fill="#0264C0" transform="matrix(1.00, 0.00, -0.00, -1.00, 1403.1, 25.7)">	</text><text xml:space="preserve" font-family="Consolas-Bold,Consolas" font-weight="bold" font-size="20.0" fill="#0264C0" transform="matrix(1.00, 0.00, -0.00, -1.00, 1431.1, 25.7)">	</text><text xml:space="preserve" font-family="Consolas-Bold,Consolas" font-weight="bold" font-size="20.0" fill="#0264C0" transform="matrix(1.00, 0.00, -0.00, -1.00, 1459.1, 25.7)">	</text><text xml:space="preserve" font-family="Consolas-Bold,Consolas" font-weight="bold" font-size="20.0" fill="#0264C0" transform="matrix(1.00, 0.00, -0.00, -1.00, 1487.1, 25.7)">	</text><text xml:space="preserve" font-family="Consolas-Bold,Consolas" font-weight="bold" font-size="20.0" fill="#0264C0" transform="matrix(1.00, 0.00, -0.00, -1.00, 1515.1, 25.7)">	</text><text xml:space="preserve" font-family="Consolas-Bold,Consolas" font-weight="bold" font-size="20.0" fill="#0264C0" transform="matrix(1.00, 0.00, -0.00, -1.00, 1543.1, 25.7)">	</text><text xml:space="preserve" font-family="Consolas-Bold,Consolas" font-weight="bold" font-size="20.0" fill="#0264C0" transform="matrix(1.00, 0.00, -0.00, -1.00, 1571.1, 25.7)">	</text><text xml:space="preserve" font-family="Consolas-Bold,Consolas" font-weight="bold" font-size="20.0" fill="#0264C0" transform="matrix(1.00, 0.00, -0.00, -1.00, 1599.1, 25.7)">	</text><text xml:space="preserve" font-family="Consolas-Bold,Consolas" font-weight="bold" font-size="20.0" fill="#0264C0" transform="matrix(1.00, 0.00, -0.00, -1.00, 1627.1, 25.7)">	</text><text xml:space="preserve" font-family="Consolas-Bold,Consolas" font-weight="bold" font-size="20.0" fill="#0264C0" transform="matrix(1.00, 0.00, -0.00, -1.00, 1655.1, 25.7)">	</text><text xml:space="preserve" font-family="Consolas-Bold,Consolas" font-weight="bold" font-size="20.0" fill="#0264C0" transform="matrix(1.00, 0.00, -0.00, -1.00, 1683.1, 25.7)">	</text><text xml:space="preserve" font-family="Consolas-Bold,Consolas" font-weight="bold" font-size="20.0" fill="#0264C0" transform="matrix(1.00, 0.00, -0.00, -1.00, 1711.1, 25.7)">	</text><text xml:space="preserve" font-family="Consolas-Bold,Consolas" font-weight="bold" font-size="20.0" fill="#0264C0" transform="matrix(1.00, 0.00, -0.00, -1.00, 1739.1, 25.7)">	</text><text xml:space="preserve" font-family="Consolas-Bold,Consolas" font-weight="bold" font-size="20.0" fill="#0264C0" transform="matrix(1.00, 0.00, -0.00, -1.00, 1767.1, 25.7)">	</text><text xml:space="preserve" font-family="Consolas-Bold,Consolas" font-weight="bold" font-size="20.0" fill="#0264C0" transform="matrix(1.00, 0.00, -0.00, -1.00, 1795.1, 25.7)">	</text><text xml:space="preserve" font-family="Consolas-Bold,Consolas" font-weight="bold" font-size="20.0" fill="#0264C0" transform="matrix(1.00, 0.00, -0.00, -1.00, 1823.1, 25.7)">	</text><text xml:space="preserve" font-family="Consolas-Bold,Consolas" font-weight="bold" font-size="20.0" fill="#0264C0" transform="matrix(1.00, 0.00, -0.00, -1.00, 1851.1, 25.7)">	</text><text xml:space="preserve" font-family="Consolas-Bold,Consolas" font-weight="bold" font-size="20.0" fill="#0264C0" transform="matrix(1.00, 0.00, -0.00, -1.00, 1879.1, 25.7)">	</text><text xml:space="preserve" font-family="Consolas-Bold,Consolas" font-weight="bold" font-size="20.0" fill="#0264C0" transform="matrix(1.00, 0.00, -0.00, -1.00, 1907.1, 25.7)">	</text><text xml:space="preserve" font-family="Consolas-Bold,Consolas" font-weight="bold" font-size="20.0" fill="#0264C0" transform="matrix(1.00, 0.00, -0.00, -1.00, 1935.1, 25.7)">	</text><text xml:space="preserve" font-family="Consolas-Bold,Consolas" font-weight="bold" font-size="20.0" fill="#0264C0" transform="matrix(1.00, 0.00, -0.00, -1.00, 1963.1, 25.7)">	</text><text xml:space="preserve" font-family="Consolas-Bold,Consolas" font-weight="bold" font-size="20.0" fill="#0264C0" transform="matrix(1.00, 0.00, -0.00, -1.00, 1991.1, 25.7)">	</text><text xml:space="preserve" font-family="Consolas-Bold,Consolas" font-weight="bold" font-size="20.0" fill="#0264C0" transform="matrix(1.00, 0.00, -0.00, -1.00, 2019.1, 25.7)">	</text><text xml:space="preserve" font-family="Consolas-Bold,Consolas" font-weight="bold" font-size="20.0" fill="#0264C0" transform="matrix(1.00, 0.00, -0.00, -1.00, 2047.1, 25.7)">	</text><text xml:space="preserve" font-family="Consolas-Bold,Consolas" font-weight="bold" font-size="20.0" fill="#0264C0" transform="matrix(1.00, 0.00, -0.00, -1.00, 2075.1, 25.7)">	</text><text xml:space="preserve" font-family="Consolas-Bold,Consolas" font-weight="bold" font-size="20.0" fill="#0264C0" transform="matrix(1.00, 0.00, -0.00, -1.00, 929.9, 25.7)">@</text><text xml:space="preserve" font-family="Consolas-Bold,Consolas" font-weight="bold" font-size="20.0" fill="#0264C0" transform="matrix(1.00, 0.00, -0.00, -1.00, 940.8, 25.7)">f</text><text xml:space="preserve" font-family="Consolas-Bold,Consolas" font-weight="bold" font-size="20.0" fill="#0264C0" transform="matrix(1.00, 0.00, -0.00, -1.00, 951.8, 25.7)">a</text><text xml:space="preserve" font-family="Consolas-Bold,Consolas" font-weight="bold" font-size="20.0" fill="#0264C0" transform="matrix(1.00, 0.00, -0.00, -1.00, 962.8, 25.7)">c</text><text xml:space="preserve" font-family="Consolas-Bold,Consolas" font-weight="bold" font-size="20.0" fill="#0264C0" transform="matrix(1.00, 0.00, -0.00, -1.00, 973.8, 25.7)">i</text><text xml:space="preserve" font-family="Consolas-Bold,Consolas" font-weight="bold" font-size="20.0" fill="#0264C0" transform="matrix(1.00, 0.00, -0.00, -1.00, 984.8, 25.7)">n</text><text xml:space="preserve" font-family="Consolas-Bold,Consolas" font-weight="bold" font-size="20.0" fill="#0264C0" transform="matrix(1.00, 0.00, -0.00, -1.00, 995.8, 25.7)">e</text></g></svg>